FFCopa-Regular.ufo
<glyph name="A" format="1">
  <advance width="1680"/>
  <unicode hex="0041"/>
  <outline>
    <contour>
      <point x="1600" y="768" type="line"/>
      <point x="1600" y="-128" type="line"/>
      <point x="80" y="-128" type="line"/>
      <point x="80" y="768" type="line"/>
    </contour>
    <contour>
      <point x="1616" y="-144" type="line"/>
      <point x="1616" y="784" type="line"/>
      <point x="64" y="784" type="line"/>
      <point x="64" y="-144" type="line"/>
    </contour>
    <contour>
      <point x="430" y="340" type="line"/>
      <point x="430" y="496" type="line"/>
      <point x="494" y="496" type="line" smooth="yes"/>
      <point x="563" y="496"/>
      <point x="596" y="474"/>
      <point x="596" y="419" type="curve" smooth="yes"/>
      <point x="596" y="361"/>
      <point x="555" y="340"/>
      <point x="496" y="340" type="curve" smooth="yes"/>
    </contour>
    <contour>
      <point x="752" y="524" type="line"/>
      <point x="719" y="524" type="line"/>
      <point x="719" y="262" type="line" smooth="yes"/>
      <point x="719" y="181"/>
      <point x="764" y="134"/>
      <point x="846" y="134" type="curve" smooth="yes"/>
      <point x="928" y="134"/>
      <point x="972" y="182"/>
      <point x="972" y="262" type="curve" smooth="yes"/>
      <point x="972" y="524" type="line"/>
      <point x="939" y="524" type="line"/>
      <point x="939" y="264" type="line" smooth="yes"/>
      <point x="939" y="197"/>
      <point x="908" y="162"/>
      <point x="846" y="162" type="curve" smooth="yes"/>
      <point x="784" y="162"/>
      <point x="752" y="197"/>
      <point x="752" y="264" type="curve" smooth="yes"/>
    </contour>
    <contour>
      <point x="500" y="312" type="line"/>
      <point x="610" y="140" type="line"/>
      <point x="649" y="140" type="line"/>
      <point x="534" y="317" type="line"/>
      <point x="587" y="328"/>
      <point x="631" y="354"/>
      <point x="631" y="419" type="curve" smooth="yes"/>
      <point x="631" y="490"/>
      <point x="584" y="524"/>
      <point x="493" y="524" type="curve" smooth="yes"/>
      <point x="397" y="524" type="line"/>
      <point x="397" y="140" type="line"/>
      <point x="430" y="140" type="line"/>
      <point x="430" y="312" type="line"/>
    </contour>
    <contour>
      <point x="1274" y="467" type="curve"/>
      <point x="1294" y="489" type="line"/>
      <point x="1265" y="513"/>
      <point x="1233" y="530"/>
      <point x="1181" y="530" type="curve" smooth="yes"/>
      <point x="1112" y="530"/>
      <point x="1065" y="493"/>
      <point x="1065" y="437" type="curve" smooth="yes"/>
      <point x="1065" y="381"/>
      <point x="1100" y="356"/>
      <point x="1177" y="331" type="curve" smooth="yes"/>
      <point x="1244" y="311"/>
      <point x="1273" y="293"/>
      <point x="1273" y="245" type="curve" smooth="yes"/>
      <point x="1273" y="192"/>
      <point x="1233" y="162"/>
      <point x="1175" y="162" type="curve" smooth="yes"/>
      <point x="1130" y="162"/>
      <point x="1096" y="178"/>
      <point x="1068" y="203" type="curve"/>
      <point x="1048" y="180" type="line"/>
      <point x="1079" y="151"/>
      <point x="1122" y="134"/>
      <point x="1175" y="134" type="curve" smooth="yes"/>
      <point x="1257" y="134"/>
      <point x="1307" y="179"/>
      <point x="1307" y="246" type="curve" smooth="yes"/>
      <point x="1307" y="314"/>
      <point x="1259" y="339"/>
      <point x="1191" y="360" type="curve" smooth="yes"/>
      <point x="1122" y="381"/>
      <point x="1099" y="398"/>
      <point x="1099" y="438" type="curve" smooth="yes"/>
      <point x="1099" y="479"/>
      <point x="1134" y="501"/>
      <point x="1182" y="501" type="curve" smooth="yes"/>
      <point x="1220" y="501"/>
      <point x="1247" y="490"/>
    </contour>
  </outline>
</glyph>
<glyph name="B" format="1">
  <advance width="1520"/>
  <unicode hex="0042"/>
  <outline>
    <contour>
      <point x="1456" y="-144" type="line"/>
      <point x="1456" y="784" type="line"/>
      <point x="64" y="784" type="line"/>
      <point x="64" y="-144" type="line"/>
    </contour>
    <contour>
      <point x="1440" y="768" type="line"/>
      <point x="1440" y="-128" type="line"/>
      <point x="80" y="-128" type="line"/>
      <point x="80" y="768" type="line"/>
    </contour>
    <contour>
      <point x="1034" y="340" type="line"/>
      <point x="1034" y="496" type="line"/>
      <point x="1098" y="496" type="line" smooth="yes"/>
      <point x="1167" y="496"/>
      <point x="1200" y="474"/>
      <point x="1200" y="419" type="curve" smooth="yes"/>
      <point x="1200" y="361"/>
      <point x="1159" y="340"/>
      <point x="1100" y="340" type="curve" smooth="yes"/>
    </contour>
    <contour>
      <point x="749" y="134" type="curve" smooth="yes"/>
      <point x="838" y="134"/>
      <point x="900" y="207"/>
      <point x="900" y="331" type="curve" smooth="yes"/>
      <point x="900" y="460"/>
      <point x="838" y="530"/>
      <point x="749" y="530" type="curve" smooth="yes"/>
      <point x="658" y="530"/>
      <point x="596" y="456"/>
      <point x="596" y="331" type="curve" smooth="yes"/>
      <point x="596" y="203"/>
      <point x="658" y="134"/>
    </contour>
    <contour>
      <point x="552" y="524" type="line"/>
      <point x="512" y="524" type="line"/>
      <point x="353" y="346" type="line"/>
      <point x="520" y="140" type="line"/>
      <point x="562" y="140" type="line"/>
      <point x="393" y="348" type="line"/>
    </contour>
    <contour>
      <point x="1104" y="312" type="line"/>
      <point x="1213" y="140" type="line"/>
      <point x="1253" y="140" type="line"/>
      <point x="1138" y="317" type="line"/>
      <point x="1190" y="328"/>
      <point x="1235" y="354"/>
      <point x="1235" y="419" type="curve" smooth="yes"/>
      <point x="1235" y="490"/>
      <point x="1188" y="524"/>
      <point x="1096" y="524" type="curve" smooth="yes"/>
      <point x="1001" y="524" type="line"/>
      <point x="1001" y="140" type="line"/>
      <point x="1034" y="140" type="line"/>
      <point x="1034" y="312" type="line"/>
    </contour>
    <contour>
      <point x="351" y="524" type="line"/>
      <point x="318" y="524" type="line"/>
      <point x="318" y="140" type="line"/>
      <point x="351" y="140" type="line"/>
    </contour>
    <contour>
      <point x="866" y="331" type="curve" smooth="yes"/>
      <point x="866" y="217"/>
      <point x="819" y="162"/>
      <point x="749" y="162" type="curve" smooth="yes"/>
      <point x="679" y="162"/>
      <point x="631" y="216"/>
      <point x="631" y="331" type="curve" smooth="yes"/>
      <point x="631" y="446"/>
      <point x="678" y="501"/>
      <point x="749" y="501" type="curve" smooth="yes"/>
      <point x="819" y="501"/>
      <point x="866" y="447"/>
    </contour>
  </outline>
</glyph>
<glyph name="C" format="2">
  <advance width="1488"/>
  <unicode hex="0043"/>
  <outline>
    <contour>
      <point x="1408" y="768" type="line"/>
      <point x="1408" y="-128" type="line"/>
      <point x="80" y="-128" type="line"/>
      <point x="80" y="768" type="line"/>
    </contour>
    <contour>
      <point x="1424" y="-144" type="line"/>
      <point x="1424" y="784" type="line"/>
      <point x="64" y="784" type="line"/>
      <point x="64" y="-144" type="line"/>
    </contour>
    <contour>
      <point x="975" y="289" type="line"/>
      <point x="1030" y="289" type="line" smooth="yes"/>
      <point x="1117" y="289"/>
      <point x="1176" y="321"/>
      <point x="1176" y="409" type="curve" smooth="yes"/>
      <point x="1176" y="490"/>
      <point x="1123" y="524"/>
      <point x="1029" y="524" type="curve" smooth="yes"/>
      <point x="942" y="524" type="line"/>
      <point x="942" y="140" type="line"/>
      <point x="975" y="140" type="line"/>
    </contour>
    <contour>
      <point x="822" y="467" type="curve"/>
      <point x="842" y="489" type="line"/>
      <point x="813" y="513"/>
      <point x="781" y="530"/>
      <point x="728" y="530" type="curve" smooth="yes"/>
      <point x="660" y="530"/>
      <point x="612" y="493"/>
      <point x="612" y="437" type="curve" smooth="yes"/>
      <point x="612" y="381"/>
      <point x="647" y="356"/>
      <point x="724" y="331" type="curve" smooth="yes"/>
      <point x="791" y="311"/>
      <point x="820" y="293"/>
      <point x="820" y="245" type="curve" smooth="yes"/>
      <point x="820" y="192"/>
      <point x="781" y="162"/>
      <point x="723" y="162" type="curve" smooth="yes"/>
      <point x="678" y="162"/>
      <point x="643" y="178"/>
      <point x="615" y="203" type="curve"/>
      <point x="595" y="180" type="line"/>
      <point x="627" y="151"/>
      <point x="669" y="134"/>
      <point x="723" y="134" type="curve" smooth="yes"/>
      <point x="805" y="134"/>
      <point x="855" y="179"/>
      <point x="855" y="246" type="curve" smooth="yes"/>
      <point x="855" y="314"/>
      <point x="806" y="339"/>
      <point x="738" y="360" type="curve" smooth="yes"/>
      <point x="669" y="381"/>
      <point x="646" y="398"/>
      <point x="646" y="438" type="curve" smooth="yes"/>
      <point x="646" y="479"/>
      <point x="682" y="501"/>
      <point x="729" y="501" type="curve" smooth="yes"/>
      <point x="768" y="501"/>
      <point x="795" y="490"/>
    </contour>
    <contour>
      <point x="350" y="140" type="line"/>
      <point x="548" y="140" type="line"/>
      <point x="548" y="168" type="line"/>
      <point x="383" y="168" type="line"/>
      <point x="383" y="325" type="line"/>
      <point x="519" y="325" type="line"/>
      <point x="519" y="353" type="line"/>
      <point x="383" y="353" type="line"/>
      <point x="383" y="496" type="line"/>
      <point x="539" y="496" type="line"/>
      <point x="543" y="524" type="line"/>
      <point x="350" y="524" type="line"/>
    </contour>
    <contour>
      <point x="975" y="317" type="line"/>
      <point x="975" y="496" type="line"/>
      <point x="1032" y="496" type="line" smooth="yes"/>
      <point x="1100" y="496"/>
      <point x="1141" y="471"/>
      <point x="1141" y="409" type="curve" smooth="yes"/>
      <point x="1141" y="336"/>
      <point x="1097" y="317"/>
      <point x="1033" y="317" type="curve" smooth="yes"/>
    </contour>
  </outline>
</glyph>
<glyph name="D" format="1">
  <advance width="1056"/>
  <unicode hex="0044"/>
  <outline>
    <contour>
      <point x="992" y="-144" type="line"/>
      <point x="992" y="784" type="line"/>
      <point x="64" y="784" type="line"/>
      <point x="64" y="-144" type="line"/>
    </contour>
    <contour>
      <point x="976" y="768" type="line"/>
      <point x="976" y="-128" type="line"/>
      <point x="80" y="-128" type="line"/>
      <point x="80" y="768" type="line"/>
    </contour>
    <contour>
      <point x="871" y="524" type="line"/>
      <point x="838" y="524" type="line"/>
      <point x="838" y="140" type="line"/>
      <point x="871" y="140" type="line"/>
    </contour>
    <contour>
      <point x="353" y="467" type="curve"/>
      <point x="373" y="489" type="line"/>
      <point x="344" y="513"/>
      <point x="312" y="530"/>
      <point x="260" y="530" type="curve" smooth="yes"/>
      <point x="191" y="530"/>
      <point x="144" y="493"/>
      <point x="144" y="437" type="curve" smooth="yes"/>
      <point x="144" y="381"/>
      <point x="178" y="356"/>
      <point x="256" y="331" type="curve" smooth="yes"/>
      <point x="323" y="311"/>
      <point x="352" y="293"/>
      <point x="352" y="245" type="curve" smooth="yes"/>
      <point x="352" y="192"/>
      <point x="312" y="162"/>
      <point x="254" y="162" type="curve" smooth="yes"/>
      <point x="209" y="162"/>
      <point x="175" y="178"/>
      <point x="147" y="203" type="curve"/>
      <point x="127" y="180" type="line"/>
      <point x="158" y="151"/>
      <point x="201" y="134"/>
      <point x="254" y="134" type="curve" smooth="yes"/>
      <point x="336" y="134"/>
      <point x="386" y="179"/>
      <point x="386" y="246" type="curve" smooth="yes"/>
      <point x="386" y="314"/>
      <point x="338" y="339"/>
      <point x="270" y="360" type="curve" smooth="yes"/>
      <point x="201" y="381"/>
      <point x="178" y="398"/>
      <point x="178" y="438" type="curve" smooth="yes"/>
      <point x="178" y="479"/>
      <point x="213" y="501"/>
      <point x="261" y="501" type="curve" smooth="yes"/>
      <point x="299" y="501"/>
      <point x="326" y="490"/>
    </contour>
    <contour>
      <point x="500" y="524" type="line"/>
      <point x="467" y="524" type="line"/>
      <point x="467" y="262" type="line" smooth="yes"/>
      <point x="467" y="181"/>
      <point x="512" y="134"/>
      <point x="594" y="134" type="curve" smooth="yes"/>
      <point x="676" y="134"/>
      <point x="721" y="182"/>
      <point x="721" y="262" type="curve" smooth="yes"/>
      <point x="721" y="524" type="line"/>
      <point x="688" y="524" type="line"/>
      <point x="688" y="264" type="line" smooth="yes"/>
      <point x="688" y="197"/>
      <point x="656" y="162"/>
      <point x="594" y="162" type="curve" smooth="yes"/>
      <point x="532" y="162"/>
      <point x="500" y="197"/>
      <point x="500" y="264" type="curve" smooth="yes"/>
    </contour>
  </outline>
</glyph>
<glyph name="E" format="2">
  <advance width="1488"/>
  <unicode hex="0045"/>
  <outline>
    <contour>
      <point x="1408" y="768" type="line"/>
      <point x="1408" y="-128" type="line"/>
      <point x="80" y="-128" type="line"/>
      <point x="80" y="768" type="line"/>
    </contour>
    <contour>
      <point x="1424" y="-144" type="line"/>
      <point x="1424" y="784" type="line"/>
      <point x="64" y="784" type="line"/>
      <point x="64" y="-144" type="line"/>
    </contour>
    <contour>
      <point x="1004" y="524" type="line"/>
      <point x="971" y="524" type="line"/>
      <point x="971" y="262" type="line" smooth="yes"/>
      <point x="971" y="181"/>
      <point x="1016" y="134"/>
      <point x="1098" y="134" type="curve" smooth="yes"/>
      <point x="1180" y="134"/>
      <point x="1224" y="182"/>
      <point x="1224" y="262" type="curve" smooth="yes"/>
      <point x="1224" y="524" type="line"/>
      <point x="1191" y="524" type="line"/>
      <point x="1191" y="264" type="line" smooth="yes"/>
      <point x="1191" y="197"/>
      <point x="1160" y="162"/>
      <point x="1098" y="162" type="curve" smooth="yes"/>
      <point x="1036" y="162"/>
      <point x="1004" y="197"/>
      <point x="1004" y="264" type="curve" smooth="yes"/>
    </contour>
    <contour>
      <point x="297" y="524" type="line"/>
      <point x="264" y="524" type="line"/>
      <point x="264" y="262" type="line" smooth="yes"/>
      <point x="264" y="181"/>
      <point x="308" y="134"/>
      <point x="390" y="134" type="curve" smooth="yes"/>
      <point x="472" y="134"/>
      <point x="517" y="182"/>
      <point x="517" y="262" type="curve" smooth="yes"/>
      <point x="517" y="524" type="line"/>
      <point x="484" y="524" type="line"/>
      <point x="484" y="264" type="line" smooth="yes"/>
      <point x="484" y="197"/>
      <point x="452" y="162"/>
      <point x="390" y="162" type="curve" smooth="yes"/>
      <point x="328" y="162"/>
      <point x="297" y="197"/>
      <point x="297" y="264" type="curve" smooth="yes"/>
    </contour>
    <contour>
      <point x="738" y="312" type="line"/>
      <point x="848" y="140" type="line"/>
      <point x="887" y="140" type="line"/>
      <point x="772" y="317" type="line"/>
      <point x="825" y="328"/>
      <point x="869" y="354"/>
      <point x="869" y="419" type="curve" smooth="yes"/>
      <point x="869" y="490"/>
      <point x="822" y="524"/>
      <point x="730" y="524" type="curve" smooth="yes"/>
      <point x="635" y="524" type="line"/>
      <point x="635" y="140" type="line"/>
      <point x="668" y="140" type="line"/>
      <point x="668" y="312" type="line"/>
    </contour>
    <contour>
      <point x="668" y="340" type="line"/>
      <point x="668" y="496" type="line"/>
      <point x="732" y="496" type="line" smooth="yes"/>
      <point x="801" y="496"/>
      <point x="834" y="474"/>
      <point x="834" y="419" type="curve" smooth="yes"/>
      <point x="834" y="361"/>
      <point x="793" y="340"/>
      <point x="734" y="340" type="curve" smooth="yes"/>
    </contour>
  </outline>
</glyph>
<glyph name="F" format="2">
  <advance width="1856"/>
  <unicode hex="0046"/>
  <outline>
    <contour>
      <point x="1792" y="-144" type="line"/>
      <point x="1792" y="784" type="line"/>
      <point x="64" y="784" type="line"/>
      <point x="64" y="-144" type="line"/>
    </contour>
    <contour>
      <point x="1776" y="768" type="line"/>
      <point x="1776" y="-128" type="line"/>
      <point x="80" y="-128" type="line"/>
      <point x="80" y="768" type="line"/>
    </contour>
    <contour>
      <point x="1022" y="467" type="curve"/>
      <point x="1042" y="489" type="line"/>
      <point x="1013" y="513"/>
      <point x="981" y="530"/>
      <point x="928" y="530" type="curve" smooth="yes"/>
      <point x="860" y="530"/>
      <point x="813" y="493"/>
      <point x="813" y="437" type="curve" smooth="yes"/>
      <point x="813" y="381"/>
      <point x="847" y="356"/>
      <point x="925" y="331" type="curve" smooth="yes"/>
      <point x="992" y="311"/>
      <point x="1020" y="293"/>
      <point x="1020" y="245" type="curve" smooth="yes"/>
      <point x="1020" y="192"/>
      <point x="981" y="162"/>
      <point x="923" y="162" type="curve" smooth="yes"/>
      <point x="878" y="162"/>
      <point x="843" y="178"/>
      <point x="815" y="203" type="curve"/>
      <point x="796" y="180" type="line"/>
      <point x="827" y="151"/>
      <point x="870" y="134"/>
      <point x="923" y="134" type="curve" smooth="yes"/>
      <point x="1005" y="134"/>
      <point x="1055" y="179"/>
      <point x="1055" y="246" type="curve" smooth="yes"/>
      <point x="1055" y="314"/>
      <point x="1006" y="339"/>
      <point x="939" y="360" type="curve" smooth="yes"/>
      <point x="870" y="381"/>
      <point x="847" y="398"/>
      <point x="847" y="438" type="curve" smooth="yes"/>
      <point x="847" y="479"/>
      <point x="882" y="501"/>
      <point x="930" y="501" type="curve" smooth="yes"/>
      <point x="968" y="501"/>
      <point x="995" y="490"/>
    </contour>
    <contour>
      <point x="1191" y="272" type="line"/>
      <point x="1262" y="494" type="line"/>
      <point x="1263" y="494" type="line"/>
      <point x="1333" y="272" type="line"/>
    </contour>
    <contour>
      <point x="500" y="524" type="line"/>
      <point x="467" y="524" type="line"/>
      <point x="467" y="262" type="line" smooth="yes"/>
      <point x="467" y="181"/>
      <point x="512" y="134"/>
      <point x="594" y="134" type="curve" smooth="yes"/>
      <point x="675" y="134"/>
      <point x="720" y="182"/>
      <point x="720" y="262" type="curve" smooth="yes"/>
      <point x="720" y="524" type="line"/>
      <point x="687" y="524" type="line"/>
      <point x="687" y="264" type="line" smooth="yes"/>
      <point x="687" y="197"/>
      <point x="656" y="162"/>
      <point x="594" y="162" type="curve" smooth="yes"/>
      <point x="531" y="162"/>
      <point x="500" y="197"/>
      <point x="500" y="264" type="curve" smooth="yes"/>
    </contour>
    <contour>
      <point x="1342" y="244" type="line"/>
      <point x="1375" y="140" type="line"/>
      <point x="1410" y="140" type="line"/>
      <point x="1284" y="524" type="line"/>
      <point x="1242" y="524" type="line"/>
      <point x="1116" y="140" type="line"/>
      <point x="1149" y="140" type="line"/>
      <point x="1182" y="244" type="line"/>
    </contour>
  </outline>
</glyph>
<glyph name="P" format="1">
  <advance width="1520"/>
  <unicode hex="0050"/>
  <outline>
    <contour>
      <point x="784" y="96" type="line"/>
      <point x="800" y="96" type="line"/>
      <point x="800" y="80" type="line"/>
      <point x="784" y="80" type="line"/>
    </contour>
    <contour>
      <point x="817" y="160" type="line"/>
      <point x="832" y="160" type="line"/>
      <point x="832" y="128" type="line"/>
      <point x="817" y="128" type="line"/>
    </contour>
    <contour>
      <point x="592" y="224" type="line"/>
      <point x="592" y="208" type="line"/>
      <point x="608" y="208" type="line"/>
      <point x="608" y="144" type="line"/>
      <point x="624" y="144" type="line"/>
      <point x="624" y="160" type="line"/>
      <point x="640" y="160" type="line"/>
      <point x="640" y="96" type="line"/>
      <point x="655" y="96" type="line"/>
      <point x="655" y="80" type="line"/>
      <point x="704" y="80" type="line"/>
      <point x="704" y="64" type="line"/>
      <point x="816" y="64" type="line"/>
      <point x="816" y="80" type="line"/>
      <point x="865" y="80" type="line"/>
      <point x="865" y="96" type="line"/>
      <point x="880" y="96" type="line"/>
      <point x="880" y="160" type="line"/>
      <point x="896" y="160" type="line"/>
      <point x="896" y="144" type="line"/>
      <point x="912" y="144" type="line"/>
      <point x="912" y="208" type="line"/>
      <point x="928" y="208" type="line"/>
      <point x="928" y="224" type="line"/>
      <point x="944" y="224" type="line"/>
      <point x="944" y="176" type="line"/>
      <point x="928" y="176" type="line"/>
      <point x="928" y="128" type="line"/>
      <point x="912" y="128" type="line"/>
      <point x="912" y="48" type="line"/>
      <point x="896" y="48" type="line"/>
      <point x="896" y="32" type="line"/>
      <point x="864" y="32" type="line"/>
      <point x="864" y="16" type="line"/>
      <point x="800" y="16" type="line"/>
      <point x="800" y="0" type="line"/>
      <point x="720" y="0" type="line"/>
      <point x="720" y="16" type="line"/>
      <point x="656" y="16" type="line"/>
      <point x="656" y="32" type="line"/>
      <point x="624" y="32" type="line"/>
      <point x="624" y="48" type="line"/>
      <point x="608" y="48" type="line"/>
      <point x="608" y="128" type="line"/>
      <point x="592" y="128" type="line"/>
      <point x="592" y="176" type="line"/>
      <point x="576" y="176" type="line"/>
      <point x="576" y="224" type="line"/>
    </contour>
    <contour>
      <point x="688" y="112" type="line"/>
      <point x="704" y="112" type="line"/>
      <point x="704" y="96" type="line"/>
      <point x="688" y="96" type="line"/>
    </contour>
    <contour>
      <point x="848" y="112" type="line"/>
      <point x="864" y="112" type="line"/>
      <point x="864" y="96" type="line"/>
      <point x="848" y="96" type="line"/>
    </contour>
    <contour>
      <point x="704" y="640" type="line"/>
      <point x="816" y="640" type="line"/>
      <point x="816" y="624" type="line"/>
      <point x="880" y="624" type="line"/>
      <point x="880" y="608" type="line"/>
      <point x="912" y="608" type="line"/>
      <point x="912" y="592" type="line"/>
      <point x="944" y="592" type="line"/>
      <point x="944" y="576" type="line"/>
      <point x="960" y="576" type="line"/>
      <point x="960" y="560" type="line"/>
      <point x="976" y="560" type="line"/>
      <point x="976" y="544" type="line"/>
      <point x="992" y="544" type="line"/>
      <point x="992" y="512" type="line"/>
      <point x="1008" y="512" type="line"/>
      <point x="1008" y="464" type="line"/>
      <point x="1024" y="464" type="line"/>
      <point x="1024" y="400" type="line"/>
      <point x="1008" y="400" type="line"/>
      <point x="1008" y="352" type="line"/>
      <point x="992" y="352" type="line"/>
      <point x="992" y="320" type="line"/>
      <point x="976" y="320" type="line"/>
      <point x="976" y="304" type="line"/>
      <point x="960" y="304" type="line"/>
      <point x="960" y="400" type="line"/>
      <point x="976" y="400" type="line"/>
      <point x="976" y="416" type="line"/>
      <point x="992" y="416" type="line"/>
      <point x="992" y="432" type="line"/>
      <point x="975" y="432" type="line"/>
      <point x="975" y="416" type="line"/>
      <point x="959" y="416" type="line"/>
      <point x="959" y="400" type="line"/>
      <point x="944" y="400" type="line"/>
      <point x="944" y="304" type="line"/>
      <point x="959" y="304" type="line"/>
      <point x="959" y="288" type="line"/>
      <point x="992" y="288" type="line"/>
      <point x="992" y="256" type="line"/>
      <point x="976" y="256" type="line"/>
      <point x="976" y="240" type="line"/>
      <point x="912" y="240" type="line"/>
      <point x="912" y="224" type="line"/>
      <point x="863" y="224" type="line"/>
      <point x="863" y="208" type="line"/>
      <point x="848" y="208" type="line"/>
      <point x="848" y="192" type="line"/>
      <point x="864" y="192" type="line"/>
      <point x="864" y="208" type="line"/>
      <point x="880" y="208" type="line"/>
      <point x="880" y="176" type="line"/>
      <point x="816" y="176" type="line"/>
      <point x="816" y="160" type="line"/>
      <point x="800" y="160" type="line"/>
      <point x="800" y="176" type="line"/>
      <point x="768" y="176" type="line"/>
      <point x="768" y="160" type="line"/>
      <point x="752" y="160" type="line"/>
      <point x="752" y="176" type="line"/>
      <point x="720" y="176" type="line"/>
      <point x="720" y="160" type="line"/>
      <point x="704" y="160" type="line"/>
      <point x="704" y="176" type="line"/>
      <point x="640" y="176" type="line"/>
      <point x="640" y="208" type="line"/>
      <point x="656" y="208" type="line"/>
      <point x="656" y="192" type="line"/>
      <point x="672" y="192" type="line"/>
      <point x="672" y="208" type="line"/>
      <point x="657" y="208" type="line"/>
      <point x="657" y="224" type="line"/>
      <point x="608" y="224" type="line"/>
      <point x="608" y="240" type="line"/>
      <point x="544" y="240" type="line"/>
      <point x="544" y="256" type="line"/>
      <point x="528" y="256" type="line"/>
      <point x="528" y="288" type="line"/>
      <point x="561" y="288" type="line"/>
      <point x="561" y="304" type="line"/>
      <point x="576" y="304" type="line"/>
      <point x="576" y="400" type="line"/>
      <point x="561" y="400" type="line"/>
      <point x="561" y="416" type="line"/>
      <point x="545" y="416" type="line"/>
      <point x="545" y="432" type="line"/>
      <point x="528" y="432" type="line"/>
      <point x="528" y="416" type="line"/>
      <point x="544" y="416" type="line"/>
      <point x="544" y="400" type="line"/>
      <point x="560" y="400" type="line"/>
      <point x="560" y="304" type="line"/>
      <point x="544" y="304" type="line"/>
      <point x="544" y="320" type="line"/>
      <point x="528" y="320" type="line"/>
      <point x="528" y="352" type="line"/>
      <point x="512" y="352" type="line"/>
      <point x="512" y="400" type="line"/>
      <point x="496" y="400" type="line"/>
      <point x="496" y="464" type="line"/>
      <point x="512" y="464" type="line"/>
      <point x="512" y="512" type="line"/>
      <point x="528" y="512" type="line"/>
      <point x="528" y="544" type="line"/>
      <point x="544" y="544" type="line"/>
      <point x="544" y="560" type="line"/>
      <point x="560" y="560" type="line"/>
      <point x="560" y="576" type="line"/>
      <point x="576" y="576" type="line"/>
      <point x="576" y="592" type="line"/>
      <point x="608" y="592" type="line"/>
      <point x="608" y="608" type="line"/>
      <point x="640" y="608" type="line"/>
      <point x="640" y="624" type="line"/>
      <point x="704" y="624" type="line"/>
    </contour>
    <contour>
      <point x="816" y="112" type="line"/>
      <point x="832" y="112" type="line"/>
      <point x="832" y="96" type="line"/>
      <point x="816" y="96" type="line"/>
    </contour>
    <contour>
      <point x="896" y="272" type="line"/>
      <point x="896" y="288" type="line"/>
      <point x="912" y="288" type="line"/>
      <point x="912" y="304" type="line"/>
      <point x="928" y="304" type="line"/>
      <point x="928" y="352" type="line"/>
      <point x="912" y="352" type="line"/>
      <point x="912" y="384" type="line"/>
      <point x="896" y="384" type="line"/>
      <point x="896" y="400" type="line"/>
      <point x="832" y="400" type="line"/>
      <point x="832" y="384" type="line"/>
      <point x="816" y="384" type="line"/>
      <point x="816" y="368" type="line"/>
      <point x="800" y="368" type="line"/>
      <point x="800" y="320" type="line"/>
      <point x="816" y="320" type="line"/>
      <point x="816" y="304" type="line"/>
      <point x="832" y="304" type="line"/>
      <point x="832" y="288" type="line"/>
      <point x="848" y="288" type="line"/>
      <point x="848" y="272" type="line"/>
    </contour>
    <contour>
      <point x="769" y="160" type="line"/>
      <point x="799" y="160" type="line"/>
      <point x="799" y="112" type="line"/>
      <point x="769" y="112" type="line"/>
    </contour>
    <contour>
      <point x="64" y="-144" type="line"/>
      <point x="1456" y="-144" type="line"/>
      <point x="1456" y="784" type="line"/>
      <point x="64" y="784" type="line"/>
    </contour>
    <contour>
      <point x="688" y="160" type="line"/>
      <point x="703" y="160" type="line"/>
      <point x="703" y="128" type="line"/>
      <point x="688" y="128" type="line"/>
    </contour>
    <contour>
      <point x="672" y="112" type="line"/>
      <point x="672" y="96" type="line"/>
      <point x="656" y="96" type="line"/>
      <point x="656" y="112" type="line"/>
    </contour>
    <contour>
      <point x="720" y="224" type="line"/>
      <point x="736" y="224" type="line"/>
      <point x="736" y="208" type="line"/>
      <point x="752" y="208" type="line"/>
      <point x="752" y="224" type="line"/>
      <point x="768" y="224" type="line"/>
      <point x="768" y="208" type="line"/>
      <point x="784" y="208" type="line"/>
      <point x="784" y="224" type="line"/>
      <point x="800" y="224" type="line"/>
      <point x="800" y="272" type="line"/>
      <point x="784" y="272" type="line"/>
      <point x="784" y="304" type="line"/>
      <point x="768" y="304" type="line"/>
      <point x="768" y="320" type="line"/>
      <point x="752" y="320" type="line"/>
      <point x="752" y="304" type="line"/>
      <point x="736" y="304" type="line"/>
      <point x="736" y="272" type="line"/>
      <point x="720" y="272" type="line"/>
    </contour>
    <contour>
      <point x="656" y="160" type="line"/>
      <point x="672" y="160" type="line"/>
      <point x="672" y="128" type="line"/>
      <point x="656" y="128" type="line"/>
    </contour>
    <contour>
      <point x="736" y="96" type="line"/>
      <point x="736" y="80" type="line"/>
      <point x="720" y="80" type="line"/>
      <point x="720" y="96" type="line"/>
    </contour>
    <contour>
      <point x="624" y="272" type="line"/>
      <point x="672" y="272" type="line"/>
      <point x="672" y="288" type="line"/>
      <point x="688" y="288" type="line"/>
      <point x="688" y="304" type="line"/>
      <point x="704" y="304" type="line"/>
      <point x="704" y="320" type="line"/>
      <point x="720" y="320" type="line"/>
      <point x="720" y="368" type="line"/>
      <point x="704" y="368" type="line"/>
      <point x="704" y="384" type="line"/>
      <point x="688" y="384" type="line"/>
      <point x="688" y="400" type="line"/>
      <point x="624" y="400" type="line"/>
      <point x="624" y="384" type="line"/>
      <point x="608" y="384" type="line"/>
      <point x="608" y="352" type="line"/>
      <point x="592" y="352" type="line"/>
      <point x="592" y="304" type="line"/>
      <point x="608" y="304" type="line"/>
      <point x="608" y="288" type="line"/>
      <point x="624" y="288" type="line"/>
    </contour>
    <contour>
      <point x="848" y="160" type="line"/>
      <point x="864" y="160" type="line"/>
      <point x="864" y="128" type="line"/>
      <point x="848" y="128" type="line"/>
    </contour>
    <contour>
      <point x="768" y="96" type="line"/>
      <point x="768" y="80" type="line"/>
      <point x="752" y="80" type="line"/>
      <point x="752" y="96" type="line"/>
    </contour>
    <contour>
      <point x="721" y="160" type="line"/>
      <point x="751" y="160" type="line"/>
      <point x="751" y="112" type="line"/>
      <point x="721" y="112" type="line"/>
    </contour>
  </outline>
</glyph>
<glyph name="a" format="1">
  <advance width="1520"/>
  <unicode hex="0061"/>
  <outline>
    <contour>
      <point x="1440" y="768" type="line"/>
      <point x="1440" y="-128" type="line"/>
      <point x="80" y="-128" type="line"/>
      <point x="80" y="768" type="line"/>
    </contour>
    <contour>
      <point x="1456" y="-144" type="line"/>
      <point x="1456" y="784" type="line"/>
      <point x="64" y="784" type="line"/>
      <point x="64" y="-144" type="line"/>
    </contour>
    <contour>
      <point x="377" y="272" type="line"/>
      <point x="448" y="494" type="line"/>
      <point x="449" y="494" type="line"/>
      <point x="519" y="272" type="line"/>
    </contour>
    <contour>
      <point x="528" y="244" type="line"/>
      <point x="561" y="140" type="line"/>
      <point x="596" y="140" type="line"/>
      <point x="470" y="524" type="line"/>
      <point x="428" y="524" type="line"/>
      <point x="302" y="140" type="line"/>
      <point x="335" y="140" type="line"/>
      <point x="368" y="244" type="line"/>
    </contour>
    <contour>
      <point x="1142" y="471" type="curve"/>
      <point x="1162" y="492" type="line"/>
      <point x="1134" y="517"/>
      <point x="1105" y="530"/>
      <point x="1056" y="530" type="curve" smooth="yes"/>
      <point x="975" y="530"/>
      <point x="898" y="463"/>
      <point x="898" y="332" type="curve" smooth="yes"/>
      <point x="898" y="199"/>
      <point x="961" y="134"/>
      <point x="1050" y="134" type="curve" smooth="yes"/>
      <point x="1095" y="134"/>
      <point x="1136" y="146"/>
      <point x="1169" y="165" type="curve"/>
      <point x="1169" y="348" type="line"/>
      <point x="1054" y="348" type="line"/>
      <point x="1058" y="320" type="line"/>
      <point x="1137" y="320" type="line"/>
      <point x="1137" y="182" type="line"/>
      <point x="1113" y="170"/>
      <point x="1086" y="162"/>
      <point x="1052" y="162" type="curve" smooth="yes"/>
      <point x="980" y="162"/>
      <point x="932" y="215"/>
      <point x="932" y="332" type="curve" smooth="yes"/>
      <point x="932" y="453"/>
      <point x="993" y="501"/>
      <point x="1057" y="501" type="curve" smooth="yes"/>
      <point x="1092" y="501"/>
      <point x="1119" y="492"/>
    </contour>
    <contour>
      <point x="700" y="524" type="line"/>
      <point x="667" y="524" type="line"/>
      <point x="667" y="140" type="line"/>
      <point x="856" y="140" type="line"/>
      <point x="860" y="170" type="line"/>
      <point x="700" y="170" type="line"/>
    </contour>
  </outline>
</glyph>
<glyph name="b" format="1">
  <advance width="1616"/>
  <unicode hex="0062"/>
  <outline>
    <contour>
      <point x="1552" y="-144" type="line"/>
      <point x="1552" y="784" type="line"/>
      <point x="64" y="784" type="line"/>
      <point x="64" y="-144" type="line"/>
    </contour>
    <contour>
      <point x="1536" y="768" type="line"/>
      <point x="1536" y="-128" type="line"/>
      <point x="80" y="-128" type="line"/>
      <point x="80" y="768" type="line"/>
    </contour>
    <contour>
      <point x="1241" y="471" type="curve"/>
      <point x="1261" y="492" type="line"/>
      <point x="1233" y="517"/>
      <point x="1203" y="530"/>
      <point x="1154" y="530" type="curve" smooth="yes"/>
      <point x="1073" y="530"/>
      <point x="996" y="463"/>
      <point x="996" y="332" type="curve" smooth="yes"/>
      <point x="996" y="199"/>
      <point x="1059" y="134"/>
      <point x="1148" y="134" type="curve" smooth="yes"/>
      <point x="1194" y="134"/>
      <point x="1234" y="146"/>
      <point x="1268" y="165" type="curve"/>
      <point x="1268" y="348" type="line"/>
      <point x="1153" y="348" type="line"/>
      <point x="1157" y="320" type="line"/>
      <point x="1235" y="320" type="line"/>
      <point x="1235" y="182" type="line"/>
      <point x="1212" y="170"/>
      <point x="1184" y="162"/>
      <point x="1150" y="162" type="curve" smooth="yes"/>
      <point x="1079" y="162"/>
      <point x="1031" y="215"/>
      <point x="1031" y="332" type="curve" smooth="yes"/>
      <point x="1031" y="453"/>
      <point x="1091" y="501"/>
      <point x="1155" y="501" type="curve" smooth="yes"/>
      <point x="1191" y="501"/>
      <point x="1217" y="492"/>
    </contour>
    <contour>
      <point x="556" y="244" type="line"/>
      <point x="589" y="140" type="line"/>
      <point x="624" y="140" type="line"/>
      <point x="498" y="524" type="line"/>
      <point x="456" y="524" type="line"/>
      <point x="330" y="140" type="line"/>
      <point x="363" y="140" type="line"/>
      <point x="396" y="244" type="line"/>
    </contour>
    <contour>
      <point x="724" y="340" type="line"/>
      <point x="724" y="496" type="line"/>
      <point x="788" y="496" type="line" smooth="yes"/>
      <point x="857" y="496"/>
      <point x="890" y="474"/>
      <point x="890" y="419" type="curve" smooth="yes"/>
      <point x="890" y="361"/>
      <point x="848" y="340"/>
      <point x="790" y="340" type="curve" smooth="yes"/>
    </contour>
    <contour>
      <point x="793" y="312" type="line"/>
      <point x="903" y="140" type="line"/>
      <point x="943" y="140" type="line"/>
      <point x="827" y="317" type="line"/>
      <point x="880" y="328"/>
      <point x="924" y="354"/>
      <point x="924" y="419" type="curve" smooth="yes"/>
      <point x="924" y="490"/>
      <point x="878" y="524"/>
      <point x="786" y="524" type="curve" smooth="yes"/>
      <point x="691" y="524" type="line"/>
      <point x="691" y="140" type="line"/>
      <point x="724" y="140" type="line"/>
      <point x="724" y="312" type="line"/>
    </contour>
    <contour>
      <point x="405" y="272" type="line"/>
      <point x="476" y="494" type="line"/>
      <point x="477" y="494" type="line"/>
      <point x="547" y="272" type="line"/>
    </contour>
  </outline>
</glyph>
<glyph name="c" format="2">
  <advance width="1936"/>
  <unicode hex="0063"/>
  <outline>
    <contour>
      <point x="552" y="272" type="line"/>
      <point x="623" y="494" type="line"/>
      <point x="624" y="494" type="line"/>
      <point x="694" y="272" type="line"/>
    </contour>
    <contour>
      <point x="865" y="524" type="line"/>
      <point x="832" y="524" type="line"/>
      <point x="832" y="262" type="line" smooth="yes"/>
      <point x="832" y="181"/>
      <point x="877" y="134"/>
      <point x="959" y="134" type="curve" smooth="yes"/>
      <point x="1041" y="134"/>
      <point x="1085" y="182"/>
      <point x="1085" y="262" type="curve" smooth="yes"/>
      <point x="1085" y="524" type="line"/>
      <point x="1052" y="524" type="line"/>
      <point x="1052" y="264" type="line" smooth="yes"/>
      <point x="1052" y="197"/>
      <point x="1021" y="162"/>
      <point x="959" y="162" type="curve" smooth="yes"/>
      <point x="897" y="162"/>
      <point x="865" y="197"/>
      <point x="865" y="264" type="curve" smooth="yes"/>
    </contour>
    <contour>
      <point x="703" y="244" type="line"/>
      <point x="736" y="140" type="line"/>
      <point x="771" y="140" type="line"/>
      <point x="645" y="524" type="line"/>
      <point x="603" y="524" type="line"/>
      <point x="477" y="140" type="line"/>
      <point x="510" y="140" type="line"/>
      <point x="543" y="244" type="line"/>
    </contour>
    <contour>
      <point x="1387" y="467" type="curve"/>
      <point x="1407" y="489" type="line"/>
      <point x="1378" y="513"/>
      <point x="1346" y="530"/>
      <point x="1294" y="530" type="curve" smooth="yes"/>
      <point x="1225" y="530"/>
      <point x="1178" y="493"/>
      <point x="1178" y="437" type="curve" smooth="yes"/>
      <point x="1178" y="381"/>
      <point x="1212" y="356"/>
      <point x="1290" y="331" type="curve" smooth="yes"/>
      <point x="1357" y="311"/>
      <point x="1385" y="293"/>
      <point x="1385" y="245" type="curve" smooth="yes"/>
      <point x="1385" y="192"/>
      <point x="1346" y="162"/>
      <point x="1288" y="162" type="curve" smooth="yes"/>
      <point x="1243" y="162"/>
      <point x="1209" y="178"/>
      <point x="1181" y="203" type="curve"/>
      <point x="1161" y="180" type="line"/>
      <point x="1192" y="151"/>
      <point x="1235" y="134"/>
      <point x="1288" y="134" type="curve" smooth="yes"/>
      <point x="1370" y="134"/>
      <point x="1420" y="179"/>
      <point x="1420" y="246" type="curve" smooth="yes"/>
      <point x="1420" y="314"/>
      <point x="1371" y="339"/>
      <point x="1304" y="360" type="curve" smooth="yes"/>
      <point x="1235" y="381"/>
      <point x="1212" y="398"/>
      <point x="1212" y="438" type="curve" smooth="yes"/>
      <point x="1212" y="479"/>
      <point x="1247" y="501"/>
      <point x="1295" y="501" type="curve" smooth="yes"/>
      <point x="1333" y="501"/>
      <point x="1360" y="490"/>
    </contour>
    <contour>
      <point x="1872" y="-144" type="line"/>
      <point x="1872" y="784" type="line"/>
      <point x="64" y="784" type="line"/>
      <point x="64" y="-144" type="line"/>
    </contour>
    <contour>
      <point x="1856" y="768" type="line"/>
      <point x="1856" y="-128" type="line"/>
      <point x="80" y="-128" type="line"/>
      <point x="80" y="768" type="line"/>
    </contour>
  </outline>
</glyph>
<glyph name="d" format="1">
  <advance width="1520"/>
  <unicode hex="0064"/>
  <outline>
    <contour>
      <point x="1440" y="768" type="line"/>
      <point x="1440" y="-128" type="line"/>
      <point x="80" y="-128" type="line"/>
      <point x="80" y="768" type="line"/>
    </contour>
    <contour>
      <point x="1456" y="-144" type="line"/>
      <point x="1456" y="784" type="line"/>
      <point x="64" y="784" type="line"/>
      <point x="64" y="-144" type="line"/>
    </contour>
    <contour>
      <point x="1015" y="524" type="line"/>
      <point x="982" y="524" type="line"/>
      <point x="982" y="140" type="line"/>
      <point x="1171" y="140" type="line"/>
      <point x="1175" y="170" type="line"/>
      <point x="1015" y="170" type="line"/>
    </contour>
    <contour>
      <point x="514" y="345" type="line"/>
      <point x="550" y="353"/>
      <point x="580" y="378"/>
      <point x="580" y="429" type="curve" smooth="yes"/>
      <point x="580" y="503"/>
      <point x="516" y="524"/>
      <point x="445" y="524" type="curve" smooth="yes"/>
      <point x="356" y="524" type="line"/>
      <point x="356" y="140" type="line"/>
      <point x="452" y="140" type="line" smooth="yes"/>
      <point x="535" y="140"/>
      <point x="596" y="171"/>
      <point x="596" y="249" type="curve" smooth="yes"/>
      <point x="596" y="313"/>
      <point x="555" y="337"/>
      <point x="514" y="344" type="curve"/>
    </contour>
    <contour>
      <point x="688" y="140" type="line"/>
      <point x="887" y="140" type="line"/>
      <point x="887" y="168" type="line"/>
      <point x="721" y="168" type="line"/>
      <point x="721" y="325" type="line"/>
      <point x="858" y="325" type="line"/>
      <point x="858" y="353" type="line"/>
      <point x="721" y="353" type="line"/>
      <point x="721" y="496" type="line"/>
      <point x="878" y="496" type="line"/>
      <point x="882" y="524" type="line"/>
      <point x="688" y="524" type="line"/>
    </contour>
    <contour>
      <point x="389" y="329" type="line"/>
      <point x="473" y="329" type="line" smooth="yes"/>
      <point x="523" y="329"/>
      <point x="562" y="307"/>
      <point x="562" y="247" type="curve" smooth="yes"/>
      <point x="562" y="186"/>
      <point x="514" y="168"/>
      <point x="460" y="168" type="curve" smooth="yes"/>
      <point x="389" y="168" type="line"/>
    </contour>
    <contour>
      <point x="389" y="356" type="line"/>
      <point x="389" y="496" type="line"/>
      <point x="453" y="496" type="line" smooth="yes"/>
      <point x="512" y="496"/>
      <point x="545" y="475"/>
      <point x="545" y="428" type="curve" smooth="yes"/>
      <point x="545" y="382"/>
      <point x="517" y="356"/>
      <point x="466" y="356" type="curve" smooth="yes"/>
    </contour>
  </outline>
</glyph>
<glyph name="e" format="2">
  <advance width="1984"/>
  <unicode hex="0065"/>
  <outline>
    <contour>
      <point x="1904" y="768" type="line"/>
      <point x="1904" y="-128" type="line"/>
      <point x="80" y="-128" type="line"/>
      <point x="80" y="768" type="line"/>
    </contour>
    <contour>
      <point x="1920" y="-144" type="line"/>
      <point x="1920" y="784" type="line"/>
      <point x="64" y="784" type="line"/>
      <point x="64" y="-144" type="line"/>
    </contour>
    <contour>
      <point x="1313" y="140" type="line"/>
      <point x="1346" y="140" type="line"/>
      <point x="1346" y="524" type="line"/>
      <point x="1313" y="524" type="line"/>
      <point x="1313" y="356" type="line"/>
      <point x="1133" y="356" type="line"/>
      <point x="1133" y="524" type="line"/>
      <point x="1100" y="524" type="line"/>
      <point x="1100" y="140" type="line"/>
      <point x="1133" y="140" type="line"/>
      <point x="1133" y="328" type="line"/>
      <point x="1313" y="328" type="line"/>
    </contour>
    <contour>
      <point x="763" y="345" type="line"/>
      <point x="799" y="353"/>
      <point x="829" y="378"/>
      <point x="829" y="429" type="curve" smooth="yes"/>
      <point x="829" y="503"/>
      <point x="765" y="524"/>
      <point x="694" y="524" type="curve" smooth="yes"/>
      <point x="605" y="524" type="line"/>
      <point x="605" y="140" type="line"/>
      <point x="701" y="140" type="line" smooth="yes"/>
      <point x="784" y="140"/>
      <point x="845" y="171"/>
      <point x="845" y="249" type="curve" smooth="yes"/>
      <point x="845" y="313"/>
      <point x="804" y="337"/>
      <point x="763" y="344" type="curve"/>
    </contour>
    <contour>
      <point x="972" y="524" type="line"/>
      <point x="939" y="524" type="line"/>
      <point x="939" y="140" type="line"/>
      <point x="972" y="140" type="line"/>
    </contour>
    <contour>
      <point x="638" y="329" type="line"/>
      <point x="722" y="329" type="line" smooth="yes"/>
      <point x="772" y="329"/>
      <point x="811" y="307"/>
      <point x="811" y="247" type="curve" smooth="yes"/>
      <point x="811" y="186"/>
      <point x="763" y="168"/>
      <point x="709" y="168" type="curve" smooth="yes"/>
      <point x="638" y="168" type="line"/>
    </contour>
    <contour>
      <point x="638" y="356" type="line"/>
      <point x="638" y="496" type="line"/>
      <point x="702" y="496" type="line" smooth="yes"/>
      <point x="761" y="496"/>
      <point x="794" y="475"/>
      <point x="794" y="428" type="curve" smooth="yes"/>
      <point x="794" y="382"/>
      <point x="766" y="356"/>
      <point x="715" y="356" type="curve" smooth="yes"/>
    </contour>
  </outline>
</glyph>
<glyph name="f" format="2">
  <advance width="1424"/>
  <unicode hex="0066"/>
  <outline>
    <contour>
      <point x="1124" y="244" type="line"/>
      <point x="1157" y="140" type="line"/>
      <point x="1191" y="140" type="line"/>
      <point x="1065" y="524" type="line"/>
      <point x="1023" y="524" type="line"/>
      <point x="897" y="140" type="line"/>
      <point x="931" y="140" type="line"/>
      <point x="964" y="244" type="line"/>
    </contour>
    <contour>
      <point x="684" y="312" type="line"/>
      <point x="794" y="140" type="line"/>
      <point x="834" y="140" type="line"/>
      <point x="718" y="317" type="line"/>
      <point x="771" y="328"/>
      <point x="815" y="354"/>
      <point x="815" y="419" type="curve" smooth="yes"/>
      <point x="815" y="490"/>
      <point x="769" y="524"/>
      <point x="677" y="524" type="curve" smooth="yes"/>
      <point x="582" y="524" type="line"/>
      <point x="582" y="140" type="line"/>
      <point x="615" y="140" type="line"/>
      <point x="615" y="312" type="line"/>
    </contour>
    <contour>
      <point x="615" y="340" type="line"/>
      <point x="615" y="496" type="line"/>
      <point x="679" y="496" type="line" smooth="yes"/>
      <point x="748" y="496"/>
      <point x="781" y="474"/>
      <point x="781" y="419" type="curve" smooth="yes"/>
      <point x="781" y="361"/>
      <point x="739" y="340"/>
      <point x="681" y="340" type="curve" smooth="yes"/>
    </contour>
    <contour>
      <point x="290" y="329" type="line"/>
      <point x="374" y="329" type="line" smooth="yes"/>
      <point x="424" y="329"/>
      <point x="463" y="307"/>
      <point x="463" y="247" type="curve" smooth="yes"/>
      <point x="463" y="186"/>
      <point x="415" y="168"/>
      <point x="361" y="168" type="curve" smooth="yes"/>
      <point x="290" y="168" type="line"/>
    </contour>
    <contour>
      <point x="973" y="272" type="line"/>
      <point x="1044" y="494" type="line"/>
      <point x="1045" y="494" type="line"/>
      <point x="1115" y="272" type="line"/>
    </contour>
    <contour>
      <point x="290" y="356" type="line"/>
      <point x="290" y="496" type="line"/>
      <point x="354" y="496" type="line" smooth="yes"/>
      <point x="413" y="496"/>
      <point x="446" y="475"/>
      <point x="446" y="428" type="curve" smooth="yes"/>
      <point x="446" y="382"/>
      <point x="418" y="356"/>
      <point x="367" y="356" type="curve" smooth="yes"/>
    </contour>
    <contour>
      <point x="415" y="345" type="line"/>
      <point x="451" y="353"/>
      <point x="481" y="378"/>
      <point x="481" y="429" type="curve" smooth="yes"/>
      <point x="481" y="503"/>
      <point x="417" y="524"/>
      <point x="346" y="524" type="curve" smooth="yes"/>
      <point x="257" y="524" type="line"/>
      <point x="257" y="140" type="line"/>
      <point x="353" y="140" type="line" smooth="yes"/>
      <point x="436" y="140"/>
      <point x="497" y="171"/>
      <point x="497" y="249" type="curve" smooth="yes"/>
      <point x="497" y="313"/>
      <point x="456" y="337"/>
      <point x="415" y="344" type="curve"/>
    </contour>
    <contour>
      <point x="1360" y="-144" type="line"/>
      <point x="1360" y="784" type="line"/>
      <point x="64" y="784" type="line"/>
      <point x="64" y="-144" type="line"/>
    </contour>
    <contour>
      <point x="1344" y="768" type="line"/>
      <point x="1344" y="-128" type="line"/>
      <point x="80" y="-128" type="line"/>
      <point x="80" y="768" type="line"/>
    </contour>
  </outline>
</glyph>
<glyph name="g" format="2">
  <advance width="1520"/>
  <unicode hex="0067"/>
  <outline>
    <contour>
      <point x="1456" y="-144" type="line"/>
      <point x="1456" y="784" type="line"/>
      <point x="64" y="784" type="line"/>
      <point x="64" y="-144" type="line"/>
    </contour>
    <contour>
      <point x="1440" y="768" type="line"/>
      <point x="1440" y="-128" type="line"/>
      <point x="80" y="-128" type="line"/>
      <point x="80" y="768" type="line"/>
    </contour>
    <contour>
      <point x="477" y="473" type="curve"/>
      <point x="497" y="496" type="line"/>
      <point x="472" y="516"/>
      <point x="443" y="530"/>
      <point x="397" y="530" type="curve" smooth="yes"/>
      <point x="316" y="530"/>
      <point x="248" y="462"/>
      <point x="248" y="332" type="curve" smooth="yes"/>
      <point x="248" y="202"/>
      <point x="313" y="134"/>
      <point x="399" y="134" type="curve" smooth="yes"/>
      <point x="446" y="134"/>
      <point x="480" y="149"/>
      <point x="504" y="171" type="curve"/>
      <point x="485" y="194" type="line"/>
      <point x="465" y="176"/>
      <point x="440" y="163"/>
      <point x="401" y="163" type="curve" smooth="yes"/>
      <point x="335" y="163"/>
      <point x="283" y="214"/>
      <point x="283" y="332" type="curve" smooth="yes"/>
      <point x="283" y="454"/>
      <point x="336" y="501"/>
      <point x="399" y="501" type="curve" smooth="yes"/>
      <point x="431" y="501"/>
      <point x="454" y="492"/>
    </contour>
    <contour>
      <point x="1058" y="340" type="line"/>
      <point x="1058" y="496" type="line"/>
      <point x="1122" y="496" type="line" smooth="yes"/>
      <point x="1191" y="496"/>
      <point x="1224" y="474"/>
      <point x="1224" y="419" type="curve" smooth="yes"/>
      <point x="1224" y="361"/>
      <point x="1183" y="340"/>
      <point x="1124" y="340" type="curve" smooth="yes"/>
    </contour>
    <contour>
      <point x="896" y="140" type="line"/>
      <point x="928" y="140" type="line"/>
      <point x="891" y="524" type="line"/>
      <point x="845" y="524" type="line"/>
      <point x="751" y="226" type="line"/>
      <point x="749" y="226" type="line"/>
      <point x="653" y="524" type="line"/>
      <point x="607" y="524" type="line"/>
      <point x="571" y="140" type="line"/>
      <point x="602" y="140" type="line"/>
      <point x="619" y="334" type="line" smooth="yes"/>
      <point x="625" y="401"/>
      <point x="628" y="434"/>
      <point x="632" y="488" type="curve"/>
      <point x="633" y="488" type="line"/>
      <point x="733" y="185" type="line"/>
      <point x="765" y="185" type="line"/>
      <point x="863" y="488" type="line"/>
      <point x="864" y="488" type="line"/>
      <point x="867" y="434"/>
      <point x="870" y="401"/>
      <point x="877" y="334" type="curve" smooth="yes"/>
    </contour>
    <contour>
      <point x="1128" y="312" type="line"/>
      <point x="1237" y="140" type="line"/>
      <point x="1277" y="140" type="line"/>
      <point x="1162" y="317" type="line"/>
      <point x="1214" y="328"/>
      <point x="1259" y="354"/>
      <point x="1259" y="419" type="curve" smooth="yes"/>
      <point x="1259" y="490"/>
      <point x="1212" y="524"/>
      <point x="1120" y="524" type="curve" smooth="yes"/>
      <point x="1025" y="524" type="line"/>
      <point x="1025" y="140" type="line"/>
      <point x="1058" y="140" type="line"/>
      <point x="1058" y="312" type="line"/>
    </contour>
  </outline>
</glyph>
<glyph name="h" format="2">
  <advance width="1520"/>
  <unicode hex="0068"/>
  <outline>
    <contour>
      <point x="1456" y="-144" type="line"/>
      <point x="1456" y="784" type="line"/>
      <point x="64" y="784" type="line"/>
      <point x="64" y="-144" type="line"/>
    </contour>
    <contour>
      <point x="1440" y="768" type="line"/>
      <point x="1440" y="-128" type="line"/>
      <point x="80" y="-128" type="line"/>
      <point x="80" y="768" type="line"/>
    </contour>
    <contour>
      <point x="906" y="140" type="line"/>
      <point x="939" y="140" type="line"/>
      <point x="939" y="524" type="line"/>
      <point x="906" y="524" type="line"/>
      <point x="906" y="356" type="line"/>
      <point x="726" y="356" type="line"/>
      <point x="726" y="524" type="line"/>
      <point x="693" y="524" type="line"/>
      <point x="693" y="140" type="line"/>
      <point x="726" y="140" type="line"/>
      <point x="726" y="328" type="line"/>
      <point x="906" y="328" type="line"/>
    </contour>
    <contour>
      <point x="1096" y="524" type="line"/>
      <point x="1063" y="524" type="line"/>
      <point x="1063" y="140" type="line"/>
      <point x="1096" y="140" type="line"/>
    </contour>
    <contour>
      <point x="588" y="473" type="curve"/>
      <point x="608" y="496" type="line"/>
      <point x="583" y="516"/>
      <point x="554" y="530"/>
      <point x="508" y="530" type="curve" smooth="yes"/>
      <point x="427" y="530"/>
      <point x="359" y="462"/>
      <point x="359" y="332" type="curve" smooth="yes"/>
      <point x="359" y="202"/>
      <point x="424" y="134"/>
      <point x="510" y="134" type="curve" smooth="yes"/>
      <point x="557" y="134"/>
      <point x="591" y="149"/>
      <point x="615" y="171" type="curve"/>
      <point x="596" y="194" type="line"/>
      <point x="576" y="176"/>
      <point x="551" y="163"/>
      <point x="512" y="163" type="curve" smooth="yes"/>
      <point x="446" y="163"/>
      <point x="394" y="214"/>
      <point x="394" y="332" type="curve" smooth="yes"/>
      <point x="394" y="454"/>
      <point x="447" y="501"/>
      <point x="510" y="501" type="curve" smooth="yes"/>
      <point x="542" y="501"/>
      <point x="565" y="492"/>
    </contour>
  </outline>
</glyph>
<glyph name="i" format="2">
  <advance width="1488"/>
  <unicode hex="0069"/>
  <outline>
    <contour>
      <point x="1408" y="768" type="line"/>
      <point x="1408" y="-128" type="line"/>
      <point x="80" y="-128" type="line"/>
      <point x="80" y="768" type="line"/>
    </contour>
    <contour>
      <point x="1424" y="-144" type="line"/>
      <point x="1424" y="784" type="line"/>
      <point x="64" y="784" type="line"/>
      <point x="64" y="-144" type="line"/>
    </contour>
    <contour>
      <point x="531" y="473" type="curve"/>
      <point x="551" y="496" type="line"/>
      <point x="526" y="516"/>
      <point x="497" y="530"/>
      <point x="451" y="530" type="curve" smooth="yes"/>
      <point x="370" y="530"/>
      <point x="302" y="462"/>
      <point x="302" y="332" type="curve" smooth="yes"/>
      <point x="302" y="202"/>
      <point x="367" y="134"/>
      <point x="453" y="134" type="curve" smooth="yes"/>
      <point x="500" y="134"/>
      <point x="534" y="149"/>
      <point x="558" y="171" type="curve"/>
      <point x="539" y="194" type="line"/>
      <point x="519" y="176"/>
      <point x="494" y="163"/>
      <point x="455" y="163" type="curve" smooth="yes"/>
      <point x="389" y="163"/>
      <point x="337" y="214"/>
      <point x="337" y="332" type="curve" smooth="yes"/>
      <point x="337" y="454"/>
      <point x="390" y="501"/>
      <point x="453" y="501" type="curve" smooth="yes"/>
      <point x="485" y="501"/>
      <point x="508" y="492"/>
    </contour>
    <contour>
      <point x="1043" y="524" type="line"/>
      <point x="1010" y="524" type="line"/>
      <point x="1010" y="140" type="line"/>
      <point x="1199" y="140" type="line"/>
      <point x="1203" y="170" type="line"/>
      <point x="1043" y="170" type="line"/>
    </contour>
    <contour>
      <point x="757" y="134" type="curve" smooth="yes"/>
      <point x="847" y="134"/>
      <point x="909" y="207"/>
      <point x="909" y="331" type="curve" smooth="yes"/>
      <point x="909" y="460"/>
      <point x="847" y="530"/>
      <point x="757" y="530" type="curve" smooth="yes"/>
      <point x="667" y="530"/>
      <point x="605" y="456"/>
      <point x="605" y="331" type="curve" smooth="yes"/>
      <point x="605" y="203"/>
      <point x="667" y="134"/>
    </contour>
    <contour>
      <point x="875" y="331" type="curve" smooth="yes"/>
      <point x="875" y="217"/>
      <point x="827" y="162"/>
      <point x="757" y="162" type="curve" smooth="yes"/>
      <point x="688" y="162"/>
      <point x="640" y="216"/>
      <point x="640" y="331" type="curve" smooth="yes"/>
      <point x="640" y="446"/>
      <point x="687" y="501"/>
      <point x="757" y="501" type="curve" smooth="yes"/>
      <point x="827" y="501"/>
      <point x="875" y="447"/>
    </contour>
  </outline>
</glyph>
<glyph name="j" format="2">
  <advance width="1680"/>
  <unicode hex="006A"/>
  <outline>
    <contour>
      <point x="1616" y="-144" type="line"/>
      <point x="1616" y="784" type="line"/>
      <point x="64" y="784" type="line"/>
      <point x="64" y="-144" type="line"/>
    </contour>
    <contour>
      <point x="1600" y="768" type="line"/>
      <point x="1600" y="-128" type="line"/>
      <point x="80" y="-128" type="line"/>
      <point x="80" y="768" type="line"/>
    </contour>
    <contour>
      <point x="758" y="340" type="line"/>
      <point x="758" y="496" type="line"/>
      <point x="821" y="496" type="line" smooth="yes"/>
      <point x="890" y="496"/>
      <point x="923" y="474"/>
      <point x="923" y="419" type="curve" smooth="yes"/>
      <point x="923" y="361"/>
      <point x="882" y="340"/>
      <point x="824" y="340" type="curve" smooth="yes"/>
    </contour>
    <contour>
      <point x="620" y="473" type="curve"/>
      <point x="640" y="496" type="line"/>
      <point x="615" y="516"/>
      <point x="585" y="530"/>
      <point x="540" y="530" type="curve" smooth="yes"/>
      <point x="458" y="530"/>
      <point x="391" y="462"/>
      <point x="391" y="332" type="curve" smooth="yes"/>
      <point x="391" y="202"/>
      <point x="455" y="134"/>
      <point x="541" y="134" type="curve" smooth="yes"/>
      <point x="588" y="134"/>
      <point x="623" y="149"/>
      <point x="646" y="171" type="curve"/>
      <point x="628" y="194" type="line"/>
      <point x="607" y="176"/>
      <point x="583" y="163"/>
      <point x="543" y="163" type="curve" smooth="yes"/>
      <point x="478" y="163"/>
      <point x="425" y="214"/>
      <point x="425" y="332" type="curve" smooth="yes"/>
      <point x="425" y="454"/>
      <point x="479" y="501"/>
      <point x="542" y="501" type="curve" smooth="yes"/>
      <point x="574" y="501"/>
      <point x="597" y="492"/>
    </contour>
    <contour>
      <point x="827" y="312" type="line"/>
      <point x="937" y="140" type="line"/>
      <point x="976" y="140" type="line"/>
      <point x="861" y="317" type="line"/>
      <point x="914" y="328"/>
      <point x="958" y="354"/>
      <point x="958" y="419" type="curve" smooth="yes"/>
      <point x="958" y="490"/>
      <point x="912" y="524"/>
      <point x="820" y="524" type="curve" smooth="yes"/>
      <point x="724" y="524" type="line"/>
      <point x="724" y="140" type="line"/>
      <point x="758" y="140" type="line"/>
      <point x="758" y="312" type="line"/>
    </contour>
    <contour>
      <point x="1263" y="473" type="curve"/>
      <point x="1283" y="496" type="line"/>
      <point x="1258" y="516"/>
      <point x="1228" y="530"/>
      <point x="1183" y="530" type="curve" smooth="yes"/>
      <point x="1101" y="530"/>
      <point x="1034" y="462"/>
      <point x="1034" y="332" type="curve" smooth="yes"/>
      <point x="1034" y="202"/>
      <point x="1098" y="134"/>
      <point x="1184" y="134" type="curve" smooth="yes"/>
      <point x="1231" y="134"/>
      <point x="1265" y="149"/>
      <point x="1289" y="171" type="curve"/>
      <point x="1271" y="194" type="line"/>
      <point x="1250" y="176"/>
      <point x="1226" y="163"/>
      <point x="1186" y="163" type="curve" smooth="yes"/>
      <point x="1120" y="163"/>
      <point x="1068" y="214"/>
      <point x="1068" y="332" type="curve" smooth="yes"/>
      <point x="1068" y="454"/>
      <point x="1122" y="501"/>
      <point x="1185" y="501" type="curve" smooth="yes"/>
      <point x="1217" y="501"/>
      <point x="1240" y="492"/>
    </contour>
  </outline>
</glyph>
<glyph name="k" format="2">
  <advance width="1936"/>
  <unicode hex="006B"/>
  <outline>
    <contour>
      <point x="1872" y="-144" type="line"/>
      <point x="1872" y="784" type="line"/>
      <point x="64" y="784" type="line"/>
      <point x="64" y="-144" type="line"/>
    </contour>
    <contour>
      <point x="1856" y="768" type="line"/>
      <point x="1856" y="-128" type="line"/>
      <point x="80" y="-128" type="line"/>
      <point x="80" y="768" type="line"/>
    </contour>
    <contour>
      <point x="846" y="340" type="line"/>
      <point x="846" y="496" type="line"/>
      <point x="910" y="496" type="line" smooth="yes"/>
      <point x="979" y="496"/>
      <point x="1012" y="474"/>
      <point x="1012" y="419" type="curve" smooth="yes"/>
      <point x="1012" y="361"/>
      <point x="970" y="340"/>
      <point x="912" y="340" type="curve" smooth="yes"/>
    </contour>
    <contour>
      <point x="915" y="312" type="line"/>
      <point x="1025" y="140" type="line"/>
      <point x="1065" y="140" type="line"/>
      <point x="950" y="317" type="line"/>
      <point x="1002" y="328"/>
      <point x="1046" y="354"/>
      <point x="1046" y="419" type="curve" smooth="yes"/>
      <point x="1046" y="490"/>
      <point x="1000" y="524"/>
      <point x="908" y="524" type="curve" smooth="yes"/>
      <point x="813" y="524" type="line"/>
      <point x="813" y="140" type="line"/>
      <point x="846" y="140" type="line"/>
      <point x="846" y="312" type="line"/>
    </contour>
    <contour>
      <point x="1271" y="134" type="curve" smooth="yes"/>
      <point x="1361" y="134"/>
      <point x="1423" y="207"/>
      <point x="1423" y="331" type="curve" smooth="yes"/>
      <point x="1423" y="460"/>
      <point x="1361" y="530"/>
      <point x="1271" y="530" type="curve" smooth="yes"/>
      <point x="1181" y="530"/>
      <point x="1119" y="456"/>
      <point x="1119" y="331" type="curve" smooth="yes"/>
      <point x="1119" y="203"/>
      <point x="1181" y="134"/>
    </contour>
    <contour>
      <point x="708" y="473" type="curve"/>
      <point x="728" y="496" type="line"/>
      <point x="703" y="516"/>
      <point x="674" y="530"/>
      <point x="628" y="530" type="curve" smooth="yes"/>
      <point x="547" y="530"/>
      <point x="479" y="462"/>
      <point x="479" y="332" type="curve" smooth="yes"/>
      <point x="479" y="202"/>
      <point x="544" y="134"/>
      <point x="630" y="134" type="curve" smooth="yes"/>
      <point x="677" y="134"/>
      <point x="711" y="149"/>
      <point x="735" y="171" type="curve"/>
      <point x="716" y="194" type="line"/>
      <point x="696" y="176"/>
      <point x="671" y="163"/>
      <point x="632" y="163" type="curve" smooth="yes"/>
      <point x="566" y="163"/>
      <point x="514" y="214"/>
      <point x="514" y="332" type="curve" smooth="yes"/>
      <point x="514" y="454"/>
      <point x="567" y="501"/>
      <point x="630" y="501" type="curve" smooth="yes"/>
      <point x="662" y="501"/>
      <point x="685" y="492"/>
    </contour>
    <contour>
      <point x="1389" y="331" type="curve" smooth="yes"/>
      <point x="1389" y="217"/>
      <point x="1341" y="162"/>
      <point x="1271" y="162" type="curve" smooth="yes"/>
      <point x="1202" y="162"/>
      <point x="1154" y="216"/>
      <point x="1154" y="331" type="curve" smooth="yes"/>
      <point x="1154" y="446"/>
      <point x="1201" y="501"/>
      <point x="1271" y="501" type="curve" smooth="yes"/>
      <point x="1341" y="501"/>
      <point x="1389" y="447"/>
    </contour>
  </outline>
</glyph>
<glyph name="l" format="1">
  <advance width="1488"/>
  <unicode hex="006C"/>
  <outline>
    <contour>
      <point x="1408" y="768" type="line"/>
      <point x="1408" y="-128" type="line"/>
      <point x="80" y="-128" type="line"/>
      <point x="80" y="768" type="line"/>
    </contour>
    <contour>
      <point x="1424" y="-144" type="line"/>
      <point x="1424" y="784" type="line"/>
      <point x="64" y="784" type="line"/>
      <point x="64" y="-144" type="line"/>
    </contour>
    <contour>
      <point x="956" y="524" type="line"/>
      <point x="923" y="524" type="line"/>
      <point x="923" y="262" type="line" smooth="yes"/>
      <point x="923" y="181"/>
      <point x="967" y="134"/>
      <point x="1049" y="134" type="curve" smooth="yes"/>
      <point x="1131" y="134"/>
      <point x="1176" y="182"/>
      <point x="1176" y="262" type="curve" smooth="yes"/>
      <point x="1176" y="524" type="line"/>
      <point x="1143" y="524" type="line"/>
      <point x="1143" y="264" type="line" smooth="yes"/>
      <point x="1143" y="197"/>
      <point x="1111" y="162"/>
      <point x="1049" y="162" type="curve" smooth="yes"/>
      <point x="987" y="162"/>
      <point x="956" y="197"/>
      <point x="956" y="264" type="curve" smooth="yes"/>
    </contour>
    <contour>
      <point x="823" y="473" type="curve"/>
      <point x="844" y="496" type="line"/>
      <point x="818" y="516"/>
      <point x="789" y="530"/>
      <point x="743" y="530" type="curve" smooth="yes"/>
      <point x="662" y="530"/>
      <point x="594" y="462"/>
      <point x="594" y="332" type="curve" smooth="yes"/>
      <point x="594" y="202"/>
      <point x="659" y="134"/>
      <point x="745" y="134" type="curve" smooth="yes"/>
      <point x="792" y="134"/>
      <point x="826" y="149"/>
      <point x="850" y="171" type="curve"/>
      <point x="831" y="194" type="line"/>
      <point x="811" y="176"/>
      <point x="787" y="163"/>
      <point x="747" y="163" type="curve" smooth="yes"/>
      <point x="681" y="163"/>
      <point x="629" y="214"/>
      <point x="629" y="332" type="curve" smooth="yes"/>
      <point x="629" y="454"/>
      <point x="682" y="501"/>
      <point x="746" y="501" type="curve" smooth="yes"/>
      <point x="778" y="501"/>
      <point x="801" y="492"/>
    </contour>
    <contour>
      <point x="335" y="140" type="line"/>
      <point x="533" y="140" type="line"/>
      <point x="533" y="168" type="line"/>
      <point x="368" y="168" type="line"/>
      <point x="368" y="325" type="line"/>
      <point x="504" y="325" type="line"/>
      <point x="504" y="353" type="line"/>
      <point x="368" y="353" type="line"/>
      <point x="368" y="496" type="line"/>
      <point x="524" y="496" type="line"/>
      <point x="528" y="524" type="line"/>
      <point x="335" y="524" type="line"/>
    </contour>
  </outline>
</glyph>
<glyph name="m" format="1">
  <advance width="1680"/>
  <unicode hex="006D"/>
  <outline>
    <contour>
      <point x="1616" y="-144" type="line"/>
      <point x="1616" y="784" type="line"/>
      <point x="64" y="784" type="line"/>
      <point x="64" y="-144" type="line"/>
    </contour>
    <contour>
      <point x="1600" y="768" type="line"/>
      <point x="1600" y="-128" type="line"/>
      <point x="80" y="-128" type="line"/>
      <point x="80" y="768" type="line"/>
    </contour>
    <contour>
      <point x="1268" y="471" type="curve"/>
      <point x="1288" y="492" type="line"/>
      <point x="1260" y="517"/>
      <point x="1231" y="530"/>
      <point x="1182" y="530" type="curve" smooth="yes"/>
      <point x="1101" y="530"/>
      <point x="1024" y="463"/>
      <point x="1024" y="332" type="curve" smooth="yes"/>
      <point x="1024" y="199"/>
      <point x="1087" y="134"/>
      <point x="1176" y="134" type="curve" smooth="yes"/>
      <point x="1221" y="134"/>
      <point x="1262" y="146"/>
      <point x="1295" y="165" type="curve"/>
      <point x="1295" y="348" type="line"/>
      <point x="1180" y="348" type="line"/>
      <point x="1184" y="320" type="line"/>
      <point x="1263" y="320" type="line"/>
      <point x="1263" y="182" type="line"/>
      <point x="1239" y="170"/>
      <point x="1212" y="162"/>
      <point x="1178" y="162" type="curve" smooth="yes"/>
      <point x="1106" y="162"/>
      <point x="1058" y="215"/>
      <point x="1058" y="332" type="curve" smooth="yes"/>
      <point x="1058" y="453"/>
      <point x="1119" y="501"/>
      <point x="1183" y="501" type="curve" smooth="yes"/>
      <point x="1218" y="501"/>
      <point x="1245" y="492"/>
    </contour>
    <contour>
      <point x="891" y="524" type="line"/>
      <point x="891" y="297" type="line" smooth="yes"/>
      <point x="891" y="250"/>
      <point x="894" y="209"/>
      <point x="896" y="176" type="curve"/>
      <point x="895" y="176" type="line"/>
      <point x="713" y="524" type="line"/>
      <point x="670" y="524" type="line"/>
      <point x="670" y="140" type="line"/>
      <point x="701" y="140" type="line"/>
      <point x="701" y="366" type="line" smooth="yes"/>
      <point x="701" y="413"/>
      <point x="699" y="452"/>
      <point x="697" y="487" type="curve"/>
      <point x="698" y="487" type="line"/>
      <point x="879" y="140" type="line"/>
      <point x="923" y="140" type="line"/>
      <point x="923" y="524" type="line"/>
    </contour>
    <contour>
      <point x="382" y="140" type="line"/>
      <point x="580" y="140" type="line"/>
      <point x="580" y="168" type="line"/>
      <point x="415" y="168" type="line"/>
      <point x="415" y="325" type="line"/>
      <point x="551" y="325" type="line"/>
      <point x="551" y="353" type="line"/>
      <point x="415" y="353" type="line"/>
      <point x="415" y="496" type="line"/>
      <point x="572" y="496" type="line"/>
      <point x="576" y="524" type="line"/>
      <point x="382" y="524" type="line"/>
    </contour>
  </outline>
</glyph>
<glyph name="n" format="2">
  <advance width="1520"/>
  <unicode hex="006E"/>
  <outline>
    <contour>
      <point x="1456" y="-144" type="line"/>
      <point x="1456" y="784" type="line"/>
      <point x="64" y="784" type="line"/>
      <point x="64" y="-144" type="line"/>
    </contour>
    <contour>
      <point x="1440" y="768" type="line"/>
      <point x="1440" y="-128" type="line"/>
      <point x="80" y="-128" type="line"/>
      <point x="80" y="768" type="line"/>
    </contour>
    <contour>
      <point x="1140" y="244" type="line"/>
      <point x="1173" y="140" type="line"/>
      <point x="1208" y="140" type="line"/>
      <point x="1082" y="524" type="line"/>
      <point x="1040" y="524" type="line"/>
      <point x="914" y="140" type="line"/>
      <point x="948" y="140" type="line"/>
      <point x="981" y="244" type="line"/>
    </contour>
    <contour>
      <point x="655" y="340" type="line"/>
      <point x="655" y="496" type="line"/>
      <point x="718" y="496" type="line" smooth="yes"/>
      <point x="787" y="496"/>
      <point x="820" y="474"/>
      <point x="820" y="419" type="curve" smooth="yes"/>
      <point x="820" y="361"/>
      <point x="779" y="340"/>
      <point x="721" y="340" type="curve" smooth="yes"/>
    </contour>
    <contour>
      <point x="990" y="272" type="line"/>
      <point x="1060" y="494" type="line"/>
      <point x="1061" y="494" type="line"/>
      <point x="1131" y="272" type="line"/>
    </contour>
    <contour>
      <point x="724" y="312" type="line"/>
      <point x="834" y="140" type="line"/>
      <point x="874" y="140" type="line"/>
      <point x="758" y="317" type="line"/>
      <point x="811" y="328"/>
      <point x="855" y="354"/>
      <point x="855" y="419" type="curve" smooth="yes"/>
      <point x="855" y="490"/>
      <point x="809" y="524"/>
      <point x="717" y="524" type="curve" smooth="yes"/>
      <point x="622" y="524" type="line"/>
      <point x="622" y="140" type="line"/>
      <point x="655" y="140" type="line"/>
      <point x="655" y="312" type="line"/>
    </contour>
    <contour>
      <point x="539" y="496" type="line"/>
      <point x="543" y="524" type="line"/>
      <point x="352" y="524" type="line"/>
      <point x="352" y="140" type="line"/>
      <point x="385" y="140" type="line"/>
      <point x="385" y="318" type="line"/>
      <point x="518" y="318" type="line"/>
      <point x="518" y="346" type="line"/>
      <point x="385" y="346" type="line"/>
      <point x="385" y="496" type="line"/>
    </contour>
  </outline>
</glyph>
<glyph name="o" format="2">
  <advance width="1680"/>
  <unicode hex="006F"/>
  <outline>
    <contour>
      <point x="1616" y="-144" type="line"/>
      <point x="1616" y="784" type="line"/>
      <point x="64" y="784" type="line"/>
      <point x="64" y="-144" type="line"/>
    </contour>
    <contour>
      <point x="1600" y="768" type="line"/>
      <point x="1600" y="-128" type="line"/>
      <point x="80" y="-128" type="line"/>
      <point x="80" y="768" type="line"/>
    </contour>
    <contour>
      <point x="613" y="471" type="curve"/>
      <point x="633" y="492" type="line"/>
      <point x="605" y="517"/>
      <point x="576" y="530"/>
      <point x="527" y="530" type="curve" smooth="yes"/>
      <point x="446" y="530"/>
      <point x="368" y="463"/>
      <point x="368" y="332" type="curve" smooth="yes"/>
      <point x="368" y="199"/>
      <point x="432" y="134"/>
      <point x="521" y="134" type="curve" smooth="yes"/>
      <point x="566" y="134"/>
      <point x="606" y="146"/>
      <point x="640" y="165" type="curve"/>
      <point x="640" y="348" type="line"/>
      <point x="525" y="348" type="line"/>
      <point x="529" y="320" type="line"/>
      <point x="608" y="320" type="line"/>
      <point x="608" y="182" type="line"/>
      <point x="584" y="170"/>
      <point x="557" y="162"/>
      <point x="522" y="162" type="curve" smooth="yes"/>
      <point x="451" y="162"/>
      <point x="403" y="215"/>
      <point x="403" y="332" type="curve" smooth="yes"/>
      <point x="403" y="453"/>
      <point x="464" y="501"/>
      <point x="527" y="501" type="curve" smooth="yes"/>
      <point x="563" y="501"/>
      <point x="590" y="492"/>
    </contour>
    <contour>
      <point x="1131" y="312" type="line"/>
      <point x="1241" y="140" type="line"/>
      <point x="1281" y="140" type="line"/>
      <point x="1165" y="317" type="line"/>
      <point x="1218" y="328"/>
      <point x="1262" y="354"/>
      <point x="1262" y="419" type="curve" smooth="yes"/>
      <point x="1262" y="490"/>
      <point x="1216" y="524"/>
      <point x="1124" y="524" type="curve" smooth="yes"/>
      <point x="1029" y="524" type="line"/>
      <point x="1029" y="140" type="line"/>
      <point x="1062" y="140" type="line"/>
      <point x="1062" y="312" type="line"/>
    </contour>
    <contour>
      <point x="1062" y="340" type="line"/>
      <point x="1062" y="496" type="line"/>
      <point x="1126" y="496" type="line" smooth="yes"/>
      <point x="1194" y="496"/>
      <point x="1227" y="474"/>
      <point x="1227" y="419" type="curve" smooth="yes"/>
      <point x="1227" y="361"/>
      <point x="1186" y="340"/>
      <point x="1128" y="340" type="curve" smooth="yes"/>
    </contour>
    <contour>
      <point x="741" y="140" type="line"/>
      <point x="939" y="140" type="line"/>
      <point x="939" y="168" type="line"/>
      <point x="774" y="168" type="line"/>
      <point x="774" y="325" type="line"/>
      <point x="910" y="325" type="line"/>
      <point x="910" y="353" type="line"/>
      <point x="774" y="353" type="line"/>
      <point x="774" y="496" type="line"/>
      <point x="931" y="496" type="line"/>
      <point x="935" y="524" type="line"/>
      <point x="741" y="524" type="line"/>
    </contour>
  </outline>
</glyph>
<glyph name="p" format="2">
  <advance width="1520"/>
  <unicode hex="0070"/>
  <outline>
    <contour>
      <point x="1440" y="768" type="line"/>
      <point x="1440" y="-128" type="line"/>
      <point x="80" y="-128" type="line"/>
      <point x="80" y="768" type="line"/>
    </contour>
    <contour>
      <point x="1456" y="-144" type="line"/>
      <point x="1456" y="784" type="line"/>
      <point x="64" y="784" type="line"/>
      <point x="64" y="-144" type="line"/>
    </contour>
    <contour>
      <point x="502" y="471" type="curve"/>
      <point x="523" y="492" type="line"/>
      <point x="495" y="517"/>
      <point x="465" y="530"/>
      <point x="416" y="530" type="curve" smooth="yes"/>
      <point x="335" y="530"/>
      <point x="258" y="463"/>
      <point x="258" y="332" type="curve" smooth="yes"/>
      <point x="258" y="199"/>
      <point x="321" y="134"/>
      <point x="410" y="134" type="curve" smooth="yes"/>
      <point x="455" y="134"/>
      <point x="496" y="146"/>
      <point x="529" y="165" type="curve"/>
      <point x="529" y="348" type="line"/>
      <point x="414" y="348" type="line"/>
      <point x="418" y="320" type="line"/>
      <point x="497" y="320" type="line"/>
      <point x="497" y="182" type="line"/>
      <point x="473" y="170"/>
      <point x="446" y="162"/>
      <point x="412" y="162" type="curve" smooth="yes"/>
      <point x="341" y="162"/>
      <point x="292" y="215"/>
      <point x="292" y="332" type="curve" smooth="yes"/>
      <point x="292" y="453"/>
      <point x="353" y="501"/>
      <point x="417" y="501" type="curve" smooth="yes"/>
      <point x="453" y="501"/>
      <point x="479" y="492"/>
    </contour>
    <contour>
      <point x="843" y="140" type="line"/>
      <point x="876" y="140" type="line"/>
      <point x="876" y="524" type="line"/>
      <point x="843" y="524" type="line"/>
      <point x="843" y="356" type="line"/>
      <point x="663" y="356" type="line"/>
      <point x="663" y="524" type="line"/>
      <point x="630" y="524" type="line"/>
      <point x="630" y="140" type="line"/>
      <point x="663" y="140" type="line"/>
      <point x="663" y="328" type="line"/>
      <point x="843" y="328" type="line"/>
    </contour>
    <contour>
      <point x="1031" y="272" type="line"/>
      <point x="1102" y="494" type="line"/>
      <point x="1103" y="494" type="line"/>
      <point x="1173" y="272" type="line"/>
    </contour>
    <contour>
      <point x="1182" y="244" type="line"/>
      <point x="1215" y="140" type="line"/>
      <point x="1250" y="140" type="line"/>
      <point x="1124" y="524" type="line"/>
      <point x="1082" y="524" type="line"/>
      <point x="956" y="140" type="line"/>
      <point x="989" y="140" type="line"/>
      <point x="1022" y="244" type="line"/>
    </contour>
  </outline>
</glyph>
<glyph name="q" format="1">
  <advance width="1520"/>
  <unicode hex="0071"/>
  <outline>
    <contour>
      <point x="1440" y="768" type="line"/>
      <point x="1440" y="-128" type="line"/>
      <point x="80" y="-128" type="line"/>
      <point x="80" y="768" type="line"/>
    </contour>
    <contour>
      <point x="1456" y="-144" type="line"/>
      <point x="1456" y="784" type="line"/>
      <point x="64" y="784" type="line"/>
      <point x="64" y="-144" type="line"/>
    </contour>
    <contour>
      <point x="760" y="312" type="line"/>
      <point x="870" y="140" type="line"/>
      <point x="910" y="140" type="line"/>
      <point x="794" y="317" type="line"/>
      <point x="847" y="328"/>
      <point x="891" y="354"/>
      <point x="891" y="419" type="curve" smooth="yes"/>
      <point x="891" y="490"/>
      <point x="845" y="524"/>
      <point x="753" y="524" type="curve" smooth="yes"/>
      <point x="658" y="524" type="line"/>
      <point x="658" y="140" type="line"/>
      <point x="691" y="140" type="line"/>
      <point x="691" y="312" type="line"/>
    </contour>
    <contour>
      <point x="530" y="471" type="curve"/>
      <point x="550" y="492" type="line"/>
      <point x="522" y="517"/>
      <point x="493" y="530"/>
      <point x="444" y="530" type="curve" smooth="yes"/>
      <point x="363" y="530"/>
      <point x="285" y="463"/>
      <point x="285" y="332" type="curve" smooth="yes"/>
      <point x="285" y="199"/>
      <point x="349" y="134"/>
      <point x="438" y="134" type="curve" smooth="yes"/>
      <point x="483" y="134"/>
      <point x="523" y="146"/>
      <point x="557" y="165" type="curve"/>
      <point x="557" y="348" type="line"/>
      <point x="442" y="348" type="line"/>
      <point x="446" y="320" type="line"/>
      <point x="525" y="320" type="line"/>
      <point x="525" y="182" type="line"/>
      <point x="501" y="170"/>
      <point x="474" y="162"/>
      <point x="439" y="162" type="curve" smooth="yes"/>
      <point x="368" y="162"/>
      <point x="320" y="215"/>
      <point x="320" y="332" type="curve" smooth="yes"/>
      <point x="320" y="453"/>
      <point x="381" y="501"/>
      <point x="444" y="501" type="curve" smooth="yes"/>
      <point x="480" y="501"/>
      <point x="507" y="492"/>
    </contour>
    <contour>
      <point x="691" y="340" type="line"/>
      <point x="691" y="496" type="line"/>
      <point x="755" y="496" type="line" smooth="yes"/>
      <point x="824" y="496"/>
      <point x="857" y="474"/>
      <point x="857" y="419" type="curve" smooth="yes"/>
      <point x="857" y="361"/>
      <point x="815" y="340"/>
      <point x="757" y="340" type="curve" smooth="yes"/>
    </contour>
    <contour>
      <point x="987" y="140" type="line"/>
      <point x="1186" y="140" type="line"/>
      <point x="1186" y="168" type="line"/>
      <point x="1020" y="168" type="line"/>
      <point x="1020" y="325" type="line"/>
      <point x="1157" y="325" type="line"/>
      <point x="1157" y="353" type="line"/>
      <point x="1020" y="353" type="line"/>
      <point x="1020" y="496" type="line"/>
      <point x="1177" y="496" type="line"/>
      <point x="1181" y="524" type="line"/>
      <point x="987" y="524" type="line"/>
    </contour>
  </outline>
</glyph>
<glyph name="r" format="1">
  <advance width="1984"/>
  <unicode hex="0072"/>
  <outline>
    <contour>
      <point x="1904" y="768" type="line"/>
      <point x="1904" y="-128" type="line"/>
      <point x="80" y="-128" type="line"/>
      <point x="80" y="768" type="line"/>
    </contour>
    <contour>
      <point x="1920" y="-144" type="line"/>
      <point x="1920" y="784" type="line"/>
      <point x="64" y="784" type="line"/>
      <point x="64" y="-144" type="line"/>
    </contour>
    <contour>
      <point x="1105" y="331" type="curve" smooth="yes"/>
      <point x="1105" y="217"/>
      <point x="1058" y="162"/>
      <point x="988" y="162" type="curve" smooth="yes"/>
      <point x="918" y="162"/>
      <point x="870" y="216"/>
      <point x="870" y="331" type="curve" smooth="yes"/>
      <point x="870" y="446"/>
      <point x="917" y="501"/>
      <point x="988" y="501" type="curve" smooth="yes"/>
      <point x="1058" y="501"/>
      <point x="1105" y="447"/>
    </contour>
    <contour>
      <point x="988" y="134" type="curve" smooth="yes"/>
      <point x="1077" y="134"/>
      <point x="1140" y="207"/>
      <point x="1140" y="331" type="curve" smooth="yes"/>
      <point x="1140" y="460"/>
      <point x="1077" y="530"/>
      <point x="988" y="530" type="curve" smooth="yes"/>
      <point x="898" y="530"/>
      <point x="835" y="456"/>
      <point x="835" y="331" type="curve" smooth="yes"/>
      <point x="835" y="203"/>
      <point x="898" y="134"/>
    </contour>
    <contour>
      <point x="702" y="140" type="line"/>
      <point x="735" y="140" type="line"/>
      <point x="735" y="524" type="line"/>
      <point x="702" y="524" type="line"/>
      <point x="702" y="356" type="line"/>
      <point x="521" y="356" type="line"/>
      <point x="521" y="524" type="line"/>
      <point x="488" y="524" type="line"/>
      <point x="488" y="140" type="line"/>
      <point x="521" y="140" type="line"/>
      <point x="521" y="328" type="line"/>
      <point x="702" y="328" type="line"/>
    </contour>
    <contour>
      <point x="1462" y="524" type="line"/>
      <point x="1462" y="297" type="line" smooth="yes"/>
      <point x="1462" y="250"/>
      <point x="1464" y="209"/>
      <point x="1467" y="176" type="curve"/>
      <point x="1465" y="176" type="line"/>
      <point x="1284" y="524" type="line"/>
      <point x="1240" y="524" type="line"/>
      <point x="1240" y="140" type="line"/>
      <point x="1272" y="140" type="line"/>
      <point x="1272" y="366" type="line" smooth="yes"/>
      <point x="1272" y="413"/>
      <point x="1270" y="452"/>
      <point x="1267" y="487" type="curve"/>
      <point x="1268" y="487" type="line"/>
      <point x="1449" y="140" type="line"/>
      <point x="1493" y="140" type="line"/>
      <point x="1493" y="524" type="line"/>
    </contour>
  </outline>
</glyph>
<glyph name="s" format="1">
  <advance width="1552"/>
  <unicode hex="0073"/>
  <outline>
    <contour>
      <point x="1488" y="-144" type="line"/>
      <point x="1488" y="784" type="line"/>
      <point x="64" y="784" type="line"/>
      <point x="64" y="-144" type="line"/>
    </contour>
    <contour>
      <point x="1472" y="768" type="line"/>
      <point x="1472" y="-128" type="line"/>
      <point x="80" y="-128" type="line"/>
      <point x="80" y="768" type="line"/>
    </contour>
    <contour>
      <point x="441" y="524" type="line"/>
      <point x="407" y="524" type="line"/>
      <point x="407" y="140" type="line"/>
      <point x="441" y="140" type="line"/>
    </contour>
    <contour>
      <point x="597" y="340" type="line"/>
      <point x="597" y="496" type="line"/>
      <point x="661" y="496" type="line" smooth="yes"/>
      <point x="729" y="496"/>
      <point x="762" y="474"/>
      <point x="762" y="419" type="curve" smooth="yes"/>
      <point x="762" y="361"/>
      <point x="721" y="340"/>
      <point x="663" y="340" type="curve" smooth="yes"/>
    </contour>
    <contour>
      <point x="666" y="312" type="line"/>
      <point x="776" y="140" type="line"/>
      <point x="816" y="140" type="line"/>
      <point x="700" y="317" type="line"/>
      <point x="753" y="328"/>
      <point x="797" y="354"/>
      <point x="797" y="419" type="curve" smooth="yes"/>
      <point x="797" y="490"/>
      <point x="751" y="524"/>
      <point x="659" y="524" type="curve" smooth="yes"/>
      <point x="564" y="524" type="line"/>
      <point x="564" y="140" type="line"/>
      <point x="597" y="140" type="line"/>
      <point x="597" y="312" type="line"/>
    </contour>
    <contour>
      <point x="1113" y="524" type="line"/>
      <point x="1113" y="297" type="line" smooth="yes"/>
      <point x="1113" y="250"/>
      <point x="1115" y="209"/>
      <point x="1118" y="176" type="curve"/>
      <point x="1116" y="176" type="line"/>
      <point x="935" y="524" type="line"/>
      <point x="891" y="524" type="line"/>
      <point x="891" y="140" type="line"/>
      <point x="923" y="140" type="line"/>
      <point x="923" y="366" type="line" smooth="yes"/>
      <point x="923" y="413"/>
      <point x="921" y="452"/>
      <point x="918" y="487" type="curve"/>
      <point x="919" y="487" type="line"/>
      <point x="1100" y="140" type="line"/>
      <point x="1144" y="140" type="line"/>
      <point x="1144" y="524" type="line"/>
    </contour>
  </outline>
</glyph>
<glyph name="t" format="1">
  <advance width="1520"/>
  <unicode hex="0074"/>
  <outline>
    <contour>
      <point x="1440" y="768" type="line"/>
      <point x="1440" y="-128" type="line"/>
      <point x="80" y="-128" type="line"/>
      <point x="80" y="768" type="line"/>
    </contour>
    <contour>
      <point x="1456" y="-144" type="line"/>
      <point x="1456" y="784" type="line"/>
      <point x="64" y="784" type="line"/>
      <point x="64" y="-144" type="line"/>
    </contour>
    <contour>
      <point x="497" y="524" type="line"/>
      <point x="464" y="524" type="line"/>
      <point x="464" y="140" type="line"/>
      <point x="497" y="140" type="line"/>
    </contour>
    <contour>
      <point x="906" y="272" type="line"/>
      <point x="977" y="494" type="line"/>
      <point x="978" y="494" type="line"/>
      <point x="1048" y="272" type="line"/>
    </contour>
    <contour>
      <point x="683" y="140" type="line"/>
      <point x="716" y="140" type="line"/>
      <point x="716" y="494" type="line"/>
      <point x="826" y="494" type="line"/>
      <point x="830" y="524" type="line"/>
      <point x="570" y="524" type="line"/>
      <point x="570" y="494" type="line"/>
      <point x="683" y="494" type="line"/>
    </contour>
    <contour>
      <point x="1057" y="244" type="line"/>
      <point x="1090" y="140" type="line"/>
      <point x="1125" y="140" type="line"/>
      <point x="999" y="524" type="line"/>
      <point x="957" y="524" type="line"/>
      <point x="831" y="140" type="line"/>
      <point x="864" y="140" type="line"/>
      <point x="897" y="244" type="line"/>
    </contour>
  </outline>
</glyph>
<glyph name="u" format="1">
  <advance width="1520"/>
  <unicode hex="0075"/>
  <outline>
    <contour>
      <point x="1440" y="768" type="line"/>
      <point x="1440" y="-128" type="line"/>
      <point x="80" y="-128" type="line"/>
      <point x="80" y="768" type="line"/>
    </contour>
    <contour>
      <point x="1456" y="-144" type="line"/>
      <point x="1456" y="784" type="line"/>
      <point x="64" y="784" type="line"/>
      <point x="64" y="-144" type="line"/>
    </contour>
    <contour>
      <point x="623" y="473" type="curve"/>
      <point x="643" y="496" type="line"/>
      <point x="618" y="516"/>
      <point x="589" y="530"/>
      <point x="543" y="530" type="curve" smooth="yes"/>
      <point x="462" y="530"/>
      <point x="394" y="462"/>
      <point x="394" y="332" type="curve" smooth="yes"/>
      <point x="394" y="202"/>
      <point x="459" y="134"/>
      <point x="545" y="134" type="curve" smooth="yes"/>
      <point x="592" y="134"/>
      <point x="626" y="149"/>
      <point x="650" y="171" type="curve"/>
      <point x="631" y="194" type="line"/>
      <point x="611" y="176"/>
      <point x="586" y="163"/>
      <point x="547" y="163" type="curve" smooth="yes"/>
      <point x="481" y="163"/>
      <point x="429" y="214"/>
      <point x="429" y="332" type="curve" smooth="yes"/>
      <point x="429" y="454"/>
      <point x="482" y="501"/>
      <point x="545" y="501" type="curve" smooth="yes"/>
      <point x="577" y="501"/>
      <point x="600" y="492"/>
    </contour>
    <contour>
      <point x="1127" y="524" type="line"/>
      <point x="1092" y="524" type="line"/>
      <point x="984" y="176" type="line"/>
      <point x="983" y="176" type="line"/>
      <point x="875" y="524" type="line"/>
      <point x="839" y="524" type="line"/>
      <point x="965" y="140" type="line"/>
      <point x="1002" y="140" type="line"/>
    </contour>
    <contour>
      <point x="761" y="524" type="line"/>
      <point x="728" y="524" type="line"/>
      <point x="728" y="140" type="line"/>
      <point x="761" y="140" type="line"/>
    </contour>
  </outline>
</glyph>
<glyph name="v" format="2">
  <advance width="1520"/>
  <unicode hex="0076"/>
  <outline>
    <contour>
      <point x="1440" y="768" type="line"/>
      <point x="1440" y="-128" type="line"/>
      <point x="80" y="-128" type="line"/>
      <point x="80" y="768" type="line"/>
    </contour>
    <contour>
      <point x="1456" y="-144" type="line"/>
      <point x="1456" y="784" type="line"/>
      <point x="64" y="784" type="line"/>
      <point x="64" y="-144" type="line"/>
    </contour>
    <contour>
      <point x="594" y="317" type="line"/>
      <point x="594" y="496" type="line"/>
      <point x="652" y="496" type="line" smooth="yes"/>
      <point x="719" y="496"/>
      <point x="761" y="471"/>
      <point x="761" y="409" type="curve" smooth="yes"/>
      <point x="761" y="336"/>
      <point x="717" y="317"/>
      <point x="652" y="317" type="curve" smooth="yes"/>
    </contour>
    <contour>
      <point x="341" y="90" type="curve"/>
      <point x="350" y="64" type="line"/>
      <point x="411" y="87"/>
      <point x="438" y="113"/>
      <point x="438" y="187" type="curve" smooth="yes"/>
      <point x="438" y="524" type="line"/>
      <point x="405" y="524" type="line"/>
      <point x="405" y="186" type="line" smooth="yes"/>
      <point x="405" y="135"/>
      <point x="390" y="109"/>
    </contour>
    <contour>
      <point x="594" y="289" type="line"/>
      <point x="649" y="289" type="line" smooth="yes"/>
      <point x="737" y="289"/>
      <point x="796" y="321"/>
      <point x="796" y="409" type="curve" smooth="yes"/>
      <point x="796" y="490"/>
      <point x="742" y="524"/>
      <point x="648" y="524" type="curve" smooth="yes"/>
      <point x="561" y="524" type="line"/>
      <point x="561" y="140" type="line"/>
      <point x="594" y="140" type="line"/>
    </contour>
    <contour>
      <point x="1103" y="524" type="line"/>
      <point x="1103" y="297" type="line" smooth="yes"/>
      <point x="1103" y="250"/>
      <point x="1106" y="209"/>
      <point x="1108" y="176" type="curve"/>
      <point x="1107" y="176" type="line"/>
      <point x="925" y="524" type="line"/>
      <point x="882" y="524" type="line"/>
      <point x="882" y="140" type="line"/>
      <point x="913" y="140" type="line"/>
      <point x="913" y="366" type="line" smooth="yes"/>
      <point x="913" y="413"/>
      <point x="911" y="452"/>
      <point x="908" y="487" type="curve"/>
      <point x="910" y="487" type="line"/>
      <point x="1090" y="140" type="line"/>
      <point x="1135" y="140" type="line"/>
      <point x="1135" y="524" type="line"/>
    </contour>
  </outline>
</glyph>
<glyph name="w" format="1">
  <advance width="1712"/>
  <unicode hex="0077"/>
  <outline>
    <contour>
      <point x="1632" y="768" type="line"/>
      <point x="1632" y="-128" type="line"/>
      <point x="80" y="-128" type="line"/>
      <point x="80" y="768" type="line"/>
    </contour>
    <contour>
      <point x="1648" y="-144" type="line"/>
      <point x="1648" y="784" type="line"/>
      <point x="64" y="784" type="line"/>
      <point x="64" y="-144" type="line"/>
    </contour>
    <contour>
      <point x="1194" y="369" type="line"/>
      <point x="1193" y="369" type="line"/>
      <point x="1106" y="524" type="line"/>
      <point x="1067" y="524" type="line"/>
      <point x="1173" y="346" type="line"/>
      <point x="1052" y="140" type="line"/>
      <point x="1089" y="140" type="line"/>
      <point x="1192" y="324" type="line"/>
      <point x="1194" y="324" type="line"/>
      <point x="1298" y="140" type="line"/>
      <point x="1337" y="140" type="line"/>
      <point x="1213" y="348" type="line"/>
      <point x="1321" y="524" type="line"/>
      <point x="1284" y="524" type="line"/>
    </contour>
    <contour>
      <point x="803" y="140" type="line"/>
      <point x="1001" y="140" type="line"/>
      <point x="1001" y="168" type="line"/>
      <point x="836" y="168" type="line"/>
      <point x="836" y="325" type="line"/>
      <point x="972" y="325" type="line"/>
      <point x="972" y="353" type="line"/>
      <point x="836" y="353" type="line"/>
      <point x="836" y="496" type="line"/>
      <point x="993" y="496" type="line"/>
      <point x="997" y="524" type="line"/>
      <point x="803" y="524" type="line"/>
    </contour>
    <contour>
      <point x="674" y="140" type="line"/>
      <point x="706" y="140" type="line"/>
      <point x="669" y="524" type="line"/>
      <point x="623" y="524" type="line"/>
      <point x="529" y="226" type="line"/>
      <point x="526" y="226" type="line"/>
      <point x="431" y="524" type="line"/>
      <point x="385" y="524" type="line"/>
      <point x="348" y="140" type="line"/>
      <point x="380" y="140" type="line"/>
      <point x="397" y="334" type="line" smooth="yes"/>
      <point x="403" y="401"/>
      <point x="406" y="434"/>
      <point x="410" y="488" type="curve"/>
      <point x="411" y="488" type="line"/>
      <point x="511" y="185" type="line"/>
      <point x="543" y="185" type="line"/>
      <point x="641" y="488" type="line"/>
      <point x="642" y="488" type="line"/>
      <point x="645" y="434"/>
      <point x="648" y="401"/>
      <point x="655" y="334" type="curve" smooth="yes"/>
    </contour>
  </outline>
</glyph>
<glyph name="x" format="1">
  <advance width="1680"/>
  <unicode hex="0078"/>
  <outline>
    <contour>
      <point x="1600" y="768" type="line"/>
      <point x="1600" y="-128" type="line"/>
      <point x="80" y="-128" type="line"/>
      <point x="80" y="768" type="line"/>
    </contour>
    <contour>
      <point x="1616" y="-144" type="line"/>
      <point x="1616" y="784" type="line"/>
      <point x="64" y="784" type="line"/>
      <point x="64" y="-144" type="line"/>
    </contour>
    <contour>
      <point x="1081" y="168" type="line"/>
      <point x="1081" y="496" type="line"/>
      <point x="1127" y="496" type="line" smooth="yes"/>
      <point x="1197" y="496"/>
      <point x="1269" y="477"/>
      <point x="1269" y="335" type="curve" smooth="yes"/>
      <point x="1269" y="196"/>
      <point x="1199" y="168"/>
      <point x="1130" y="168" type="curve" smooth="yes"/>
    </contour>
    <contour>
      <point x="605" y="524" type="line"/>
      <point x="605" y="297" type="line" smooth="yes"/>
      <point x="605" y="250"/>
      <point x="608" y="209"/>
      <point x="610" y="176" type="curve"/>
      <point x="609" y="176" type="line"/>
      <point x="427" y="524" type="line"/>
      <point x="384" y="524" type="line"/>
      <point x="384" y="140" type="line"/>
      <point x="415" y="140" type="line"/>
      <point x="415" y="366" type="line" smooth="yes"/>
      <point x="415" y="413"/>
      <point x="413" y="452"/>
      <point x="410" y="487" type="curve"/>
      <point x="412" y="487" type="line"/>
      <point x="592" y="140" type="line"/>
      <point x="637" y="140" type="line"/>
      <point x="637" y="524" type="line"/>
    </contour>
    <contour>
      <point x="1048" y="524" type="line"/>
      <point x="1048" y="140" type="line"/>
      <point x="1127" y="140" type="line" smooth="yes"/>
      <point x="1208" y="140"/>
      <point x="1304" y="175"/>
      <point x="1304" y="335" type="curve" smooth="yes"/>
      <point x="1304" y="494"/>
      <point x="1215" y="524"/>
      <point x="1123" y="524" type="curve" smooth="yes"/>
    </contour>
    <contour>
      <point x="760" y="140" type="line"/>
      <point x="958" y="140" type="line"/>
      <point x="958" y="168" type="line"/>
      <point x="793" y="168" type="line"/>
      <point x="793" y="325" type="line"/>
      <point x="929" y="325" type="line"/>
      <point x="929" y="353" type="line"/>
      <point x="793" y="353" type="line"/>
      <point x="793" y="496" type="line"/>
      <point x="950" y="496" type="line"/>
      <point x="954" y="524" type="line"/>
      <point x="760" y="524" type="line"/>
    </contour>
  </outline>
</glyph>
<glyph name="y" format="2">
  <advance width="1984"/>
  <unicode hex="0079"/>
  <outline>
    <contour>
      <point x="1920" y="-144" type="line"/>
      <point x="1920" y="784" type="line"/>
      <point x="64" y="784" type="line"/>
      <point x="64" y="-144" type="line"/>
    </contour>
    <contour>
      <point x="1904" y="768" type="line"/>
      <point x="1904" y="-128" type="line"/>
      <point x="80" y="-128" type="line"/>
      <point x="80" y="768" type="line"/>
    </contour>
    <contour>
      <point x="737" y="524" type="line"/>
      <point x="737" y="297" type="line" smooth="yes"/>
      <point x="737" y="250"/>
      <point x="739" y="209"/>
      <point x="741" y="176" type="curve"/>
      <point x="740" y="176" type="line"/>
      <point x="559" y="524" type="line"/>
      <point x="515" y="524" type="line"/>
      <point x="515" y="140" type="line"/>
      <point x="546" y="140" type="line"/>
      <point x="546" y="366" type="line" smooth="yes"/>
      <point x="546" y="413"/>
      <point x="545" y="452"/>
      <point x="542" y="487" type="curve"/>
      <point x="543" y="487" type="line"/>
      <point x="724" y="140" type="line"/>
      <point x="768" y="140" type="line"/>
      <point x="768" y="524" type="line"/>
    </contour>
    <contour>
      <point x="1101" y="471" type="curve"/>
      <point x="1121" y="492" type="line"/>
      <point x="1093" y="517"/>
      <point x="1063" y="530"/>
      <point x="1015" y="530" type="curve" smooth="yes"/>
      <point x="933" y="530"/>
      <point x="856" y="463"/>
      <point x="856" y="332" type="curve" smooth="yes"/>
      <point x="856" y="199"/>
      <point x="919" y="134"/>
      <point x="1008" y="134" type="curve" smooth="yes"/>
      <point x="1054" y="134"/>
      <point x="1094" y="146"/>
      <point x="1128" y="165" type="curve"/>
      <point x="1128" y="348" type="line"/>
      <point x="1013" y="348" type="line"/>
      <point x="1017" y="320" type="line"/>
      <point x="1095" y="320" type="line"/>
      <point x="1095" y="182" type="line"/>
      <point x="1072" y="170"/>
      <point x="1044" y="162"/>
      <point x="1010" y="162" type="curve" smooth="yes"/>
      <point x="939" y="162"/>
      <point x="891" y="215"/>
      <point x="891" y="332" type="curve" smooth="yes"/>
      <point x="891" y="453"/>
      <point x="951" y="501"/>
      <point x="1015" y="501" type="curve" smooth="yes"/>
      <point x="1051" y="501"/>
      <point x="1077" y="492"/>
    </contour>
    <contour>
      <point x="1422" y="244" type="line"/>
      <point x="1455" y="140" type="line"/>
      <point x="1489" y="140" type="line"/>
      <point x="1363" y="524" type="line"/>
      <point x="1321" y="524" type="line"/>
      <point x="1195" y="140" type="line"/>
      <point x="1229" y="140" type="line"/>
      <point x="1262" y="244" type="line"/>
    </contour>
    <contour>
      <point x="1271" y="272" type="line"/>
      <point x="1342" y="494" type="line"/>
      <point x="1343" y="494" type="line"/>
      <point x="1413" y="272" type="line"/>
    </contour>
  </outline>
</glyph>
<glyph name="z" format="1">
  <advance width="1488"/>
  <unicode hex="007A"/>
  <outline>
    <contour>
      <point x="1424" y="-144" type="line"/>
      <point x="1424" y="784" type="line"/>
      <point x="64" y="784" type="line"/>
      <point x="64" y="-144" type="line"/>
    </contour>
    <contour>
      <point x="1408" y="768" type="line"/>
      <point x="1408" y="-128" type="line"/>
      <point x="80" y="-128" type="line"/>
      <point x="80" y="768" type="line"/>
    </contour>
    <contour>
      <point x="726" y="134" type="curve" smooth="yes"/>
      <point x="636" y="134"/>
      <point x="574" y="203"/>
      <point x="574" y="331" type="curve" smooth="yes"/>
      <point x="574" y="456"/>
      <point x="636" y="530"/>
      <point x="726" y="530" type="curve" smooth="yes"/>
      <point x="816" y="530"/>
      <point x="878" y="460"/>
      <point x="878" y="331" type="curve" smooth="yes"/>
      <point x="878" y="207"/>
      <point x="816" y="134"/>
    </contour>
    <contour>
      <point x="1007" y="340" type="line"/>
      <point x="1073" y="340" type="line" smooth="yes"/>
      <point x="1131" y="340"/>
      <point x="1173" y="361"/>
      <point x="1173" y="419" type="curve" smooth="yes"/>
      <point x="1173" y="474"/>
      <point x="1139" y="496"/>
      <point x="1071" y="496" type="curve" smooth="yes"/>
      <point x="1007" y="496" type="line"/>
    </contour>
    <contour>
      <point x="309" y="317" type="line"/>
      <point x="367" y="317" type="line" smooth="yes"/>
      <point x="431" y="317"/>
      <point x="476" y="336"/>
      <point x="476" y="409" type="curve" smooth="yes"/>
      <point x="476" y="471"/>
      <point x="434" y="496"/>
      <point x="366" y="496" type="curve" smooth="yes"/>
      <point x="309" y="496" type="line"/>
    </contour>
    <contour>
      <point x="309" y="289" type="line"/>
      <point x="309" y="140" type="line"/>
      <point x="276" y="140" type="line"/>
      <point x="276" y="524" type="line"/>
      <point x="363" y="524" type="line" smooth="yes"/>
      <point x="457" y="524"/>
      <point x="510" y="490"/>
      <point x="510" y="409" type="curve" smooth="yes"/>
      <point x="510" y="321"/>
      <point x="451" y="289"/>
      <point x="364" y="289" type="curve" smooth="yes"/>
    </contour>
    <contour>
      <point x="1076" y="312" type="line"/>
      <point x="1007" y="312" type="line"/>
      <point x="1007" y="140" type="line"/>
      <point x="974" y="140" type="line"/>
      <point x="974" y="524" type="line"/>
      <point x="1069" y="524" type="line" smooth="yes"/>
      <point x="1161" y="524"/>
      <point x="1207" y="490"/>
      <point x="1207" y="419" type="curve" smooth="yes"/>
      <point x="1207" y="354"/>
      <point x="1163" y="328"/>
      <point x="1110" y="317" type="curve"/>
      <point x="1226" y="140" type="line"/>
      <point x="1186" y="140" type="line"/>
    </contour>
    <contour>
      <point x="843" y="331" type="curve" smooth="yes"/>
      <point x="843" y="447"/>
      <point x="796" y="501"/>
      <point x="726" y="501" type="curve" smooth="yes"/>
      <point x="656" y="501"/>
      <point x="609" y="446"/>
      <point x="609" y="331" type="curve" smooth="yes"/>
      <point x="609" y="216"/>
      <point x="657" y="162"/>
      <point x="726" y="162" type="curve" smooth="yes"/>
      <point x="796" y="162"/>
      <point x="843" y="217"/>
    </contour>
  </outline>
</glyph>
<glyph name="Argentinien.02" format="2">
  <advance width="1616"/>
  <outline>
    <contour>
      <point x="1552" y="479" type="line"/>
      <point x="1552" y="783" type="line"/>
      <point x="64" y="783" type="line"/>
      <point x="64" y="479" type="line"/>
    </contour>
    <contour>
      <point x="1552" y="-145" type="line"/>
      <point x="1552" y="143" type="line"/>
      <point x="64" y="143" type="line"/>
      <point x="64" y="-145" type="line"/>
    </contour>
  </outline>
</glyph>
<glyph name="Argentinien.03" format="2">
  <advance width="1616"/>
  <outline>
    <contour>
      <point x="816" y="175" type="line"/>
      <point x="816" y="191" type="line"/>
      <point x="832" y="191" type="line"/>
      <point x="832" y="207" type="line"/>
      <point x="848" y="207" type="line"/>
      <point x="848" y="191" type="line"/>
      <point x="864" y="191" type="line"/>
      <point x="864" y="223" type="line"/>
      <point x="880" y="223" type="line"/>
      <point x="880" y="207" type="line"/>
      <point x="912" y="207" type="line"/>
      <point x="912" y="223" type="line"/>
      <point x="896" y="223" type="line"/>
      <point x="896" y="255" type="line"/>
      <point x="912" y="255" type="line"/>
      <point x="912" y="239" type="line"/>
      <point x="928" y="239" type="line"/>
      <point x="928" y="271" type="line"/>
      <point x="912" y="271" type="line"/>
      <point x="912" y="287" type="line"/>
      <point x="928" y="287" type="line"/>
      <point x="928" y="303" type="line"/>
      <point x="944" y="303" type="line"/>
      <point x="944" y="319" type="line"/>
      <point x="928" y="319" type="line"/>
      <point x="928" y="335" type="line"/>
      <point x="912" y="335" type="line"/>
      <point x="912" y="351" type="line"/>
      <point x="928" y="351" type="line"/>
      <point x="928" y="383" type="line"/>
      <point x="912" y="383" type="line"/>
      <point x="912" y="367" type="line"/>
      <point x="896" y="367" type="line"/>
      <point x="896" y="399" type="line"/>
      <point x="912" y="399" type="line"/>
      <point x="912" y="415" type="line"/>
      <point x="880" y="415" type="line"/>
      <point x="880" y="399" type="line"/>
      <point x="864" y="399" type="line"/>
      <point x="864" y="431" type="line"/>
      <point x="848" y="431" type="line"/>
      <point x="848" y="415" type="line"/>
      <point x="832" y="415" type="line"/>
      <point x="832" y="431" type="line"/>
      <point x="816" y="431" type="line"/>
      <point x="816" y="447" type="line"/>
      <point x="800" y="447" type="line"/>
      <point x="800" y="431" type="line"/>
      <point x="784" y="431" type="line"/>
      <point x="784" y="415" type="line"/>
      <point x="768" y="415" type="line"/>
      <point x="768" y="431" type="line"/>
      <point x="752" y="431" type="line"/>
      <point x="752" y="399" type="line"/>
      <point x="736" y="399" type="line"/>
      <point x="736" y="415" type="line"/>
      <point x="704" y="415" type="line"/>
      <point x="704" y="399" type="line"/>
      <point x="720" y="399" type="line"/>
      <point x="720" y="367" type="line"/>
      <point x="704" y="367" type="line"/>
      <point x="704" y="383" type="line"/>
      <point x="688" y="383" type="line"/>
      <point x="688" y="351" type="line"/>
      <point x="704" y="351" type="line"/>
      <point x="704" y="335" type="line"/>
      <point x="688" y="335" type="line"/>
      <point x="688" y="319" type="line"/>
      <point x="672" y="319" type="line"/>
      <point x="672" y="303" type="line"/>
      <point x="688" y="303" type="line"/>
      <point x="688" y="287" type="line"/>
      <point x="704" y="287" type="line"/>
      <point x="704" y="271" type="line"/>
      <point x="688" y="271" type="line"/>
      <point x="688" y="239" type="line"/>
      <point x="704" y="239" type="line"/>
      <point x="704" y="255" type="line"/>
      <point x="720" y="255" type="line"/>
      <point x="720" y="223" type="line"/>
      <point x="704" y="223" type="line"/>
      <point x="704" y="207" type="line"/>
      <point x="736" y="207" type="line"/>
      <point x="736" y="223" type="line"/>
      <point x="752" y="223" type="line"/>
      <point x="752" y="191" type="line"/>
      <point x="768" y="191" type="line"/>
      <point x="768" y="207" type="line"/>
      <point x="784" y="207" type="line"/>
      <point x="784" y="191" type="line"/>
      <point x="800" y="191" type="line"/>
      <point x="800" y="175" type="line"/>
    </contour>
  </outline>
</glyph>
<glyph name="Argentinien.04" format="2">
  <advance width="1616"/>
  <outline>
    <contour>
      <point x="817" y="240" type="line"/>
      <point x="849" y="240" type="line"/>
      <point x="849" y="256" type="line"/>
      <point x="865" y="256" type="line"/>
      <point x="865" y="272" type="line"/>
      <point x="881" y="272" type="line"/>
      <point x="881" y="304" type="line"/>
      <point x="896" y="304" type="line"/>
      <point x="896" y="320" type="line"/>
      <point x="881" y="320" type="line"/>
      <point x="881" y="352" type="line"/>
      <point x="865" y="352" type="line"/>
      <point x="865" y="368" type="line"/>
      <point x="849" y="368" type="line"/>
      <point x="849" y="384" type="line"/>
      <point x="817" y="384" type="line"/>
      <point x="817" y="400" type="line"/>
      <point x="799" y="400" type="line"/>
      <point x="799" y="384" type="line"/>
      <point x="767" y="384" type="line"/>
      <point x="767" y="368" type="line"/>
      <point x="751" y="368" type="line"/>
      <point x="751" y="352" type="line"/>
      <point x="735" y="352" type="line"/>
      <point x="735" y="320" type="line"/>
      <point x="720" y="320" type="line"/>
      <point x="720" y="304" type="line"/>
      <point x="735" y="304" type="line"/>
      <point x="735" y="272" type="line"/>
      <point x="751" y="272" type="line"/>
      <point x="751" y="256" type="line"/>
      <point x="767" y="256" type="line"/>
      <point x="767" y="240" type="line"/>
      <point x="799" y="240" type="line"/>
      <point x="799" y="224" type="line"/>
      <point x="817" y="224" type="line"/>
    </contour>
    <contour>
      <point x="768" y="320" type="line"/>
      <point x="800" y="320" type="line"/>
      <point x="800" y="336" type="line"/>
      <point x="768" y="336" type="line"/>
    </contour>
    <contour>
      <point x="832" y="272" type="line"/>
      <point x="832" y="288" type="line"/>
      <point x="784" y="288" type="line"/>
      <point x="784" y="272" type="line"/>
    </contour>
    <contour>
      <point x="816" y="240" type="line"/>
      <point x="800" y="240" type="line"/>
      <point x="800" y="256" type="line"/>
      <point x="768" y="256" type="line"/>
      <point x="768" y="272" type="line"/>
      <point x="752" y="272" type="line"/>
      <point x="752" y="304" type="line"/>
      <point x="736" y="304" type="line"/>
      <point x="736" y="320" type="line"/>
      <point x="752" y="320" type="line"/>
      <point x="752" y="352" type="line"/>
      <point x="768" y="352" type="line"/>
      <point x="768" y="368" type="line"/>
      <point x="800" y="368" type="line"/>
      <point x="800" y="384" type="line"/>
      <point x="816" y="384" type="line"/>
      <point x="816" y="368" type="line"/>
      <point x="848" y="368" type="line"/>
      <point x="848" y="352" type="line"/>
      <point x="864" y="352" type="line"/>
      <point x="864" y="320" type="line"/>
      <point x="880" y="320" type="line"/>
      <point x="880" y="304" type="line"/>
      <point x="864" y="304" type="line"/>
      <point x="864" y="272" type="line"/>
      <point x="848" y="272" type="line"/>
      <point x="848" y="256" type="line"/>
      <point x="816" y="256" type="line"/>
    </contour>
    <contour>
      <point x="848" y="320" type="line"/>
      <point x="848" y="336" type="line"/>
      <point x="816" y="336" type="line"/>
      <point x="816" y="320" type="line"/>
    </contour>
  </outline>
</glyph>
<glyph name="Australien.01" format="2">
  <advance width="1936"/>
  <outline>
    <contour>
      <point x="1872" y="-144" type="line"/>
      <point x="1872" y="784" type="line"/>
      <point x="64" y="784" type="line"/>
      <point x="64" y="-144" type="line"/>
    </contour>
  </outline>
</glyph>
<glyph name="Australien.02" format="2">
  <advance width="1936"/>
  <guideline x="80" y="320" angle="0" identifier="AZ2kS1nzlO"/>
  <outline>
    <contour>
      <point x="560" y="608" type="line"/>
      <point x="560" y="784" type="line"/>
      <point x="480" y="784" type="line"/>
      <point x="480" y="608" type="line"/>
      <point x="464" y="608" type="line"/>
      <point x="464" y="592" type="line"/>
      <point x="64" y="592" type="line"/>
      <point x="64" y="512" type="line"/>
      <point x="464" y="512" type="line"/>
      <point x="464" y="496" type="line"/>
      <point x="480" y="496" type="line"/>
      <point x="480" y="320" type="line"/>
      <point x="560" y="320" type="line"/>
      <point x="560" y="496" type="line"/>
      <point x="576" y="496" type="line"/>
      <point x="576" y="512" type="line"/>
      <point x="960" y="512" type="line"/>
      <point x="960" y="592" type="line"/>
      <point x="576" y="592" type="line"/>
      <point x="576" y="608" type="line"/>
    </contour>
    <contour>
      <point x="880" y="768" type="line"/>
      <point x="864" y="768" type="line"/>
      <point x="864" y="752" type="line"/>
      <point x="832" y="752" type="line"/>
      <point x="832" y="736" type="line"/>
      <point x="800" y="736" type="line"/>
      <point x="800" y="720" type="line"/>
      <point x="768" y="720" type="line"/>
      <point x="768" y="704" type="line"/>
      <point x="736" y="704" type="line"/>
      <point x="736" y="688" type="line"/>
      <point x="704" y="688" type="line"/>
      <point x="704" y="672" type="line"/>
      <point x="672" y="672" type="line"/>
      <point x="672" y="656" type="line"/>
      <point x="640" y="656" type="line"/>
      <point x="640" y="640" type="line"/>
      <point x="624" y="640" type="line"/>
      <point x="624" y="624" type="line"/>
      <point x="672" y="624" type="line"/>
      <point x="672" y="640" type="line"/>
      <point x="704" y="640" type="line"/>
      <point x="704" y="656" type="line"/>
      <point x="736" y="656" type="line"/>
      <point x="736" y="672" type="line"/>
      <point x="768" y="672" type="line"/>
      <point x="768" y="688" type="line"/>
      <point x="800" y="688" type="line"/>
      <point x="800" y="704" type="line"/>
      <point x="832" y="704" type="line"/>
      <point x="832" y="720" type="line"/>
      <point x="864" y="720" type="line"/>
      <point x="864" y="736" type="line"/>
      <point x="896" y="736" type="line"/>
      <point x="896" y="752" type="line"/>
      <point x="928" y="752" type="line"/>
      <point x="928" y="768" type="line"/>
      <point x="960" y="768" type="line"/>
      <point x="960" y="784" type="line"/>
      <point x="880" y="784" type="line"/>
    </contour>
    <contour>
      <point x="112" y="736" type="line"/>
      <point x="112" y="720" type="line"/>
      <point x="144" y="720" type="line"/>
      <point x="144" y="704" type="line"/>
      <point x="176" y="704" type="line"/>
      <point x="176" y="688" type="line"/>
      <point x="208" y="688" type="line"/>
      <point x="208" y="672" type="line"/>
      <point x="240" y="672" type="line"/>
      <point x="240" y="656" type="line"/>
      <point x="272" y="656" type="line"/>
      <point x="272" y="640" type="line"/>
      <point x="288" y="640" type="line"/>
      <point x="288" y="624" type="line"/>
      <point x="352" y="624" type="line"/>
      <point x="352" y="640" type="line"/>
      <point x="336" y="640" type="line"/>
      <point x="336" y="656" type="line"/>
      <point x="304" y="656" type="line"/>
      <point x="304" y="672" type="line"/>
      <point x="272" y="672" type="line"/>
      <point x="272" y="688" type="line"/>
      <point x="240" y="688" type="line"/>
      <point x="240" y="704" type="line"/>
      <point x="208" y="704" type="line"/>
      <point x="208" y="720" type="line"/>
      <point x="176" y="720" type="line"/>
      <point x="176" y="736" type="line"/>
      <point x="144" y="736" type="line"/>
      <point x="144" y="752" type="line"/>
      <point x="112" y="752" type="line"/>
      <point x="112" y="768" type="line"/>
      <point x="80" y="768" type="line"/>
      <point x="80" y="784" type="line"/>
      <point x="64" y="784" type="line"/>
      <point x="64" y="752" type="line"/>
      <point x="80" y="752" type="line"/>
      <point x="80" y="736" type="line"/>
    </contour>
    <contour>
      <point x="912" y="384" type="line"/>
      <point x="880" y="384" type="line"/>
      <point x="880" y="400" type="line"/>
      <point x="864" y="400" type="line"/>
      <point x="864" y="416" type="line"/>
      <point x="832" y="416" type="line"/>
      <point x="832" y="432" type="line"/>
      <point x="800" y="432" type="line"/>
      <point x="800" y="448" type="line"/>
      <point x="768" y="448" type="line"/>
      <point x="768" y="464" type="line"/>
      <point x="736" y="464" type="line"/>
      <point x="736" y="480" type="line"/>
      <point x="688" y="480" type="line"/>
      <point x="688" y="464" type="line"/>
      <point x="704" y="464" type="line"/>
      <point x="704" y="448" type="line"/>
      <point x="736" y="448" type="line"/>
      <point x="736" y="432" type="line"/>
      <point x="768" y="432" type="line"/>
      <point x="768" y="416" type="line"/>
      <point x="800" y="416" type="line"/>
      <point x="800" y="400" type="line"/>
      <point x="832" y="400" type="line"/>
      <point x="832" y="384" type="line"/>
      <point x="864" y="384" type="line"/>
      <point x="864" y="368" type="line"/>
      <point x="896" y="368" type="line"/>
      <point x="896" y="352" type="line"/>
      <point x="928" y="352" type="line"/>
      <point x="928" y="336" type="line"/>
      <point x="944" y="336" type="line"/>
      <point x="944" y="320" type="line"/>
      <point x="960" y="320" type="line"/>
      <point x="960" y="368" type="line"/>
      <point x="912" y="368" type="line"/>
    </contour>
    <contour>
      <point x="352" y="464" type="line"/>
      <point x="320" y="464" type="line"/>
      <point x="320" y="448" type="line"/>
      <point x="304" y="448" type="line"/>
      <point x="304" y="432" type="line"/>
      <point x="272" y="432" type="line"/>
      <point x="272" y="416" type="line"/>
      <point x="240" y="416" type="line"/>
      <point x="240" y="400" type="line"/>
      <point x="208" y="400" type="line"/>
      <point x="208" y="384" type="line"/>
      <point x="176" y="384" type="line"/>
      <point x="176" y="368" type="line"/>
      <point x="144" y="368" type="line"/>
      <point x="144" y="352" type="line"/>
      <point x="112" y="352" type="line"/>
      <point x="112" y="336" type="line"/>
      <point x="80" y="336" type="line"/>
      <point x="80" y="320" type="line"/>
      <point x="144" y="320" type="line"/>
      <point x="144" y="336" type="line"/>
      <point x="176" y="336" type="line"/>
      <point x="176" y="352" type="line"/>
      <point x="208" y="352" type="line"/>
      <point x="208" y="368" type="line"/>
      <point x="240" y="368" type="line"/>
      <point x="240" y="384" type="line"/>
      <point x="272" y="384" type="line"/>
      <point x="272" y="400" type="line"/>
      <point x="304" y="400" type="line"/>
      <point x="304" y="416" type="line"/>
      <point x="336" y="416" type="line"/>
      <point x="336" y="432" type="line"/>
      <point x="352" y="432" type="line"/>
      <point x="352" y="448" type="line"/>
      <point x="400" y="448" type="line"/>
      <point x="400" y="464" type="line"/>
      <point x="416" y="464" type="line"/>
      <point x="416" y="480" type="line"/>
      <point x="352" y="480" type="line"/>
    </contour>
  </outline>
</glyph>
<glyph name="Australien.03" format="2">
  <advance width="1936"/>
  <outline>
    <contour>
      <point x="416" y="640" type="line"/>
      <point x="416" y="656" type="line"/>
      <point x="384" y="656" type="line"/>
      <point x="384" y="672" type="line"/>
      <point x="352" y="672" type="line"/>
      <point x="352" y="688" type="line"/>
      <point x="320" y="688" type="line"/>
      <point x="320" y="704" type="line"/>
      <point x="288" y="704" type="line"/>
      <point x="288" y="720" type="line"/>
      <point x="256" y="720" type="line"/>
      <point x="256" y="736" type="line"/>
      <point x="224" y="736" type="line"/>
      <point x="224" y="752" type="line"/>
      <point x="192" y="752" type="line"/>
      <point x="192" y="768" type="line"/>
      <point x="160" y="768" type="line"/>
      <point x="160" y="784" type="line"/>
      <point x="96" y="784" type="line"/>
      <point x="96" y="768" type="line"/>
      <point x="128" y="768" type="line"/>
      <point x="128" y="752" type="line"/>
      <point x="160" y="752" type="line"/>
      <point x="160" y="736" type="line"/>
      <point x="192" y="736" type="line"/>
      <point x="192" y="720" type="line"/>
      <point x="224" y="720" type="line"/>
      <point x="224" y="704" type="line"/>
      <point x="256" y="704" type="line"/>
      <point x="256" y="688" type="line"/>
      <point x="288" y="688" type="line"/>
      <point x="288" y="672" type="line"/>
      <point x="320" y="672" type="line"/>
      <point x="320" y="656" type="line"/>
      <point x="352" y="656" type="line"/>
      <point x="352" y="640" type="line"/>
      <point x="368" y="640" type="line"/>
      <point x="368" y="624" type="line"/>
      <point x="64" y="624" type="line"/>
      <point x="64" y="608" type="line"/>
      <point x="464" y="608" type="line"/>
      <point x="464" y="784" type="line"/>
      <point x="448" y="784" type="line"/>
      <point x="448" y="640" type="line"/>
    </contour>
    <contour>
      <point x="944" y="752" type="line"/>
      <point x="912" y="752" type="line"/>
      <point x="912" y="736" type="line"/>
      <point x="880" y="736" type="line"/>
      <point x="880" y="720" type="line"/>
      <point x="848" y="720" type="line"/>
      <point x="848" y="704" type="line"/>
      <point x="816" y="704" type="line"/>
      <point x="816" y="688" type="line"/>
      <point x="784" y="688" type="line"/>
      <point x="784" y="672" type="line"/>
      <point x="752" y="672" type="line"/>
      <point x="752" y="656" type="line"/>
      <point x="720" y="656" type="line"/>
      <point x="720" y="640" type="line"/>
      <point x="688" y="640" type="line"/>
      <point x="688" y="624" type="line"/>
      <point x="592" y="624" type="line"/>
      <point x="592" y="784" type="line"/>
      <point x="576" y="784" type="line"/>
      <point x="576" y="608" type="line"/>
      <point x="960" y="608" type="line"/>
      <point x="960" y="624" type="line"/>
      <point x="768" y="624" type="line"/>
      <point x="768" y="640" type="line"/>
      <point x="784" y="640" type="line"/>
      <point x="784" y="656" type="line"/>
      <point x="816" y="656" type="line"/>
      <point x="816" y="672" type="line"/>
      <point x="848" y="672" type="line"/>
      <point x="848" y="688" type="line"/>
      <point x="880" y="688" type="line"/>
      <point x="880" y="704" type="line"/>
      <point x="912" y="704" type="line"/>
      <point x="912" y="720" type="line"/>
      <point x="944" y="720" type="line"/>
      <point x="944" y="736" type="line"/>
      <point x="960" y="736" type="line"/>
      <point x="960" y="768" type="line"/>
      <point x="944" y="768" type="line"/>
    </contour>
    <contour>
      <point x="1440" y="656" type="line"/>
      <point x="1424" y="656" type="line"/>
      <point x="1424" y="672" type="line"/>
      <point x="1408" y="672" type="line"/>
      <point x="1408" y="656" type="line"/>
      <point x="1392" y="656" type="line"/>
      <point x="1392" y="640" type="line"/>
      <point x="1376" y="640" type="line"/>
      <point x="1376" y="624" type="line"/>
      <point x="1392" y="624" type="line"/>
      <point x="1392" y="608" type="line"/>
      <point x="1408" y="608" type="line"/>
      <point x="1408" y="592" type="line"/>
      <point x="1424" y="592" type="line"/>
      <point x="1424" y="608" type="line"/>
      <point x="1440" y="608" type="line"/>
      <point x="1440" y="624" type="line"/>
      <point x="1456" y="624" type="line"/>
      <point x="1456" y="640" type="line"/>
      <point x="1440" y="640" type="line"/>
    </contour>
    <contour>
      <point x="64" y="480" type="line"/>
      <point x="256" y="480" type="line"/>
      <point x="256" y="464" type="line"/>
      <point x="240" y="464" type="line"/>
      <point x="240" y="448" type="line"/>
      <point x="224" y="448" type="line"/>
      <point x="224" y="432" type="line"/>
      <point x="192" y="432" type="line"/>
      <point x="192" y="416" type="line"/>
      <point x="160" y="416" type="line"/>
      <point x="160" y="400" type="line"/>
      <point x="128" y="400" type="line"/>
      <point x="128" y="384" type="line"/>
      <point x="96" y="384" type="line"/>
      <point x="96" y="368" type="line"/>
      <point x="64" y="368" type="line"/>
      <point x="64" y="336" type="line"/>
      <point x="96" y="336" type="line"/>
      <point x="96" y="352" type="line"/>
      <point x="128" y="352" type="line"/>
      <point x="128" y="368" type="line"/>
      <point x="160" y="368" type="line"/>
      <point x="160" y="384" type="line"/>
      <point x="192" y="384" type="line"/>
      <point x="192" y="400" type="line"/>
      <point x="224" y="400" type="line"/>
      <point x="224" y="416" type="line"/>
      <point x="256" y="416" type="line"/>
      <point x="256" y="432" type="line"/>
      <point x="288" y="432" type="line"/>
      <point x="288" y="448" type="line"/>
      <point x="304" y="448" type="line"/>
      <point x="304" y="464" type="line"/>
      <point x="336" y="464" type="line"/>
      <point x="336" y="480" type="line"/>
      <point x="432" y="480" type="line"/>
      <point x="432" y="464" type="line"/>
      <point x="448" y="464" type="line"/>
      <point x="448" y="320" type="line"/>
      <point x="464" y="320" type="line"/>
      <point x="464" y="496" type="line"/>
      <point x="64" y="496" type="line"/>
    </contour>
    <contour>
      <point x="576" y="320" type="line"/>
      <point x="592" y="320" type="line"/>
      <point x="592" y="464" type="line"/>
      <point x="624" y="464" type="line"/>
      <point x="624" y="448" type="line"/>
      <point x="656" y="448" type="line"/>
      <point x="656" y="432" type="line"/>
      <point x="688" y="432" type="line"/>
      <point x="688" y="416" type="line"/>
      <point x="720" y="416" type="line"/>
      <point x="720" y="400" type="line"/>
      <point x="752" y="400" type="line"/>
      <point x="752" y="384" type="line"/>
      <point x="784" y="384" type="line"/>
      <point x="784" y="368" type="line"/>
      <point x="816" y="368" type="line"/>
      <point x="816" y="352" type="line"/>
      <point x="848" y="352" type="line"/>
      <point x="848" y="336" type="line"/>
      <point x="864" y="336" type="line"/>
      <point x="864" y="320" type="line"/>
      <point x="944" y="320" type="line"/>
      <point x="944" y="336" type="line"/>
      <point x="896" y="336" type="line"/>
      <point x="896" y="352" type="line"/>
      <point x="880" y="352" type="line"/>
      <point x="880" y="368" type="line"/>
      <point x="848" y="368" type="line"/>
      <point x="848" y="384" type="line"/>
      <point x="816" y="384" type="line"/>
      <point x="816" y="400" type="line"/>
      <point x="784" y="400" type="line"/>
      <point x="784" y="416" type="line"/>
      <point x="752" y="416" type="line"/>
      <point x="752" y="432" type="line"/>
      <point x="720" y="432" type="line"/>
      <point x="720" y="448" type="line"/>
      <point x="688" y="448" type="line"/>
      <point x="688" y="464" type="line"/>
      <point x="672" y="464" type="line"/>
      <point x="672" y="480" type="line"/>
      <point x="960" y="480" type="line"/>
      <point x="960" y="496" type="line"/>
      <point x="576" y="496" type="line"/>
    </contour>
    <contour>
      <point x="1648" y="464" type="line"/>
      <point x="1632" y="464" type="line"/>
      <point x="1632" y="480" type="line"/>
      <point x="1616" y="480" type="line"/>
      <point x="1616" y="464" type="line"/>
      <point x="1600" y="464" type="line"/>
      <point x="1600" y="448" type="line"/>
      <point x="1584" y="448" type="line"/>
      <point x="1584" y="432" type="line"/>
      <point x="1600" y="432" type="line"/>
      <point x="1600" y="400" type="line"/>
      <point x="1616" y="400" type="line"/>
      <point x="1616" y="416" type="line"/>
      <point x="1632" y="416" type="line"/>
      <point x="1632" y="400" type="line"/>
      <point x="1648" y="400" type="line"/>
      <point x="1648" y="432" type="line"/>
      <point x="1664" y="432" type="line"/>
      <point x="1664" y="448" type="line"/>
      <point x="1648" y="448" type="line"/>
    </contour>
    <contour>
      <point x="1216" y="400" type="line"/>
      <point x="1200" y="400" type="line"/>
      <point x="1200" y="416" type="line"/>
      <point x="1184" y="416" type="line"/>
      <point x="1184" y="400" type="line"/>
      <point x="1168" y="400" type="line"/>
      <point x="1168" y="384" type="line"/>
      <point x="1152" y="384" type="line"/>
      <point x="1152" y="368" type="line"/>
      <point x="1168" y="368" type="line"/>
      <point x="1168" y="336" type="line"/>
      <point x="1184" y="336" type="line"/>
      <point x="1184" y="352" type="line"/>
      <point x="1200" y="352" type="line"/>
      <point x="1200" y="336" type="line"/>
      <point x="1216" y="336" type="line"/>
      <point x="1216" y="368" type="line"/>
      <point x="1232" y="368" type="line"/>
      <point x="1232" y="384" type="line"/>
      <point x="1216" y="384" type="line"/>
    </contour>
    <contour>
      <point x="1520" y="288" type="line"/>
      <point x="1520" y="304" type="line"/>
      <point x="1504" y="304" type="line"/>
      <point x="1504" y="288" type="line"/>
      <point x="1488" y="288" type="line"/>
      <point x="1488" y="272" type="line"/>
      <point x="1504" y="272" type="line"/>
      <point x="1504" y="256" type="line"/>
      <point x="1520" y="256" type="line"/>
      <point x="1520" y="272" type="line"/>
      <point x="1536" y="272" type="line"/>
      <point x="1536" y="288" type="line"/>
    </contour>
    <contour>
      <point x="592" y="144" type="line"/>
      <point x="528" y="144" type="line"/>
      <point x="528" y="192" type="line"/>
      <point x="512" y="192" type="line"/>
      <point x="512" y="160" type="line"/>
      <point x="496" y="160" type="line"/>
      <point x="496" y="144" type="line"/>
      <point x="448" y="144" type="line"/>
      <point x="448" y="128" type="line"/>
      <point x="464" y="128" type="line"/>
      <point x="464" y="96" type="line"/>
      <point x="448" y="96" type="line"/>
      <point x="448" y="80" type="line"/>
      <point x="416" y="80" type="line"/>
      <point x="416" y="64" type="line"/>
      <point x="464" y="64" type="line"/>
      <point x="464" y="48" type="line"/>
      <point x="480" y="48" type="line"/>
      <point x="480" y="16" type="line"/>
      <point x="464" y="16" type="line"/>
      <point x="464" y="-16" type="line"/>
      <point x="480" y="-16" type="line"/>
      <point x="480" y="0" type="line"/>
      <point x="496" y="0" type="line"/>
      <point x="496" y="32" type="line"/>
      <point x="528" y="32" type="line"/>
      <point x="528" y="16" type="line"/>
      <point x="544" y="16" type="line"/>
      <point x="544" y="0" type="line"/>
      <point x="560" y="0" type="line"/>
      <point x="560" y="48" type="line"/>
      <point x="576" y="48" type="line"/>
      <point x="576" y="64" type="line"/>
      <point x="608" y="64" type="line"/>
      <point x="608" y="80" type="line"/>
      <point x="576" y="80" type="line"/>
      <point x="576" y="128" type="line"/>
      <point x="592" y="128" type="line"/>
    </contour>
    <contour>
      <point x="1440" y="32" type="line"/>
      <point x="1424" y="32" type="line"/>
      <point x="1424" y="48" type="line"/>
      <point x="1408" y="48" type="line"/>
      <point x="1408" y="32" type="line"/>
      <point x="1392" y="32" type="line"/>
      <point x="1392" y="16" type="line"/>
      <point x="1376" y="16" type="line"/>
      <point x="1376" y="0" type="line"/>
      <point x="1392" y="0" type="line"/>
      <point x="1392" y="-32" type="line"/>
      <point x="1408" y="-32" type="line"/>
      <point x="1408" y="-16" type="line"/>
      <point x="1424" y="-16" type="line"/>
      <point x="1424" y="-32" type="line"/>
      <point x="1440" y="-32" type="line"/>
      <point x="1440" y="0" type="line"/>
      <point x="1456" y="0" type="line"/>
      <point x="1456" y="16" type="line"/>
      <point x="1440" y="16" type="line"/>
    </contour>
  </outline>
</glyph>
<glyph name="Australien.05" format="2">
  <advance width="1936"/>
  <outline>
    <contour>
      <point x="176" y="784" type="line"/>
      <point x="176" y="768" type="line"/>
      <point x="192" y="768" type="line"/>
      <point x="192" y="784" type="line"/>
    </contour>
    <contour>
      <point x="848" y="784" type="line"/>
      <point x="848" y="768" type="line"/>
      <point x="864" y="768" type="line"/>
      <point x="864" y="784" type="line"/>
    </contour>
    <contour>
      <point x="208" y="768" type="line"/>
      <point x="208" y="752" type="line"/>
      <point x="224" y="752" type="line"/>
      <point x="224" y="768" type="line"/>
    </contour>
    <contour>
      <point x="816" y="768" type="line"/>
      <point x="816" y="752" type="line"/>
      <point x="832" y="752" type="line"/>
      <point x="832" y="768" type="line"/>
    </contour>
    <contour>
      <point x="256" y="736" type="line"/>
      <point x="256" y="720" type="line"/>
      <point x="288" y="720" type="line"/>
      <point x="288" y="736" type="line"/>
      <point x="257" y="736" type="line"/>
      <point x="257" y="752" type="line"/>
      <point x="240" y="752" type="line"/>
      <point x="240" y="736" type="line"/>
    </contour>
    <contour>
      <point x="784" y="752" type="line"/>
      <point x="784" y="736" type="line"/>
      <point x="800" y="736" type="line"/>
      <point x="800" y="752" type="line"/>
    </contour>
    <contour>
      <point x="64" y="736" type="line"/>
      <point x="64" y="720" type="line"/>
      <point x="80" y="720" type="line"/>
      <point x="80" y="736" type="line"/>
    </contour>
    <contour>
      <point x="768" y="720" type="line"/>
      <point x="768" y="736" type="line"/>
      <point x="752" y="736" type="line"/>
      <point x="752" y="720" type="line"/>
    </contour>
    <contour>
      <point x="96" y="720" type="line"/>
      <point x="96" y="704" type="line"/>
      <point x="112" y="704" type="line"/>
      <point x="112" y="720" type="line"/>
    </contour>
    <contour>
      <point x="320" y="704" type="line"/>
      <point x="320" y="720" type="line"/>
      <point x="304" y="720" type="line"/>
      <point x="304" y="704" type="line"/>
    </contour>
    <contour>
      <point x="736" y="704" type="line"/>
      <point x="736" y="720" type="line"/>
      <point x="720" y="720" type="line"/>
      <point x="720" y="704" type="line"/>
    </contour>
    <contour>
      <point x="928" y="720" type="line"/>
      <point x="928" y="704" type="line"/>
      <point x="944" y="704" type="line"/>
      <point x="944" y="720" type="line"/>
    </contour>
    <contour>
      <point x="128" y="704" type="line"/>
      <point x="128" y="688" type="line"/>
      <point x="144" y="688" type="line"/>
      <point x="144" y="704" type="line"/>
    </contour>
    <contour>
      <point x="352" y="688" type="line"/>
      <point x="352" y="704" type="line"/>
      <point x="336" y="704" type="line"/>
      <point x="336" y="688" type="line"/>
    </contour>
    <contour>
      <point x="704" y="688" type="line"/>
      <point x="704" y="704" type="line"/>
      <point x="688" y="704" type="line"/>
      <point x="688" y="688" type="line"/>
    </contour>
    <contour>
      <point x="896" y="704" type="line"/>
      <point x="896" y="688" type="line"/>
      <point x="912" y="688" type="line"/>
      <point x="912" y="704" type="line"/>
    </contour>
    <contour>
      <point x="1425" y="576" type="line"/>
      <point x="1425" y="592" type="line"/>
      <point x="1456" y="592" type="line"/>
      <point x="1456" y="623" type="line"/>
      <point x="1472" y="623" type="line"/>
      <point x="1472" y="641" type="line"/>
      <point x="1456" y="641" type="line"/>
      <point x="1456" y="672" type="line"/>
      <point x="1425" y="672" type="line"/>
      <point x="1425" y="688" type="line"/>
      <point x="1407" y="688" type="line"/>
      <point x="1407" y="672" type="line"/>
      <point x="1376" y="672" type="line"/>
      <point x="1376" y="641" type="line"/>
      <point x="1360" y="641" type="line"/>
      <point x="1360" y="623" type="line"/>
      <point x="1376" y="623" type="line"/>
      <point x="1376" y="592" type="line"/>
      <point x="1407" y="592" type="line"/>
      <point x="1407" y="576" type="line"/>
    </contour>
    <contour>
      <point x="160" y="688" type="line"/>
      <point x="160" y="672" type="line"/>
      <point x="176" y="672" type="line"/>
      <point x="176" y="688" type="line"/>
    </contour>
    <contour>
      <point x="384" y="672" type="line"/>
      <point x="384" y="688" type="line"/>
      <point x="368" y="688" type="line"/>
      <point x="368" y="672" type="line"/>
    </contour>
    <contour>
      <point x="672" y="672" type="line"/>
      <point x="672" y="688" type="line"/>
      <point x="656" y="688" type="line"/>
      <point x="656" y="672" type="line"/>
    </contour>
    <contour>
      <point x="880" y="672" type="line"/>
      <point x="880" y="688" type="line"/>
      <point x="864" y="688" type="line"/>
      <point x="864" y="672" type="line"/>
    </contour>
    <contour>
      <point x="1408" y="592" type="line"/>
      <point x="1408" y="608" type="line"/>
      <point x="1392" y="608" type="line"/>
      <point x="1392" y="624" type="line"/>
      <point x="1376" y="624" type="line"/>
      <point x="1376" y="640" type="line"/>
      <point x="1392" y="640" type="line"/>
      <point x="1392" y="656" type="line"/>
      <point x="1408" y="656" type="line"/>
      <point x="1408" y="672" type="line"/>
      <point x="1424" y="672" type="line"/>
      <point x="1424" y="656" type="line"/>
      <point x="1440" y="656" type="line"/>
      <point x="1440" y="640" type="line"/>
      <point x="1456" y="640" type="line"/>
      <point x="1456" y="624" type="line"/>
      <point x="1440" y="624" type="line"/>
      <point x="1440" y="608" type="line"/>
      <point x="1424" y="608" type="line"/>
      <point x="1424" y="592" type="line"/>
    </contour>
    <contour>
      <point x="208" y="656" type="line"/>
      <point x="208" y="672" type="line"/>
      <point x="192" y="672" type="line"/>
      <point x="192" y="656" type="line"/>
    </contour>
    <contour>
      <point x="448" y="640" type="line"/>
      <point x="448" y="784" type="line"/>
      <point x="432" y="784" type="line"/>
      <point x="432" y="656" type="line"/>
      <point x="417" y="656" type="line"/>
      <point x="417" y="672" type="line"/>
      <point x="400" y="672" type="line"/>
      <point x="400" y="656" type="line"/>
      <point x="416" y="656" type="line"/>
      <point x="416" y="640" type="line"/>
    </contour>
    <contour>
      <point x="640" y="656" type="line"/>
      <point x="640" y="672" type="line"/>
      <point x="624" y="672" type="line"/>
      <point x="624" y="656" type="line"/>
    </contour>
    <contour>
      <point x="848" y="656" type="line"/>
      <point x="848" y="672" type="line"/>
      <point x="832" y="672" type="line"/>
      <point x="832" y="656" type="line"/>
    </contour>
    <contour>
      <point x="224" y="656" type="line"/>
      <point x="224" y="640" type="line"/>
      <point x="64" y="640" type="line"/>
      <point x="64" y="624" type="line"/>
      <point x="256" y="624" type="line"/>
      <point x="256" y="640" type="line"/>
      <point x="240" y="640" type="line"/>
      <point x="240" y="656" type="line"/>
    </contour>
    <contour>
      <point x="608" y="640" type="line"/>
      <point x="608" y="656" type="line"/>
      <point x="592" y="656" type="line"/>
      <point x="592" y="640" type="line"/>
    </contour>
    <contour>
      <point x="816" y="656" type="line"/>
      <point x="800" y="656" type="line"/>
      <point x="800" y="640" type="line"/>
      <point x="784" y="640" type="line"/>
      <point x="784" y="624" type="line"/>
      <point x="960" y="624" type="line"/>
      <point x="960" y="640" type="line"/>
      <point x="816" y="640" type="line"/>
    </contour>
    <contour>
      <point x="239" y="464" type="line"/>
      <point x="224" y="464" type="line"/>
      <point x="224" y="448" type="line"/>
      <point x="240" y="448" type="line"/>
      <point x="240" y="464" type="line"/>
      <point x="256" y="464" type="line"/>
      <point x="256" y="480" type="line"/>
      <point x="239" y="480" type="line"/>
    </contour>
    <contour>
      <point x="800" y="464" type="line"/>
      <point x="800" y="448" type="line"/>
      <point x="816" y="448" type="line"/>
      <point x="816" y="464" type="line"/>
      <point x="960" y="464" type="line"/>
      <point x="960" y="480" type="line"/>
      <point x="784" y="480" type="line"/>
      <point x="784" y="464" type="line"/>
    </contour>
    <contour>
      <point x="608" y="448" type="line"/>
      <point x="608" y="464" type="line"/>
      <point x="592" y="464" type="line"/>
      <point x="592" y="448" type="line"/>
    </contour>
    <contour>
      <point x="416" y="448" type="line"/>
      <point x="400" y="448" type="line"/>
      <point x="400" y="432" type="line"/>
      <point x="417" y="432" type="line"/>
      <point x="417" y="448" type="line"/>
      <point x="432" y="448" type="line"/>
      <point x="432" y="320" type="line"/>
      <point x="448" y="320" type="line"/>
      <point x="448" y="464" type="line"/>
      <point x="416" y="464" type="line"/>
    </contour>
    <contour>
      <point x="192" y="448" type="line"/>
      <point x="192" y="432" type="line"/>
      <point x="208" y="432" type="line"/>
      <point x="208" y="448" type="line"/>
    </contour>
    <contour>
      <point x="640" y="432" type="line"/>
      <point x="640" y="448" type="line"/>
      <point x="624" y="448" type="line"/>
      <point x="624" y="432" type="line"/>
    </contour>
    <contour>
      <point x="832" y="448" type="line"/>
      <point x="832" y="432" type="line"/>
      <point x="848" y="432" type="line"/>
      <point x="848" y="448" type="line"/>
    </contour>
    <contour>
      <point x="384" y="416" type="line"/>
      <point x="384" y="432" type="line"/>
      <point x="368" y="432" type="line"/>
      <point x="368" y="416" type="line"/>
    </contour>
    <contour>
      <point x="160" y="432" type="line"/>
      <point x="160" y="416" type="line"/>
      <point x="176" y="416" type="line"/>
      <point x="176" y="432" type="line"/>
    </contour>
    <contour>
      <point x="672" y="416" type="line"/>
      <point x="672" y="432" type="line"/>
      <point x="656" y="432" type="line"/>
      <point x="656" y="416" type="line"/>
    </contour>
    <contour>
      <point x="880" y="416" type="line"/>
      <point x="880" y="432" type="line"/>
      <point x="864" y="432" type="line"/>
      <point x="864" y="416" type="line"/>
    </contour>
    <contour>
      <point x="352" y="400" type="line"/>
      <point x="352" y="416" type="line"/>
      <point x="336" y="416" type="line"/>
      <point x="336" y="400" type="line"/>
    </contour>
    <contour>
      <point x="144" y="400" type="line"/>
      <point x="144" y="416" type="line"/>
      <point x="128" y="416" type="line"/>
      <point x="128" y="400" type="line"/>
    </contour>
    <contour>
      <point x="704" y="400" type="line"/>
      <point x="704" y="416" type="line"/>
      <point x="688" y="416" type="line"/>
      <point x="688" y="400" type="line"/>
    </contour>
    <contour>
      <point x="912" y="400" type="line"/>
      <point x="912" y="416" type="line"/>
      <point x="896" y="416" type="line"/>
      <point x="896" y="400" type="line"/>
    </contour>
    <contour>
      <point x="1616" y="400" type="line"/>
      <point x="1600" y="400" type="line"/>
      <point x="1600" y="432" type="line"/>
      <point x="1584" y="432" type="line"/>
      <point x="1584" y="448" type="line"/>
      <point x="1600" y="448" type="line"/>
      <point x="1600" y="464" type="line"/>
      <point x="1616" y="464" type="line"/>
      <point x="1616" y="480" type="line"/>
      <point x="1632" y="480" type="line"/>
      <point x="1632" y="464" type="line"/>
      <point x="1648" y="464" type="line"/>
      <point x="1648" y="448" type="line"/>
      <point x="1664" y="448" type="line"/>
      <point x="1664" y="432" type="line"/>
      <point x="1648" y="432" type="line"/>
      <point x="1648" y="400" type="line"/>
      <point x="1632" y="400" type="line"/>
      <point x="1632" y="416" type="line"/>
      <point x="1616" y="416" type="line"/>
    </contour>
    <contour>
      <point x="1617" y="384" type="line"/>
      <point x="1617" y="400" type="line"/>
      <point x="1631" y="400" type="line"/>
      <point x="1631" y="384" type="line"/>
      <point x="1649" y="384" type="line"/>
      <point x="1649" y="400" type="line"/>
      <point x="1664" y="400" type="line"/>
      <point x="1664" y="416" type="line"/>
      <point x="1680" y="416" type="line"/>
      <point x="1680" y="448" type="line"/>
      <point x="1665" y="448" type="line"/>
      <point x="1665" y="480" type="line"/>
      <point x="1633" y="480" type="line"/>
      <point x="1633" y="496" type="line"/>
      <point x="1615" y="496" type="line"/>
      <point x="1615" y="480" type="line"/>
      <point x="1583" y="480" type="line"/>
      <point x="1583" y="448" type="line"/>
      <point x="1568" y="448" type="line"/>
      <point x="1568" y="416" type="line"/>
      <point x="1584" y="416" type="line"/>
      <point x="1584" y="400" type="line"/>
      <point x="1599" y="400" type="line"/>
      <point x="1599" y="384" type="line"/>
    </contour>
    <contour>
      <point x="320" y="384" type="line"/>
      <point x="320" y="400" type="line"/>
      <point x="304" y="400" type="line"/>
      <point x="304" y="384" type="line"/>
    </contour>
    <contour>
      <point x="112" y="384" type="line"/>
      <point x="112" y="400" type="line"/>
      <point x="96" y="400" type="line"/>
      <point x="96" y="384" type="line"/>
    </contour>
    <contour>
      <point x="736" y="384" type="line"/>
      <point x="736" y="400" type="line"/>
      <point x="720" y="400" type="line"/>
      <point x="720" y="384" type="line"/>
    </contour>
    <contour>
      <point x="944" y="384" type="line"/>
      <point x="944" y="368" type="line"/>
      <point x="960" y="368" type="line"/>
      <point x="960" y="384" type="line"/>
      <point x="945" y="384" type="line"/>
      <point x="945" y="400" type="line"/>
      <point x="928" y="400" type="line"/>
      <point x="928" y="384" type="line"/>
    </contour>
    <contour>
      <point x="288" y="368" type="line"/>
      <point x="288" y="384" type="line"/>
      <point x="272" y="384" type="line"/>
      <point x="272" y="368" type="line"/>
    </contour>
    <contour>
      <point x="80" y="368" type="line"/>
      <point x="80" y="384" type="line"/>
      <point x="64" y="384" type="line"/>
      <point x="64" y="368" type="line"/>
    </contour>
    <contour>
      <point x="768" y="368" type="line"/>
      <point x="768" y="384" type="line"/>
      <point x="752" y="384" type="line"/>
      <point x="752" y="368" type="line"/>
    </contour>
    <contour>
      <point x="256" y="352" type="line"/>
      <point x="256" y="368" type="line"/>
      <point x="240" y="368" type="line"/>
      <point x="240" y="352" type="line"/>
    </contour>
    <contour>
      <point x="800" y="352" type="line"/>
      <point x="800" y="368" type="line"/>
      <point x="784" y="368" type="line"/>
      <point x="784" y="352" type="line"/>
    </contour>
    <contour>
      <point x="224" y="336" type="line"/>
      <point x="224" y="352" type="line"/>
      <point x="208" y="352" type="line"/>
      <point x="208" y="336" type="line"/>
    </contour>
    <contour>
      <point x="832" y="336" type="line"/>
      <point x="832" y="352" type="line"/>
      <point x="816" y="352" type="line"/>
      <point x="816" y="336" type="line"/>
    </contour>
    <contour>
      <point x="1184" y="336" type="line"/>
      <point x="1168" y="336" type="line"/>
      <point x="1168" y="368" type="line"/>
      <point x="1152" y="368" type="line"/>
      <point x="1152" y="384" type="line"/>
      <point x="1168" y="384" type="line"/>
      <point x="1168" y="400" type="line"/>
      <point x="1184" y="400" type="line"/>
      <point x="1184" y="416" type="line"/>
      <point x="1200" y="416" type="line"/>
      <point x="1200" y="400" type="line"/>
      <point x="1216" y="400" type="line"/>
      <point x="1216" y="384" type="line"/>
      <point x="1232" y="384" type="line"/>
      <point x="1232" y="368" type="line"/>
      <point x="1216" y="368" type="line"/>
      <point x="1216" y="336" type="line"/>
      <point x="1200" y="336" type="line"/>
      <point x="1200" y="352" type="line"/>
      <point x="1184" y="352" type="line"/>
    </contour>
    <contour>
      <point x="1185" y="320" type="line"/>
      <point x="1185" y="336" type="line"/>
      <point x="1199" y="336" type="line"/>
      <point x="1199" y="320" type="line"/>
      <point x="1217" y="320" type="line"/>
      <point x="1217" y="336" type="line"/>
      <point x="1232" y="336" type="line"/>
      <point x="1232" y="352" type="line"/>
      <point x="1248" y="352" type="line"/>
      <point x="1248" y="384" type="line"/>
      <point x="1233" y="384" type="line"/>
      <point x="1233" y="416" type="line"/>
      <point x="1201" y="416" type="line"/>
      <point x="1201" y="432" type="line"/>
      <point x="1183" y="432" type="line"/>
      <point x="1183" y="416" type="line"/>
      <point x="1151" y="416" type="line"/>
      <point x="1151" y="384" type="line"/>
      <point x="1136" y="384" type="line"/>
      <point x="1136" y="352" type="line"/>
      <point x="1152" y="352" type="line"/>
      <point x="1152" y="336" type="line"/>
      <point x="1167" y="336" type="line"/>
      <point x="1167" y="320" type="line"/>
    </contour>
    <contour>
      <point x="192" y="320" type="line"/>
      <point x="192" y="336" type="line"/>
      <point x="176" y="336" type="line"/>
      <point x="176" y="320" type="line"/>
    </contour>
    <contour>
      <point x="864" y="320" type="line"/>
      <point x="864" y="336" type="line"/>
      <point x="848" y="336" type="line"/>
      <point x="848" y="320" type="line"/>
    </contour>
    <contour>
      <point x="1521" y="240" type="line"/>
      <point x="1521" y="256" type="line"/>
      <point x="1537" y="256" type="line"/>
      <point x="1537" y="272" type="line"/>
      <point x="1552" y="272" type="line"/>
      <point x="1552" y="288" type="line"/>
      <point x="1537" y="288" type="line"/>
      <point x="1537" y="304" type="line"/>
      <point x="1521" y="304" type="line"/>
      <point x="1521" y="320" type="line"/>
      <point x="1503" y="320" type="line"/>
      <point x="1503" y="304" type="line"/>
      <point x="1487" y="304" type="line"/>
      <point x="1487" y="288" type="line"/>
      <point x="1472" y="288" type="line"/>
      <point x="1472" y="272" type="line"/>
      <point x="1487" y="272" type="line"/>
      <point x="1487" y="256" type="line"/>
      <point x="1503" y="256" type="line"/>
      <point x="1503" y="240" type="line"/>
    </contour>
    <contour>
      <point x="1504" y="256" type="line"/>
      <point x="1504" y="272" type="line"/>
      <point x="1488" y="272" type="line"/>
      <point x="1488" y="288" type="line"/>
      <point x="1504" y="288" type="line"/>
      <point x="1504" y="304" type="line"/>
      <point x="1520" y="304" type="line"/>
      <point x="1520" y="288" type="line"/>
      <point x="1536" y="288" type="line"/>
      <point x="1536" y="272" type="line"/>
      <point x="1520" y="272" type="line"/>
      <point x="1520" y="256" type="line"/>
    </contour>
    <contour>
      <point x="512" y="208" type="line"/>
      <point x="512" y="192" type="line"/>
      <point x="528" y="192" type="line"/>
      <point x="528" y="208" type="line"/>
    </contour>
    <contour>
      <point x="447" y="96" type="line"/>
      <point x="432" y="96" type="line"/>
      <point x="432" y="80" type="line"/>
      <point x="448" y="80" type="line"/>
      <point x="448" y="96" type="line"/>
      <point x="464" y="96" type="line"/>
      <point x="464" y="128" type="line"/>
      <point x="448" y="128" type="line"/>
      <point x="448" y="144" type="line"/>
      <point x="464" y="144" type="line"/>
      <point x="464" y="160" type="line"/>
      <point x="432" y="160" type="line"/>
      <point x="432" y="176" type="line"/>
      <point x="416" y="176" type="line"/>
      <point x="416" y="144" type="line"/>
      <point x="432" y="144" type="line"/>
      <point x="432" y="128" type="line"/>
      <point x="447" y="128" type="line"/>
    </contour>
    <contour>
      <point x="592" y="160" type="line"/>
      <point x="576" y="160" type="line"/>
      <point x="576" y="144" type="line"/>
      <point x="608" y="144" type="line"/>
      <point x="608" y="176" type="line"/>
      <point x="592" y="176" type="line"/>
    </contour>
    <contour>
      <point x="496" y="176" type="line"/>
      <point x="496" y="160" type="line"/>
      <point x="512" y="160" type="line"/>
      <point x="512" y="176" type="line"/>
    </contour>
    <contour>
      <point x="528" y="144" type="line"/>
      <point x="544" y="144" type="line"/>
      <point x="544" y="176" type="line"/>
      <point x="528" y="176" type="line"/>
    </contour>
    <contour>
      <point x="576" y="128" type="line"/>
      <point x="576" y="112" type="line"/>
      <point x="592" y="112" type="line"/>
      <point x="592" y="128" type="line"/>
    </contour>
    <contour>
      <point x="576" y="96" type="line"/>
      <point x="576" y="80" type="line"/>
      <point x="592" y="80" type="line"/>
      <point x="592" y="96" type="line"/>
    </contour>
    <contour>
      <point x="624" y="80" type="line"/>
      <point x="608" y="80" type="line"/>
      <point x="608" y="64" type="line"/>
      <point x="576" y="64" type="line"/>
      <point x="576" y="48" type="line"/>
      <point x="640" y="48" type="line"/>
      <point x="640" y="64" type="line"/>
      <point x="624" y="64" type="line"/>
    </contour>
    <contour>
      <point x="463" y="48" type="line"/>
      <point x="463" y="16" type="line"/>
      <point x="480" y="16" type="line"/>
      <point x="480" y="48" type="line"/>
      <point x="464" y="48" type="line"/>
      <point x="464" y="64" type="line"/>
      <point x="400" y="64" type="line"/>
      <point x="400" y="48" type="line"/>
    </contour>
    <contour>
      <point x="560" y="-16" type="line"/>
      <point x="560" y="-32" type="line"/>
      <point x="576" y="-32" type="line"/>
      <point x="576" y="16" type="line"/>
      <point x="560" y="16" type="line"/>
      <point x="560" y="0" type="line"/>
      <point x="544" y="0" type="line"/>
      <point x="544" y="16" type="line"/>
      <point x="528" y="16" type="line"/>
      <point x="528" y="32" type="line"/>
      <point x="496" y="32" type="line"/>
      <point x="496" y="16" type="line"/>
      <point x="527" y="16" type="line"/>
      <point x="527" y="0" type="line"/>
      <point x="543" y="0" type="line"/>
      <point x="543" y="-16" type="line"/>
    </contour>
    <contour>
      <point x="464" y="-32" type="line"/>
      <point x="464" y="0" type="line"/>
      <point x="448" y="0" type="line"/>
      <point x="448" y="-32" type="line"/>
    </contour>
    <contour>
      <point x="1408" y="-32" type="line"/>
      <point x="1392" y="-32" type="line"/>
      <point x="1392" y="0" type="line"/>
      <point x="1376" y="0" type="line"/>
      <point x="1376" y="16" type="line"/>
      <point x="1392" y="16" type="line"/>
      <point x="1392" y="32" type="line"/>
      <point x="1408" y="32" type="line"/>
      <point x="1408" y="48" type="line"/>
      <point x="1424" y="48" type="line"/>
      <point x="1424" y="32" type="line"/>
      <point x="1440" y="32" type="line"/>
      <point x="1440" y="16" type="line"/>
      <point x="1456" y="16" type="line"/>
      <point x="1456" y="0" type="line"/>
      <point x="1440" y="0" type="line"/>
      <point x="1440" y="-32" type="line"/>
      <point x="1424" y="-32" type="line"/>
      <point x="1424" y="-16" type="line"/>
      <point x="1408" y="-16" type="line"/>
    </contour>
    <contour>
      <point x="1409" y="-48" type="line"/>
      <point x="1409" y="-32" type="line"/>
      <point x="1423" y="-32" type="line"/>
      <point x="1423" y="-48" type="line"/>
      <point x="1441" y="-48" type="line"/>
      <point x="1441" y="-32" type="line"/>
      <point x="1456" y="-32" type="line"/>
      <point x="1456" y="-16" type="line"/>
      <point x="1472" y="-16" type="line"/>
      <point x="1472" y="17" type="line"/>
      <point x="1456" y="17" type="line"/>
      <point x="1456" y="48" type="line"/>
      <point x="1425" y="48" type="line"/>
      <point x="1425" y="64" type="line"/>
      <point x="1407" y="64" type="line"/>
      <point x="1407" y="48" type="line"/>
      <point x="1376" y="48" type="line"/>
      <point x="1376" y="17" type="line"/>
      <point x="1360" y="17" type="line"/>
      <point x="1360" y="-16" type="line"/>
      <point x="1376" y="-16" type="line"/>
      <point x="1376" y="-32" type="line"/>
      <point x="1391" y="-32" type="line"/>
      <point x="1391" y="-48" type="line"/>
    </contour>
  </outline>
</glyph>
<glyph name="Australien.06" format="2">
  <advance width="1936"/>
  <outline>
    <contour>
      <point x="864" y="784" type="line"/>
      <point x="864" y="768" type="line"/>
      <point x="880" y="768" type="line"/>
      <point x="880" y="784" type="line"/>
    </contour>
    <contour>
      <point x="160" y="784" type="line"/>
      <point x="160" y="768" type="line"/>
      <point x="176" y="768" type="line"/>
      <point x="176" y="784" type="line"/>
    </contour>
    <contour>
      <point x="192" y="768" type="line"/>
      <point x="192" y="752" type="line"/>
      <point x="208" y="752" type="line"/>
      <point x="208" y="768" type="line"/>
    </contour>
    <contour>
      <point x="832" y="768" type="line"/>
      <point x="832" y="752" type="line"/>
      <point x="848" y="752" type="line"/>
      <point x="848" y="768" type="line"/>
    </contour>
    <contour>
      <point x="224" y="752" type="line"/>
      <point x="224" y="736" type="line"/>
      <point x="240" y="736" type="line"/>
      <point x="240" y="752" type="line"/>
    </contour>
    <contour>
      <point x="800" y="752" type="line"/>
      <point x="800" y="736" type="line"/>
      <point x="816" y="736" type="line"/>
      <point x="816" y="752" type="line"/>
    </contour>
    <contour>
      <point x="96" y="720" type="line"/>
      <point x="96" y="736" type="line"/>
      <point x="80" y="736" type="line"/>
      <point x="80" y="720" type="line"/>
    </contour>
    <contour>
      <point x="944" y="720" type="line"/>
      <point x="960" y="720" type="line"/>
      <point x="960" y="736" type="line"/>
      <point x="944" y="736" type="line"/>
    </contour>
    <contour>
      <point x="768" y="736" type="line"/>
      <point x="768" y="720" type="line"/>
      <point x="784" y="720" type="line"/>
      <point x="784" y="736" type="line"/>
    </contour>
    <contour>
      <point x="128" y="704" type="line"/>
      <point x="128" y="720" type="line"/>
      <point x="112" y="720" type="line"/>
      <point x="112" y="704" type="line"/>
    </contour>
    <contour>
      <point x="304" y="704" type="line"/>
      <point x="304" y="720" type="line"/>
      <point x="288" y="720" type="line"/>
      <point x="288" y="704" type="line"/>
    </contour>
    <contour>
      <point x="928" y="704" type="line"/>
      <point x="928" y="720" type="line"/>
      <point x="912" y="720" type="line"/>
      <point x="912" y="704" type="line"/>
    </contour>
    <contour>
      <point x="752" y="704" type="line"/>
      <point x="752" y="720" type="line"/>
      <point x="736" y="720" type="line"/>
      <point x="736" y="704" type="line"/>
    </contour>
    <contour>
      <point x="144" y="704" type="line"/>
      <point x="144" y="688" type="line"/>
      <point x="160" y="688" type="line"/>
      <point x="160" y="704" type="line"/>
    </contour>
    <contour>
      <point x="336" y="688" type="line"/>
      <point x="336" y="704" type="line"/>
      <point x="320" y="704" type="line"/>
      <point x="320" y="688" type="line"/>
    </contour>
    <contour>
      <point x="896" y="688" type="line"/>
      <point x="896" y="704" type="line"/>
      <point x="880" y="704" type="line"/>
      <point x="880" y="688" type="line"/>
    </contour>
    <contour>
      <point x="720" y="688" type="line"/>
      <point x="720" y="704" type="line"/>
      <point x="704" y="704" type="line"/>
      <point x="704" y="688" type="line"/>
    </contour>
    <contour>
      <point x="192" y="672" type="line"/>
      <point x="192" y="688" type="line"/>
      <point x="176" y="688" type="line"/>
      <point x="176" y="672" type="line"/>
    </contour>
    <contour>
      <point x="368" y="672" type="line"/>
      <point x="368" y="688" type="line"/>
      <point x="352" y="688" type="line"/>
      <point x="352" y="672" type="line"/>
    </contour>
    <contour>
      <point x="864" y="672" type="line"/>
      <point x="864" y="688" type="line"/>
      <point x="848" y="688" type="line"/>
      <point x="848" y="672" type="line"/>
    </contour>
    <contour>
      <point x="688" y="672" type="line"/>
      <point x="688" y="688" type="line"/>
      <point x="672" y="688" type="line"/>
      <point x="672" y="672" type="line"/>
    </contour>
    <contour>
      <point x="224" y="656" type="line"/>
      <point x="224" y="672" type="line"/>
      <point x="208" y="672" type="line"/>
      <point x="208" y="656" type="line"/>
    </contour>
    <contour>
      <point x="400" y="656" type="line"/>
      <point x="400" y="672" type="line"/>
      <point x="384" y="672" type="line"/>
      <point x="384" y="656" type="line"/>
    </contour>
    <contour>
      <point x="832" y="656" type="line"/>
      <point x="832" y="672" type="line"/>
      <point x="816" y="672" type="line"/>
      <point x="816" y="656" type="line"/>
    </contour>
    <contour>
      <point x="656" y="656" type="line"/>
      <point x="656" y="672" type="line"/>
      <point x="640" y="672" type="line"/>
      <point x="640" y="656" type="line"/>
    </contour>
    <contour>
      <point x="255" y="640" type="line"/>
      <point x="255" y="624" type="line"/>
      <point x="272" y="624" type="line"/>
      <point x="272" y="640" type="line"/>
      <point x="256" y="640" type="line"/>
      <point x="256" y="656" type="line"/>
      <point x="240" y="656" type="line"/>
      <point x="240" y="640" type="line"/>
    </contour>
    <contour>
      <point x="784" y="640" type="line"/>
      <point x="768" y="640" type="line"/>
      <point x="768" y="624" type="line"/>
      <point x="785" y="624" type="line"/>
      <point x="785" y="640" type="line"/>
      <point x="800" y="640" type="line"/>
      <point x="800" y="656" type="line"/>
      <point x="784" y="656" type="line"/>
    </contour>
    <contour>
      <point x="624" y="640" type="line"/>
      <point x="624" y="656" type="line"/>
      <point x="608" y="656" type="line"/>
      <point x="608" y="640" type="line"/>
    </contour>
    <contour>
      <point x="784" y="464" type="line"/>
      <point x="784" y="448" type="line"/>
      <point x="800" y="448" type="line"/>
      <point x="800" y="464" type="line"/>
      <point x="785" y="464" type="line"/>
      <point x="785" y="480" type="line"/>
      <point x="768" y="480" type="line"/>
      <point x="768" y="464" type="line"/>
    </contour>
    <contour>
      <point x="624" y="448" type="line"/>
      <point x="624" y="464" type="line"/>
      <point x="608" y="464" type="line"/>
      <point x="608" y="448" type="line"/>
    </contour>
    <contour>
      <point x="816" y="448" type="line"/>
      <point x="816" y="432" type="line"/>
      <point x="832" y="432" type="line"/>
      <point x="832" y="448" type="line"/>
    </contour>
    <contour>
      <point x="656" y="432" type="line"/>
      <point x="656" y="448" type="line"/>
      <point x="640" y="448" type="line"/>
      <point x="640" y="432" type="line"/>
    </contour>
    <contour>
      <point x="208" y="448" type="line"/>
      <point x="208" y="432" type="line"/>
      <point x="224" y="432" type="line"/>
      <point x="224" y="448" type="line"/>
    </contour>
    <contour>
      <point x="400" y="432" type="line"/>
      <point x="400" y="448" type="line"/>
      <point x="384" y="448" type="line"/>
      <point x="384" y="432" type="line"/>
    </contour>
    <contour>
      <point x="864" y="416" type="line"/>
      <point x="864" y="432" type="line"/>
      <point x="848" y="432" type="line"/>
      <point x="848" y="416" type="line"/>
    </contour>
    <contour>
      <point x="688" y="416" type="line"/>
      <point x="688" y="432" type="line"/>
      <point x="672" y="432" type="line"/>
      <point x="672" y="416" type="line"/>
    </contour>
    <contour>
      <point x="176" y="432" type="line"/>
      <point x="176" y="416" type="line"/>
      <point x="192" y="416" type="line"/>
      <point x="192" y="432" type="line"/>
    </contour>
    <contour>
      <point x="368" y="416" type="line"/>
      <point x="368" y="432" type="line"/>
      <point x="352" y="432" type="line"/>
      <point x="352" y="416" type="line"/>
    </contour>
    <contour>
      <point x="896" y="400" type="line"/>
      <point x="896" y="416" type="line"/>
      <point x="880" y="416" type="line"/>
      <point x="880" y="400" type="line"/>
    </contour>
    <contour>
      <point x="720" y="400" type="line"/>
      <point x="720" y="416" type="line"/>
      <point x="704" y="416" type="line"/>
      <point x="704" y="400" type="line"/>
    </contour>
    <contour>
      <point x="144" y="416" type="line"/>
      <point x="144" y="400" type="line"/>
      <point x="160" y="400" type="line"/>
      <point x="160" y="416" type="line"/>
    </contour>
    <contour>
      <point x="336" y="400" type="line"/>
      <point x="336" y="416" type="line"/>
      <point x="320" y="416" type="line"/>
      <point x="320" y="400" type="line"/>
    </contour>
    <contour>
      <point x="928" y="384" type="line"/>
      <point x="928" y="400" type="line"/>
      <point x="912" y="400" type="line"/>
      <point x="912" y="384" type="line"/>
    </contour>
    <contour>
      <point x="752" y="384" type="line"/>
      <point x="752" y="400" type="line"/>
      <point x="736" y="400" type="line"/>
      <point x="736" y="384" type="line"/>
    </contour>
    <contour>
      <point x="128" y="384" type="line"/>
      <point x="128" y="400" type="line"/>
      <point x="112" y="400" type="line"/>
      <point x="112" y="384" type="line"/>
    </contour>
    <contour>
      <point x="304" y="384" type="line"/>
      <point x="304" y="400" type="line"/>
      <point x="288" y="400" type="line"/>
      <point x="288" y="384" type="line"/>
    </contour>
    <contour>
      <point x="960" y="368" type="line"/>
      <point x="960" y="384" type="line"/>
      <point x="944" y="384" type="line"/>
      <point x="944" y="368" type="line"/>
    </contour>
    <contour>
      <point x="784" y="368" type="line"/>
      <point x="784" y="384" type="line"/>
      <point x="768" y="384" type="line"/>
      <point x="768" y="368" type="line"/>
    </contour>
    <contour>
      <point x="96" y="368" type="line"/>
      <point x="96" y="384" type="line"/>
      <point x="80" y="384" type="line"/>
      <point x="80" y="368" type="line"/>
    </contour>
    <contour>
      <point x="272" y="368" type="line"/>
      <point x="272" y="384" type="line"/>
      <point x="256" y="384" type="line"/>
      <point x="256" y="368" type="line"/>
    </contour>
    <contour>
      <point x="816" y="352" type="line"/>
      <point x="816" y="368" type="line"/>
      <point x="800" y="368" type="line"/>
      <point x="800" y="352" type="line"/>
    </contour>
    <contour>
      <point x="240" y="352" type="line"/>
      <point x="240" y="368" type="line"/>
      <point x="224" y="368" type="line"/>
      <point x="224" y="352" type="line"/>
    </contour>
    <contour>
      <point x="848" y="336" type="line"/>
      <point x="848" y="352" type="line"/>
      <point x="832" y="352" type="line"/>
      <point x="832" y="336" type="line"/>
    </contour>
    <contour>
      <point x="208" y="336" type="line"/>
      <point x="208" y="352" type="line"/>
      <point x="192" y="352" type="line"/>
      <point x="192" y="336" type="line"/>
    </contour>
    <contour>
      <point x="176" y="320" type="line"/>
      <point x="176" y="336" type="line"/>
      <point x="160" y="336" type="line"/>
      <point x="160" y="320" type="line"/>
    </contour>
  </outline>
</glyph>
<glyph name="Algerien.05" format="1">
  <advance width="1520"/>
  <outline>
    <contour>
      <point x="720" y="544" type="line"/>
      <point x="768" y="544" type="line"/>
      <point x="768" y="560" type="line"/>
      <point x="720" y="560" type="line"/>
    </contour>
    <contour>
      <point x="656" y="544" type="line"/>
      <point x="656" y="528" type="line"/>
      <point x="672" y="528" type="line"/>
      <point x="672" y="544" type="line"/>
    </contour>
    <contour>
      <point x="575" y="464" type="line"/>
      <point x="559" y="464" type="line"/>
      <point x="559" y="448" type="line"/>
      <point x="576" y="448" type="line"/>
      <point x="576" y="464" type="line"/>
      <point x="592" y="464" type="line"/>
      <point x="592" y="480" type="line"/>
      <point x="608" y="480" type="line"/>
      <point x="608" y="496" type="line"/>
      <point x="624" y="496" type="line"/>
      <point x="624" y="512" type="line"/>
      <point x="640" y="512" type="line"/>
      <point x="640" y="528" type="line"/>
      <point x="623" y="528" type="line"/>
      <point x="623" y="512" type="line"/>
      <point x="607" y="512" type="line"/>
      <point x="607" y="496" type="line"/>
      <point x="591" y="496" type="line"/>
      <point x="591" y="480" type="line"/>
      <point x="575" y="480" type="line"/>
    </contour>
    <contour>
      <point x="656" y="416" type="line"/>
      <point x="640" y="416" type="line"/>
      <point x="640" y="384" type="line"/>
      <point x="657" y="384" type="line"/>
      <point x="657" y="416" type="line"/>
      <point x="673" y="416" type="line"/>
      <point x="673" y="432" type="line"/>
      <point x="689" y="432" type="line"/>
      <point x="689" y="448" type="line"/>
      <point x="705" y="448" type="line"/>
      <point x="705" y="464" type="line"/>
      <point x="721" y="464" type="line"/>
      <point x="721" y="480" type="line"/>
      <point x="752" y="480" type="line"/>
      <point x="752" y="496" type="line"/>
      <point x="720" y="496" type="line"/>
      <point x="720" y="480" type="line"/>
      <point x="704" y="480" type="line"/>
      <point x="704" y="464" type="line"/>
      <point x="688" y="464" type="line"/>
      <point x="688" y="448" type="line"/>
      <point x="672" y="448" type="line"/>
      <point x="672" y="432" type="line"/>
      <point x="656" y="432" type="line"/>
    </contour>
    <contour>
      <point x="544" y="432" type="line"/>
      <point x="544" y="416" type="line"/>
      <point x="560" y="416" type="line"/>
      <point x="560" y="432" type="line"/>
    </contour>
    <contour>
      <point x="528" y="400" type="line"/>
      <point x="528" y="368" type="line"/>
      <point x="544" y="368" type="line"/>
      <point x="544" y="400" type="line"/>
    </contour>
    <contour>
      <point x="624" y="368" type="line"/>
      <point x="624" y="272" type="line"/>
      <point x="640" y="272" type="line"/>
      <point x="640" y="368" type="line"/>
    </contour>
    <contour>
      <point x="528" y="272" type="line"/>
      <point x="528" y="256" type="line"/>
      <point x="544" y="256" type="line"/>
      <point x="544" y="272" type="line"/>
    </contour>
    <contour>
      <point x="768" y="160" type="line"/>
      <point x="721" y="160" type="line"/>
      <point x="721" y="176" type="line"/>
      <point x="705" y="176" type="line"/>
      <point x="705" y="192" type="line"/>
      <point x="689" y="192" type="line"/>
      <point x="689" y="208" type="line"/>
      <point x="673" y="208" type="line"/>
      <point x="673" y="224" type="line"/>
      <point x="657" y="224" type="line"/>
      <point x="657" y="240" type="line"/>
      <point x="640" y="240" type="line"/>
      <point x="640" y="224" type="line"/>
      <point x="656" y="224" type="line"/>
      <point x="656" y="208" type="line"/>
      <point x="672" y="208" type="line"/>
      <point x="672" y="192" type="line"/>
      <point x="688" y="192" type="line"/>
      <point x="688" y="176" type="line"/>
      <point x="704" y="176" type="line"/>
      <point x="704" y="160" type="line"/>
      <point x="720" y="160" type="line"/>
      <point x="720" y="144" type="line"/>
      <point x="768" y="144" type="line"/>
    </contour>
    <contour>
      <point x="607" y="144" type="line"/>
      <point x="607" y="128" type="line"/>
      <point x="624" y="128" type="line"/>
      <point x="624" y="144" type="line"/>
      <point x="608" y="144" type="line"/>
      <point x="608" y="160" type="line"/>
      <point x="592" y="160" type="line"/>
      <point x="592" y="176" type="line"/>
      <point x="576" y="176" type="line"/>
      <point x="576" y="208" type="line"/>
      <point x="560" y="208" type="line"/>
      <point x="560" y="240" type="line"/>
      <point x="544" y="240" type="line"/>
      <point x="544" y="208" type="line"/>
      <point x="559" y="208" type="line"/>
      <point x="559" y="176" type="line"/>
      <point x="575" y="176" type="line"/>
      <point x="575" y="160" type="line"/>
      <point x="591" y="160" type="line"/>
      <point x="591" y="144" type="line"/>
    </contour>
    <contour>
      <point x="656" y="112" type="line"/>
      <point x="656" y="128" type="line"/>
      <point x="640" y="128" type="line"/>
      <point x="640" y="112" type="line"/>
    </contour>
    <contour>
      <point x="704" y="96" type="line"/>
      <point x="704" y="112" type="line"/>
      <point x="672" y="112" type="line"/>
      <point x="672" y="96" type="line"/>
    </contour>
    <contour>
      <point x="768" y="80" type="line"/>
      <point x="768" y="96" type="line"/>
      <point x="720" y="96" type="line"/>
      <point x="720" y="80" type="line"/>
    </contour>
  </outline>
</glyph>
<glyph name="Algerien.06" format="1">
  <advance width="1520"/>
  <outline>
    <contour>
      <point x="768" y="560" type="line"/>
      <point x="768" y="544" type="line"/>
      <point x="816" y="544" type="line"/>
      <point x="816" y="560" type="line"/>
    </contour>
    <contour>
      <point x="832" y="544" type="line"/>
      <point x="832" y="528" type="line"/>
      <point x="864" y="528" type="line"/>
      <point x="864" y="544" type="line"/>
    </contour>
    <contour>
      <point x="896" y="512" type="line"/>
      <point x="896" y="496" type="line"/>
      <point x="912" y="496" type="line"/>
      <point x="912" y="512" type="line"/>
      <point x="897" y="512" type="line"/>
      <point x="897" y="528" type="line"/>
      <point x="880" y="528" type="line"/>
      <point x="880" y="512" type="line"/>
    </contour>
    <contour>
      <point x="768" y="512" type="line"/>
      <point x="768" y="496" type="line"/>
      <point x="848" y="496" type="line"/>
      <point x="848" y="512" type="line"/>
    </contour>
    <contour>
      <point x="960" y="432" type="line"/>
      <point x="960" y="464" type="line"/>
      <point x="928" y="464" type="line"/>
      <point x="928" y="448" type="line"/>
      <point x="944" y="448" type="line"/>
      <point x="944" y="432" type="line"/>
    </contour>
    <contour>
      <point x="863" y="400" type="line"/>
      <point x="848" y="400" type="line"/>
      <point x="848" y="384" type="line"/>
      <point x="864" y="384" type="line"/>
      <point x="864" y="400" type="line"/>
      <point x="880" y="400" type="line"/>
      <point x="880" y="416" type="line"/>
      <point x="896" y="416" type="line"/>
      <point x="896" y="432" type="line"/>
      <point x="879" y="432" type="line"/>
      <point x="879" y="416" type="line"/>
      <point x="863" y="416" type="line"/>
    </contour>
    <contour>
      <point x="768" y="400" type="line"/>
      <point x="768" y="384" type="line"/>
      <point x="784" y="384" type="line"/>
      <point x="784" y="400" type="line"/>
    </contour>
    <contour>
      <point x="800" y="384" type="line"/>
      <point x="800" y="368" type="line"/>
      <point x="816" y="368" type="line"/>
      <point x="816" y="384" type="line"/>
    </contour>
    <contour>
      <point x="799" y="304" type="line"/>
      <point x="784" y="304" type="line"/>
      <point x="784" y="288" type="line"/>
      <point x="800" y="288" type="line"/>
      <point x="800" y="304" type="line"/>
      <point x="816" y="304" type="line"/>
      <point x="816" y="336" type="line"/>
      <point x="800" y="336" type="line"/>
      <point x="800" y="352" type="line"/>
      <point x="784" y="352" type="line"/>
      <point x="784" y="336" type="line"/>
      <point x="799" y="336" type="line"/>
    </contour>
    <contour>
      <point x="912" y="336" type="line"/>
      <point x="912" y="352" type="line"/>
      <point x="896" y="352" type="line"/>
      <point x="896" y="336" type="line"/>
    </contour>
    <contour>
      <point x="960" y="304" type="line"/>
      <point x="960" y="320" type="line"/>
      <point x="976" y="320" type="line"/>
      <point x="976" y="336" type="line"/>
      <point x="944" y="336" type="line"/>
      <point x="944" y="304" type="line"/>
    </contour>
    <contour>
      <point x="895" y="288" type="line"/>
      <point x="880" y="288" type="line"/>
      <point x="880" y="240" type="line"/>
      <point x="864" y="240" type="line"/>
      <point x="864" y="224" type="line"/>
      <point x="880" y="224" type="line"/>
      <point x="880" y="208" type="line"/>
      <point x="896" y="208" type="line"/>
      <point x="896" y="288" type="line"/>
      <point x="912" y="288" type="line"/>
      <point x="912" y="304" type="line"/>
      <point x="895" y="304" type="line"/>
    </contour>
    <contour>
      <point x="816" y="256" type="line"/>
      <point x="816" y="272" type="line"/>
      <point x="800" y="272" type="line"/>
      <point x="800" y="256" type="line"/>
    </contour>
    <contour>
      <point x="896" y="128" type="line"/>
      <point x="880" y="128" type="line"/>
      <point x="880" y="112" type="line"/>
      <point x="897" y="112" type="line"/>
      <point x="897" y="128" type="line"/>
      <point x="913" y="128" type="line"/>
      <point x="913" y="144" type="line"/>
      <point x="928" y="144" type="line"/>
      <point x="928" y="160" type="line"/>
      <point x="944" y="160" type="line"/>
      <point x="944" y="176" type="line"/>
      <point x="960" y="176" type="line"/>
      <point x="960" y="192" type="line"/>
      <point x="928" y="192" type="line"/>
      <point x="928" y="176" type="line"/>
      <point x="912" y="176" type="line"/>
      <point x="912" y="144" type="line"/>
      <point x="896" y="144" type="line"/>
    </contour>
    <contour>
      <point x="848" y="128" type="line"/>
      <point x="848" y="144" type="line"/>
      <point x="784" y="144" type="line"/>
      <point x="784" y="128" type="line"/>
    </contour>
    <contour>
      <point x="864" y="96" type="line"/>
      <point x="864" y="112" type="line"/>
      <point x="848" y="112" type="line"/>
      <point x="848" y="96" type="line"/>
    </contour>
    <contour>
      <point x="816" y="80" type="line"/>
      <point x="816" y="96" type="line"/>
      <point x="768" y="96" type="line"/>
      <point x="768" y="80" type="line"/>
    </contour>
  </outline>
</glyph>
<glyph name="Argentinien.02" format="1">
  <advance width="1616"/>
  <outline>
    <contour>
      <point x="1552" y="479" type="line"/>
      <point x="1552" y="783" type="line"/>
      <point x="64" y="783" type="line"/>
      <point x="64" y="479" type="line"/>
    </contour>
    <contour>
      <point x="1552" y="-145" type="line"/>
      <point x="1552" y="143" type="line"/>
      <point x="64" y="143" type="line"/>
      <point x="64" y="-145" type="line"/>
    </contour>
  </outline>
</glyph>
<glyph name="Argentinien.04" format="1">
  <advance width="1616"/>
  <outline>
    <contour>
      <point x="817" y="240" type="line"/>
      <point x="849" y="240" type="line"/>
      <point x="849" y="256" type="line"/>
      <point x="865" y="256" type="line"/>
      <point x="865" y="272" type="line"/>
      <point x="881" y="272" type="line"/>
      <point x="881" y="304" type="line"/>
      <point x="896" y="304" type="line"/>
      <point x="896" y="320" type="line"/>
      <point x="881" y="320" type="line"/>
      <point x="881" y="352" type="line"/>
      <point x="865" y="352" type="line"/>
      <point x="865" y="368" type="line"/>
      <point x="849" y="368" type="line"/>
      <point x="849" y="384" type="line"/>
      <point x="817" y="384" type="line"/>
      <point x="817" y="400" type="line"/>
      <point x="799" y="400" type="line"/>
      <point x="799" y="384" type="line"/>
      <point x="767" y="384" type="line"/>
      <point x="767" y="368" type="line"/>
      <point x="751" y="368" type="line"/>
      <point x="751" y="352" type="line"/>
      <point x="735" y="352" type="line"/>
      <point x="735" y="320" type="line"/>
      <point x="720" y="320" type="line"/>
      <point x="720" y="304" type="line"/>
      <point x="735" y="304" type="line"/>
      <point x="735" y="272" type="line"/>
      <point x="751" y="272" type="line"/>
      <point x="751" y="256" type="line"/>
      <point x="767" y="256" type="line"/>
      <point x="767" y="240" type="line"/>
      <point x="799" y="240" type="line"/>
      <point x="799" y="224" type="line"/>
      <point x="817" y="224" type="line"/>
    </contour>
    <contour>
      <point x="768" y="320" type="line"/>
      <point x="800" y="320" type="line"/>
      <point x="800" y="336" type="line"/>
      <point x="768" y="336" type="line"/>
    </contour>
    <contour>
      <point x="832" y="272" type="line"/>
      <point x="832" y="288" type="line"/>
      <point x="784" y="288" type="line"/>
      <point x="784" y="272" type="line"/>
    </contour>
    <contour>
      <point x="816" y="240" type="line"/>
      <point x="800" y="240" type="line"/>
      <point x="800" y="256" type="line"/>
      <point x="768" y="256" type="line"/>
      <point x="768" y="272" type="line"/>
      <point x="752" y="272" type="line"/>
      <point x="752" y="304" type="line"/>
      <point x="736" y="304" type="line"/>
      <point x="736" y="320" type="line"/>
      <point x="752" y="320" type="line"/>
      <point x="752" y="352" type="line"/>
      <point x="768" y="352" type="line"/>
      <point x="768" y="368" type="line"/>
      <point x="800" y="368" type="line"/>
      <point x="800" y="384" type="line"/>
      <point x="816" y="384" type="line"/>
      <point x="816" y="368" type="line"/>
      <point x="848" y="368" type="line"/>
      <point x="848" y="352" type="line"/>
      <point x="864" y="352" type="line"/>
      <point x="864" y="320" type="line"/>
      <point x="880" y="320" type="line"/>
      <point x="880" y="304" type="line"/>
      <point x="864" y="304" type="line"/>
      <point x="864" y="272" type="line"/>
      <point x="848" y="272" type="line"/>
      <point x="848" y="256" type="line"/>
      <point x="816" y="256" type="line"/>
    </contour>
    <contour>
      <point x="848" y="320" type="line"/>
      <point x="848" y="336" type="line"/>
      <point x="816" y="336" type="line"/>
      <point x="816" y="320" type="line"/>
    </contour>
  </outline>
</glyph>
<glyph name="Australien.02" format="1">
  <advance width="1936"/>
  <outline>
    <contour>
      <point x="560" y="608" type="line"/>
      <point x="560" y="784" type="line"/>
      <point x="480" y="784" type="line"/>
      <point x="480" y="608" type="line"/>
      <point x="464" y="608" type="line"/>
      <point x="464" y="592" type="line"/>
      <point x="64" y="592" type="line"/>
      <point x="64" y="512" type="line"/>
      <point x="464" y="512" type="line"/>
      <point x="464" y="496" type="line"/>
      <point x="480" y="496" type="line"/>
      <point x="480" y="320" type="line"/>
      <point x="560" y="320" type="line"/>
      <point x="560" y="496" type="line"/>
      <point x="576" y="496" type="line"/>
      <point x="576" y="512" type="line"/>
      <point x="960" y="512" type="line"/>
      <point x="960" y="592" type="line"/>
      <point x="576" y="592" type="line"/>
      <point x="576" y="608" type="line"/>
    </contour>
    <contour>
      <point x="880" y="768" type="line"/>
      <point x="864" y="768" type="line"/>
      <point x="864" y="752" type="line"/>
      <point x="832" y="752" type="line"/>
      <point x="832" y="736" type="line"/>
      <point x="800" y="736" type="line"/>
      <point x="800" y="720" type="line"/>
      <point x="768" y="720" type="line"/>
      <point x="768" y="704" type="line"/>
      <point x="736" y="704" type="line"/>
      <point x="736" y="688" type="line"/>
      <point x="704" y="688" type="line"/>
      <point x="704" y="672" type="line"/>
      <point x="672" y="672" type="line"/>
      <point x="672" y="656" type="line"/>
      <point x="640" y="656" type="line"/>
      <point x="640" y="640" type="line"/>
      <point x="624" y="640" type="line"/>
      <point x="624" y="624" type="line"/>
      <point x="672" y="624" type="line"/>
      <point x="672" y="640" type="line"/>
      <point x="704" y="640" type="line"/>
      <point x="704" y="656" type="line"/>
      <point x="736" y="656" type="line"/>
      <point x="736" y="672" type="line"/>
      <point x="768" y="672" type="line"/>
      <point x="768" y="688" type="line"/>
      <point x="800" y="688" type="line"/>
      <point x="800" y="704" type="line"/>
      <point x="832" y="704" type="line"/>
      <point x="832" y="720" type="line"/>
      <point x="864" y="720" type="line"/>
      <point x="864" y="736" type="line"/>
      <point x="896" y="736" type="line"/>
      <point x="896" y="752" type="line"/>
      <point x="928" y="752" type="line"/>
      <point x="928" y="768" type="line"/>
      <point x="960" y="768" type="line"/>
      <point x="960" y="784" type="line"/>
      <point x="880" y="784" type="line"/>
    </contour>
    <contour>
      <point x="112" y="736" type="line"/>
      <point x="112" y="720" type="line"/>
      <point x="144" y="720" type="line"/>
      <point x="144" y="704" type="line"/>
      <point x="176" y="704" type="line"/>
      <point x="176" y="688" type="line"/>
      <point x="208" y="688" type="line"/>
      <point x="208" y="672" type="line"/>
      <point x="240" y="672" type="line"/>
      <point x="240" y="656" type="line"/>
      <point x="272" y="656" type="line"/>
      <point x="272" y="640" type="line"/>
      <point x="288" y="640" type="line"/>
      <point x="288" y="624" type="line"/>
      <point x="352" y="624" type="line"/>
      <point x="352" y="640" type="line"/>
      <point x="336" y="640" type="line"/>
      <point x="336" y="656" type="line"/>
      <point x="304" y="656" type="line"/>
      <point x="304" y="672" type="line"/>
      <point x="272" y="672" type="line"/>
      <point x="272" y="688" type="line"/>
      <point x="240" y="688" type="line"/>
      <point x="240" y="704" type="line"/>
      <point x="208" y="704" type="line"/>
      <point x="208" y="720" type="line"/>
      <point x="176" y="720" type="line"/>
      <point x="176" y="736" type="line"/>
      <point x="144" y="736" type="line"/>
      <point x="144" y="752" type="line"/>
      <point x="112" y="752" type="line"/>
      <point x="112" y="768" type="line"/>
      <point x="80" y="768" type="line"/>
      <point x="80" y="784" type="line"/>
      <point x="64" y="784" type="line"/>
      <point x="64" y="752" type="line"/>
      <point x="80" y="752" type="line"/>
      <point x="80" y="736" type="line"/>
    </contour>
    <contour>
      <point x="912" y="384" type="line"/>
      <point x="880" y="384" type="line"/>
      <point x="880" y="400" type="line"/>
      <point x="864" y="400" type="line"/>
      <point x="864" y="416" type="line"/>
      <point x="832" y="416" type="line"/>
      <point x="832" y="432" type="line"/>
      <point x="800" y="432" type="line"/>
      <point x="800" y="448" type="line"/>
      <point x="768" y="448" type="line"/>
      <point x="768" y="464" type="line"/>
      <point x="736" y="464" type="line"/>
      <point x="736" y="480" type="line"/>
      <point x="688" y="480" type="line"/>
      <point x="688" y="464" type="line"/>
      <point x="704" y="464" type="line"/>
      <point x="704" y="448" type="line"/>
      <point x="736" y="448" type="line"/>
      <point x="736" y="432" type="line"/>
      <point x="768" y="432" type="line"/>
      <point x="768" y="416" type="line"/>
      <point x="800" y="416" type="line"/>
      <point x="800" y="400" type="line"/>
      <point x="832" y="400" type="line"/>
      <point x="832" y="384" type="line"/>
      <point x="864" y="384" type="line"/>
      <point x="864" y="368" type="line"/>
      <point x="896" y="368" type="line"/>
      <point x="896" y="352" type="line"/>
      <point x="928" y="352" type="line"/>
      <point x="928" y="336" type="line"/>
      <point x="944" y="336" type="line"/>
      <point x="944" y="320" type="line"/>
      <point x="960" y="320" type="line"/>
      <point x="960" y="368" type="line"/>
      <point x="912" y="368" type="line"/>
    </contour>
    <contour>
      <point x="352" y="464" type="line"/>
      <point x="320" y="464" type="line"/>
      <point x="320" y="448" type="line"/>
      <point x="304" y="448" type="line"/>
      <point x="304" y="432" type="line"/>
      <point x="272" y="432" type="line"/>
      <point x="272" y="416" type="line"/>
      <point x="240" y="416" type="line"/>
      <point x="240" y="400" type="line"/>
      <point x="208" y="400" type="line"/>
      <point x="208" y="384" type="line"/>
      <point x="176" y="384" type="line"/>
      <point x="176" y="368" type="line"/>
      <point x="144" y="368" type="line"/>
      <point x="144" y="352" type="line"/>
      <point x="112" y="352" type="line"/>
      <point x="112" y="336" type="line"/>
      <point x="80" y="336" type="line"/>
      <point x="80" y="320" type="line"/>
      <point x="144" y="320" type="line"/>
      <point x="144" y="336" type="line"/>
      <point x="176" y="336" type="line"/>
      <point x="176" y="352" type="line"/>
      <point x="208" y="352" type="line"/>
      <point x="208" y="368" type="line"/>
      <point x="240" y="368" type="line"/>
      <point x="240" y="384" type="line"/>
      <point x="272" y="384" type="line"/>
      <point x="272" y="400" type="line"/>
      <point x="304" y="400" type="line"/>
      <point x="304" y="416" type="line"/>
      <point x="336" y="416" type="line"/>
      <point x="336" y="432" type="line"/>
      <point x="352" y="432" type="line"/>
      <point x="352" y="448" type="line"/>
      <point x="400" y="448" type="line"/>
      <point x="400" y="464" type="line"/>
      <point x="416" y="464" type="line"/>
      <point x="416" y="480" type="line"/>
      <point x="352" y="480" type="line"/>
    </contour>
  </outline>
</glyph>
